G04 #@! TF.GenerationSoftware,KiCad,Pcbnew,(5.1.9-0-10_14)*
G04 #@! TF.CreationDate,2021-10-10T20:01:09+11:00*
G04 #@! TF.ProjectId,Control Board,436f6e74-726f-46c2-9042-6f6172642e6b,rev?*
G04 #@! TF.SameCoordinates,Original*
G04 #@! TF.FileFunction,Paste,Bot*
G04 #@! TF.FilePolarity,Positive*
%FSLAX46Y46*%
G04 Gerber Fmt 4.6, Leading zero omitted, Abs format (unit mm)*
G04 Created by KiCad (PCBNEW (5.1.9-0-10_14)) date 2021-10-10 20:01:09*
%MOMM*%
%LPD*%
G01*
G04 APERTURE LIST*
%ADD10C,0.100000*%
G04 APERTURE END LIST*
D10*
G36*
X86986934Y-138794315D02*
G01*
X86974865Y-138792447D01*
X86963036Y-138789410D01*
X86951561Y-138785233D01*
X86940547Y-138779956D01*
X86930101Y-138773630D01*
X86920322Y-138766314D01*
X86911304Y-138758079D01*
X86903132Y-138749004D01*
X86895885Y-138739174D01*
X86889632Y-138728684D01*
X86884432Y-138717634D01*
X86880335Y-138706129D01*
X86877381Y-138694279D01*
X86875597Y-138682198D01*
X86875000Y-138670000D01*
X86875000Y-135170000D01*
X86875006Y-135169189D01*
X86875003Y-135169127D01*
X86875006Y-135169066D01*
X86875012Y-135168255D01*
X86875370Y-135162566D01*
X86875685Y-135156934D01*
X86875751Y-135156505D01*
X86875779Y-135156066D01*
X86876683Y-135150486D01*
X86877553Y-135144865D01*
X86877663Y-135144436D01*
X86877732Y-135144011D01*
X86879165Y-135138588D01*
X86880590Y-135133036D01*
X86880740Y-135132623D01*
X86880851Y-135132204D01*
X86882827Y-135126892D01*
X86884767Y-135121561D01*
X86884955Y-135121169D01*
X86885108Y-135120757D01*
X86887594Y-135115660D01*
X86890044Y-135110547D01*
X86890272Y-135110170D01*
X86890462Y-135109781D01*
X86893408Y-135104991D01*
X86896370Y-135100101D01*
X86896634Y-135099749D01*
X86896861Y-135099379D01*
X86900288Y-135094864D01*
X86903686Y-135090322D01*
X86903979Y-135090001D01*
X86904244Y-135089652D01*
X86908126Y-135085460D01*
X86911921Y-135081304D01*
X86912242Y-135081015D01*
X86912542Y-135080691D01*
X86916769Y-135076939D01*
X86920996Y-135073132D01*
X86921353Y-135072869D01*
X86921675Y-135072583D01*
X86926237Y-135069268D01*
X86930826Y-135065885D01*
X86931199Y-135065663D01*
X86931555Y-135065404D01*
X86936466Y-135062523D01*
X86941316Y-135059632D01*
X86941711Y-135059446D01*
X86942088Y-135059225D01*
X86947246Y-135056842D01*
X86952366Y-135054432D01*
X86952775Y-135054286D01*
X86953174Y-135054102D01*
X86958532Y-135052236D01*
X86963871Y-135050335D01*
X86964297Y-135050229D01*
X86964707Y-135050086D01*
X86970247Y-135048746D01*
X86975721Y-135047381D01*
X86976146Y-135047318D01*
X86976577Y-135047214D01*
X86982291Y-135046411D01*
X86987802Y-135045597D01*
X86988229Y-135045576D01*
X86988671Y-135045514D01*
X86994400Y-135045274D01*
X87000000Y-135045000D01*
X88250000Y-135045000D01*
X88250000Y-134170000D01*
X90250000Y-134170000D01*
X90250000Y-135045000D01*
X91500000Y-135045000D01*
X91501745Y-135045012D01*
X91513934Y-135045779D01*
X91525989Y-135047732D01*
X91537796Y-135050851D01*
X91549243Y-135055108D01*
X91560219Y-135060462D01*
X91570621Y-135066861D01*
X91580348Y-135074244D01*
X91589309Y-135082542D01*
X91597417Y-135091675D01*
X91604596Y-135101555D01*
X91610775Y-135112088D01*
X91615898Y-135123174D01*
X91619914Y-135134707D01*
X91622786Y-135146577D01*
X91624486Y-135158671D01*
X91624997Y-135170873D01*
X91624315Y-135183066D01*
X91622447Y-135195135D01*
X91619410Y-135206964D01*
X91615233Y-135218439D01*
X91609956Y-135229453D01*
X91603630Y-135239899D01*
X91596314Y-135249678D01*
X91588079Y-135258696D01*
X91579004Y-135266868D01*
X91569174Y-135274115D01*
X91558684Y-135280368D01*
X91547634Y-135285568D01*
X91536129Y-135289665D01*
X91524279Y-135292619D01*
X91512198Y-135294403D01*
X91500000Y-135295000D01*
X91125000Y-135295000D01*
X91125000Y-138670000D01*
X91124988Y-138671745D01*
X91124221Y-138683934D01*
X91122268Y-138695989D01*
X91119149Y-138707796D01*
X91114892Y-138719243D01*
X91109538Y-138730219D01*
X91103139Y-138740621D01*
X91095756Y-138750348D01*
X91087458Y-138759309D01*
X91078325Y-138767417D01*
X91068445Y-138774596D01*
X91057912Y-138780775D01*
X91046826Y-138785898D01*
X91035293Y-138789914D01*
X91023423Y-138792786D01*
X91011329Y-138794486D01*
X90999127Y-138794997D01*
X90986934Y-138794315D01*
X90974865Y-138792447D01*
X90963036Y-138789410D01*
X90951561Y-138785233D01*
X90940547Y-138779956D01*
X90930101Y-138773630D01*
X90920322Y-138766314D01*
X90911304Y-138758079D01*
X90903132Y-138749004D01*
X90895885Y-138739174D01*
X90889632Y-138728684D01*
X90884432Y-138717634D01*
X90880335Y-138706129D01*
X90877381Y-138694279D01*
X90875597Y-138682198D01*
X90875000Y-138670000D01*
X90875000Y-135295000D01*
X90125000Y-135295000D01*
X90125000Y-138670000D01*
X90124988Y-138671745D01*
X90124221Y-138683934D01*
X90122268Y-138695989D01*
X90119149Y-138707796D01*
X90114892Y-138719243D01*
X90109538Y-138730219D01*
X90103139Y-138740621D01*
X90095756Y-138750348D01*
X90087458Y-138759309D01*
X90078325Y-138767417D01*
X90068445Y-138774596D01*
X90057912Y-138780775D01*
X90046826Y-138785898D01*
X90035293Y-138789914D01*
X90023423Y-138792786D01*
X90011329Y-138794486D01*
X89999127Y-138794997D01*
X89986934Y-138794315D01*
X89974865Y-138792447D01*
X89963036Y-138789410D01*
X89951561Y-138785233D01*
X89940547Y-138779956D01*
X89930101Y-138773630D01*
X89920322Y-138766314D01*
X89911304Y-138758079D01*
X89903132Y-138749004D01*
X89895885Y-138739174D01*
X89889632Y-138728684D01*
X89884432Y-138717634D01*
X89880335Y-138706129D01*
X89877381Y-138694279D01*
X89875597Y-138682198D01*
X89875000Y-138670000D01*
X89875000Y-135295000D01*
X89125000Y-135295000D01*
X89125000Y-138670000D01*
X89124988Y-138671745D01*
X89124221Y-138683934D01*
X89122268Y-138695989D01*
X89119149Y-138707796D01*
X89114892Y-138719243D01*
X89109538Y-138730219D01*
X89103139Y-138740621D01*
X89095756Y-138750348D01*
X89087458Y-138759309D01*
X89078325Y-138767417D01*
X89068445Y-138774596D01*
X89057912Y-138780775D01*
X89046826Y-138785898D01*
X89035293Y-138789914D01*
X89023423Y-138792786D01*
X89011329Y-138794486D01*
X88999127Y-138794997D01*
X88986934Y-138794315D01*
X88974865Y-138792447D01*
X88963036Y-138789410D01*
X88951561Y-138785233D01*
X88940547Y-138779956D01*
X88930101Y-138773630D01*
X88920322Y-138766314D01*
X88911304Y-138758079D01*
X88903132Y-138749004D01*
X88895885Y-138739174D01*
X88889632Y-138728684D01*
X88884432Y-138717634D01*
X88880335Y-138706129D01*
X88877381Y-138694279D01*
X88875597Y-138682198D01*
X88875000Y-138670000D01*
X88875000Y-135295000D01*
X88125000Y-135295000D01*
X88125000Y-138670000D01*
X88124988Y-138671745D01*
X88124221Y-138683934D01*
X88122268Y-138695989D01*
X88119149Y-138707796D01*
X88114892Y-138719243D01*
X88109538Y-138730219D01*
X88103139Y-138740621D01*
X88095756Y-138750348D01*
X88087458Y-138759309D01*
X88078325Y-138767417D01*
X88068445Y-138774596D01*
X88057912Y-138780775D01*
X88046826Y-138785898D01*
X88035293Y-138789914D01*
X88023423Y-138792786D01*
X88011329Y-138794486D01*
X87999127Y-138794997D01*
X87986934Y-138794315D01*
X87974865Y-138792447D01*
X87963036Y-138789410D01*
X87951561Y-138785233D01*
X87940547Y-138779956D01*
X87930101Y-138773630D01*
X87920322Y-138766314D01*
X87911304Y-138758079D01*
X87903132Y-138749004D01*
X87895885Y-138739174D01*
X87889632Y-138728684D01*
X87884432Y-138717634D01*
X87880335Y-138706129D01*
X87877381Y-138694279D01*
X87875597Y-138682198D01*
X87875000Y-138670000D01*
X87875000Y-135295000D01*
X87125000Y-135295000D01*
X87125000Y-138670000D01*
X87124988Y-138671745D01*
X87124221Y-138683934D01*
X87122268Y-138695989D01*
X87119149Y-138707796D01*
X87114892Y-138719243D01*
X87109538Y-138730219D01*
X87103139Y-138740621D01*
X87095756Y-138750348D01*
X87087458Y-138759309D01*
X87078325Y-138767417D01*
X87068445Y-138774596D01*
X87057912Y-138780775D01*
X87046826Y-138785898D01*
X87035293Y-138789914D01*
X87023423Y-138792786D01*
X87011329Y-138794486D01*
X86999127Y-138794997D01*
X86986934Y-138794315D01*
G37*
G36*
X91513066Y-135625685D02*
G01*
X91525135Y-135627553D01*
X91536964Y-135630590D01*
X91548439Y-135634767D01*
X91559453Y-135640044D01*
X91569899Y-135646370D01*
X91579678Y-135653686D01*
X91588696Y-135661921D01*
X91596868Y-135670996D01*
X91604115Y-135680826D01*
X91610368Y-135691316D01*
X91615568Y-135702366D01*
X91619665Y-135713871D01*
X91622619Y-135725721D01*
X91624403Y-135737802D01*
X91625000Y-135750000D01*
X91625000Y-139250000D01*
X91624994Y-139250811D01*
X91624997Y-139250873D01*
X91624994Y-139250934D01*
X91624988Y-139251745D01*
X91624630Y-139257434D01*
X91624315Y-139263066D01*
X91624249Y-139263495D01*
X91624221Y-139263934D01*
X91623317Y-139269514D01*
X91622447Y-139275135D01*
X91622337Y-139275564D01*
X91622268Y-139275989D01*
X91620835Y-139281412D01*
X91619410Y-139286964D01*
X91619260Y-139287377D01*
X91619149Y-139287796D01*
X91617173Y-139293108D01*
X91615233Y-139298439D01*
X91615045Y-139298831D01*
X91614892Y-139299243D01*
X91612406Y-139304340D01*
X91609956Y-139309453D01*
X91609728Y-139309830D01*
X91609538Y-139310219D01*
X91606592Y-139315009D01*
X91603630Y-139319899D01*
X91603366Y-139320251D01*
X91603139Y-139320621D01*
X91599712Y-139325136D01*
X91596314Y-139329678D01*
X91596021Y-139329999D01*
X91595756Y-139330348D01*
X91591874Y-139334540D01*
X91588079Y-139338696D01*
X91587758Y-139338985D01*
X91587458Y-139339309D01*
X91583231Y-139343061D01*
X91579004Y-139346868D01*
X91578647Y-139347131D01*
X91578325Y-139347417D01*
X91573763Y-139350732D01*
X91569174Y-139354115D01*
X91568801Y-139354337D01*
X91568445Y-139354596D01*
X91563534Y-139357477D01*
X91558684Y-139360368D01*
X91558289Y-139360554D01*
X91557912Y-139360775D01*
X91552754Y-139363158D01*
X91547634Y-139365568D01*
X91547225Y-139365714D01*
X91546826Y-139365898D01*
X91541468Y-139367764D01*
X91536129Y-139369665D01*
X91535703Y-139369771D01*
X91535293Y-139369914D01*
X91529753Y-139371254D01*
X91524279Y-139372619D01*
X91523854Y-139372682D01*
X91523423Y-139372786D01*
X91517709Y-139373589D01*
X91512198Y-139374403D01*
X91511771Y-139374424D01*
X91511329Y-139374486D01*
X91505600Y-139374726D01*
X91500000Y-139375000D01*
X90250000Y-139375000D01*
X90250000Y-140250000D01*
X88250000Y-140250000D01*
X88250000Y-139375000D01*
X87000000Y-139375000D01*
X86998255Y-139374988D01*
X86986066Y-139374221D01*
X86974011Y-139372268D01*
X86962204Y-139369149D01*
X86950757Y-139364892D01*
X86939781Y-139359538D01*
X86929379Y-139353139D01*
X86919652Y-139345756D01*
X86910691Y-139337458D01*
X86902583Y-139328325D01*
X86895404Y-139318445D01*
X86889225Y-139307912D01*
X86884102Y-139296826D01*
X86880086Y-139285293D01*
X86877214Y-139273423D01*
X86875514Y-139261329D01*
X86875003Y-139249127D01*
X86875685Y-139236934D01*
X86877553Y-139224865D01*
X86880590Y-139213036D01*
X86884767Y-139201561D01*
X86890044Y-139190547D01*
X86896370Y-139180101D01*
X86903686Y-139170322D01*
X86911921Y-139161304D01*
X86920996Y-139153132D01*
X86930826Y-139145885D01*
X86941316Y-139139632D01*
X86952366Y-139134432D01*
X86963871Y-139130335D01*
X86975721Y-139127381D01*
X86987802Y-139125597D01*
X87000000Y-139125000D01*
X87375000Y-139125000D01*
X87375000Y-135750000D01*
X87375012Y-135748255D01*
X87375779Y-135736066D01*
X87377732Y-135724011D01*
X87380851Y-135712204D01*
X87385108Y-135700757D01*
X87390462Y-135689781D01*
X87396861Y-135679379D01*
X87404244Y-135669652D01*
X87412542Y-135660691D01*
X87421675Y-135652583D01*
X87431555Y-135645404D01*
X87442088Y-135639225D01*
X87453174Y-135634102D01*
X87464707Y-135630086D01*
X87476577Y-135627214D01*
X87488671Y-135625514D01*
X87500873Y-135625003D01*
X87513066Y-135625685D01*
X87525135Y-135627553D01*
X87536964Y-135630590D01*
X87548439Y-135634767D01*
X87559453Y-135640044D01*
X87569899Y-135646370D01*
X87579678Y-135653686D01*
X87588696Y-135661921D01*
X87596868Y-135670996D01*
X87604115Y-135680826D01*
X87610368Y-135691316D01*
X87615568Y-135702366D01*
X87619665Y-135713871D01*
X87622619Y-135725721D01*
X87624403Y-135737802D01*
X87625000Y-135750000D01*
X87625000Y-139125000D01*
X88375000Y-139125000D01*
X88375000Y-135750000D01*
X88375012Y-135748255D01*
X88375779Y-135736066D01*
X88377732Y-135724011D01*
X88380851Y-135712204D01*
X88385108Y-135700757D01*
X88390462Y-135689781D01*
X88396861Y-135679379D01*
X88404244Y-135669652D01*
X88412542Y-135660691D01*
X88421675Y-135652583D01*
X88431555Y-135645404D01*
X88442088Y-135639225D01*
X88453174Y-135634102D01*
X88464707Y-135630086D01*
X88476577Y-135627214D01*
X88488671Y-135625514D01*
X88500873Y-135625003D01*
X88513066Y-135625685D01*
X88525135Y-135627553D01*
X88536964Y-135630590D01*
X88548439Y-135634767D01*
X88559453Y-135640044D01*
X88569899Y-135646370D01*
X88579678Y-135653686D01*
X88588696Y-135661921D01*
X88596868Y-135670996D01*
X88604115Y-135680826D01*
X88610368Y-135691316D01*
X88615568Y-135702366D01*
X88619665Y-135713871D01*
X88622619Y-135725721D01*
X88624403Y-135737802D01*
X88625000Y-135750000D01*
X88625000Y-139125000D01*
X89375000Y-139125000D01*
X89375000Y-135750000D01*
X89375012Y-135748255D01*
X89375779Y-135736066D01*
X89377732Y-135724011D01*
X89380851Y-135712204D01*
X89385108Y-135700757D01*
X89390462Y-135689781D01*
X89396861Y-135679379D01*
X89404244Y-135669652D01*
X89412542Y-135660691D01*
X89421675Y-135652583D01*
X89431555Y-135645404D01*
X89442088Y-135639225D01*
X89453174Y-135634102D01*
X89464707Y-135630086D01*
X89476577Y-135627214D01*
X89488671Y-135625514D01*
X89500873Y-135625003D01*
X89513066Y-135625685D01*
X89525135Y-135627553D01*
X89536964Y-135630590D01*
X89548439Y-135634767D01*
X89559453Y-135640044D01*
X89569899Y-135646370D01*
X89579678Y-135653686D01*
X89588696Y-135661921D01*
X89596868Y-135670996D01*
X89604115Y-135680826D01*
X89610368Y-135691316D01*
X89615568Y-135702366D01*
X89619665Y-135713871D01*
X89622619Y-135725721D01*
X89624403Y-135737802D01*
X89625000Y-135750000D01*
X89625000Y-139125000D01*
X90375000Y-139125000D01*
X90375000Y-135750000D01*
X90375012Y-135748255D01*
X90375779Y-135736066D01*
X90377732Y-135724011D01*
X90380851Y-135712204D01*
X90385108Y-135700757D01*
X90390462Y-135689781D01*
X90396861Y-135679379D01*
X90404244Y-135669652D01*
X90412542Y-135660691D01*
X90421675Y-135652583D01*
X90431555Y-135645404D01*
X90442088Y-135639225D01*
X90453174Y-135634102D01*
X90464707Y-135630086D01*
X90476577Y-135627214D01*
X90488671Y-135625514D01*
X90500873Y-135625003D01*
X90513066Y-135625685D01*
X90525135Y-135627553D01*
X90536964Y-135630590D01*
X90548439Y-135634767D01*
X90559453Y-135640044D01*
X90569899Y-135646370D01*
X90579678Y-135653686D01*
X90588696Y-135661921D01*
X90596868Y-135670996D01*
X90604115Y-135680826D01*
X90610368Y-135691316D01*
X90615568Y-135702366D01*
X90619665Y-135713871D01*
X90622619Y-135725721D01*
X90624403Y-135737802D01*
X90625000Y-135750000D01*
X90625000Y-139125000D01*
X91375000Y-139125000D01*
X91375000Y-135750000D01*
X91375012Y-135748255D01*
X91375779Y-135736066D01*
X91377732Y-135724011D01*
X91380851Y-135712204D01*
X91385108Y-135700757D01*
X91390462Y-135689781D01*
X91396861Y-135679379D01*
X91404244Y-135669652D01*
X91412542Y-135660691D01*
X91421675Y-135652583D01*
X91431555Y-135645404D01*
X91442088Y-135639225D01*
X91453174Y-135634102D01*
X91464707Y-135630086D01*
X91476577Y-135627214D01*
X91488671Y-135625514D01*
X91500873Y-135625003D01*
X91513066Y-135625685D01*
G37*
G36*
X131513066Y-135625685D02*
G01*
X131525135Y-135627553D01*
X131536964Y-135630590D01*
X131548439Y-135634767D01*
X131559453Y-135640044D01*
X131569899Y-135646370D01*
X131579678Y-135653686D01*
X131588696Y-135661921D01*
X131596868Y-135670996D01*
X131604115Y-135680826D01*
X131610368Y-135691316D01*
X131615568Y-135702366D01*
X131619665Y-135713871D01*
X131622619Y-135725721D01*
X131624403Y-135737802D01*
X131625000Y-135750000D01*
X131625000Y-139250000D01*
X131624994Y-139250811D01*
X131624997Y-139250873D01*
X131624994Y-139250934D01*
X131624988Y-139251745D01*
X131624630Y-139257434D01*
X131624315Y-139263066D01*
X131624249Y-139263495D01*
X131624221Y-139263934D01*
X131623317Y-139269514D01*
X131622447Y-139275135D01*
X131622337Y-139275564D01*
X131622268Y-139275989D01*
X131620835Y-139281412D01*
X131619410Y-139286964D01*
X131619260Y-139287377D01*
X131619149Y-139287796D01*
X131617173Y-139293108D01*
X131615233Y-139298439D01*
X131615045Y-139298831D01*
X131614892Y-139299243D01*
X131612406Y-139304340D01*
X131609956Y-139309453D01*
X131609728Y-139309830D01*
X131609538Y-139310219D01*
X131606592Y-139315009D01*
X131603630Y-139319899D01*
X131603366Y-139320251D01*
X131603139Y-139320621D01*
X131599712Y-139325136D01*
X131596314Y-139329678D01*
X131596021Y-139329999D01*
X131595756Y-139330348D01*
X131591874Y-139334540D01*
X131588079Y-139338696D01*
X131587758Y-139338985D01*
X131587458Y-139339309D01*
X131583231Y-139343061D01*
X131579004Y-139346868D01*
X131578647Y-139347131D01*
X131578325Y-139347417D01*
X131573763Y-139350732D01*
X131569174Y-139354115D01*
X131568801Y-139354337D01*
X131568445Y-139354596D01*
X131563534Y-139357477D01*
X131558684Y-139360368D01*
X131558289Y-139360554D01*
X131557912Y-139360775D01*
X131552754Y-139363158D01*
X131547634Y-139365568D01*
X131547225Y-139365714D01*
X131546826Y-139365898D01*
X131541468Y-139367764D01*
X131536129Y-139369665D01*
X131535703Y-139369771D01*
X131535293Y-139369914D01*
X131529753Y-139371254D01*
X131524279Y-139372619D01*
X131523854Y-139372682D01*
X131523423Y-139372786D01*
X131517709Y-139373589D01*
X131512198Y-139374403D01*
X131511771Y-139374424D01*
X131511329Y-139374486D01*
X131505600Y-139374726D01*
X131500000Y-139375000D01*
X130250000Y-139375000D01*
X130250000Y-140250000D01*
X128250000Y-140250000D01*
X128250000Y-139375000D01*
X127000000Y-139375000D01*
X126998255Y-139374988D01*
X126986066Y-139374221D01*
X126974011Y-139372268D01*
X126962204Y-139369149D01*
X126950757Y-139364892D01*
X126939781Y-139359538D01*
X126929379Y-139353139D01*
X126919652Y-139345756D01*
X126910691Y-139337458D01*
X126902583Y-139328325D01*
X126895404Y-139318445D01*
X126889225Y-139307912D01*
X126884102Y-139296826D01*
X126880086Y-139285293D01*
X126877214Y-139273423D01*
X126875514Y-139261329D01*
X126875003Y-139249127D01*
X126875685Y-139236934D01*
X126877553Y-139224865D01*
X126880590Y-139213036D01*
X126884767Y-139201561D01*
X126890044Y-139190547D01*
X126896370Y-139180101D01*
X126903686Y-139170322D01*
X126911921Y-139161304D01*
X126920996Y-139153132D01*
X126930826Y-139145885D01*
X126941316Y-139139632D01*
X126952366Y-139134432D01*
X126963871Y-139130335D01*
X126975721Y-139127381D01*
X126987802Y-139125597D01*
X127000000Y-139125000D01*
X127375000Y-139125000D01*
X127375000Y-135750000D01*
X127375012Y-135748255D01*
X127375779Y-135736066D01*
X127377732Y-135724011D01*
X127380851Y-135712204D01*
X127385108Y-135700757D01*
X127390462Y-135689781D01*
X127396861Y-135679379D01*
X127404244Y-135669652D01*
X127412542Y-135660691D01*
X127421675Y-135652583D01*
X127431555Y-135645404D01*
X127442088Y-135639225D01*
X127453174Y-135634102D01*
X127464707Y-135630086D01*
X127476577Y-135627214D01*
X127488671Y-135625514D01*
X127500873Y-135625003D01*
X127513066Y-135625685D01*
X127525135Y-135627553D01*
X127536964Y-135630590D01*
X127548439Y-135634767D01*
X127559453Y-135640044D01*
X127569899Y-135646370D01*
X127579678Y-135653686D01*
X127588696Y-135661921D01*
X127596868Y-135670996D01*
X127604115Y-135680826D01*
X127610368Y-135691316D01*
X127615568Y-135702366D01*
X127619665Y-135713871D01*
X127622619Y-135725721D01*
X127624403Y-135737802D01*
X127625000Y-135750000D01*
X127625000Y-139125000D01*
X128375000Y-139125000D01*
X128375000Y-135750000D01*
X128375012Y-135748255D01*
X128375779Y-135736066D01*
X128377732Y-135724011D01*
X128380851Y-135712204D01*
X128385108Y-135700757D01*
X128390462Y-135689781D01*
X128396861Y-135679379D01*
X128404244Y-135669652D01*
X128412542Y-135660691D01*
X128421675Y-135652583D01*
X128431555Y-135645404D01*
X128442088Y-135639225D01*
X128453174Y-135634102D01*
X128464707Y-135630086D01*
X128476577Y-135627214D01*
X128488671Y-135625514D01*
X128500873Y-135625003D01*
X128513066Y-135625685D01*
X128525135Y-135627553D01*
X128536964Y-135630590D01*
X128548439Y-135634767D01*
X128559453Y-135640044D01*
X128569899Y-135646370D01*
X128579678Y-135653686D01*
X128588696Y-135661921D01*
X128596868Y-135670996D01*
X128604115Y-135680826D01*
X128610368Y-135691316D01*
X128615568Y-135702366D01*
X128619665Y-135713871D01*
X128622619Y-135725721D01*
X128624403Y-135737802D01*
X128625000Y-135750000D01*
X128625000Y-139125000D01*
X129375000Y-139125000D01*
X129375000Y-135750000D01*
X129375012Y-135748255D01*
X129375779Y-135736066D01*
X129377732Y-135724011D01*
X129380851Y-135712204D01*
X129385108Y-135700757D01*
X129390462Y-135689781D01*
X129396861Y-135679379D01*
X129404244Y-135669652D01*
X129412542Y-135660691D01*
X129421675Y-135652583D01*
X129431555Y-135645404D01*
X129442088Y-135639225D01*
X129453174Y-135634102D01*
X129464707Y-135630086D01*
X129476577Y-135627214D01*
X129488671Y-135625514D01*
X129500873Y-135625003D01*
X129513066Y-135625685D01*
X129525135Y-135627553D01*
X129536964Y-135630590D01*
X129548439Y-135634767D01*
X129559453Y-135640044D01*
X129569899Y-135646370D01*
X129579678Y-135653686D01*
X129588696Y-135661921D01*
X129596868Y-135670996D01*
X129604115Y-135680826D01*
X129610368Y-135691316D01*
X129615568Y-135702366D01*
X129619665Y-135713871D01*
X129622619Y-135725721D01*
X129624403Y-135737802D01*
X129625000Y-135750000D01*
X129625000Y-139125000D01*
X130375000Y-139125000D01*
X130375000Y-135750000D01*
X130375012Y-135748255D01*
X130375779Y-135736066D01*
X130377732Y-135724011D01*
X130380851Y-135712204D01*
X130385108Y-135700757D01*
X130390462Y-135689781D01*
X130396861Y-135679379D01*
X130404244Y-135669652D01*
X130412542Y-135660691D01*
X130421675Y-135652583D01*
X130431555Y-135645404D01*
X130442088Y-135639225D01*
X130453174Y-135634102D01*
X130464707Y-135630086D01*
X130476577Y-135627214D01*
X130488671Y-135625514D01*
X130500873Y-135625003D01*
X130513066Y-135625685D01*
X130525135Y-135627553D01*
X130536964Y-135630590D01*
X130548439Y-135634767D01*
X130559453Y-135640044D01*
X130569899Y-135646370D01*
X130579678Y-135653686D01*
X130588696Y-135661921D01*
X130596868Y-135670996D01*
X130604115Y-135680826D01*
X130610368Y-135691316D01*
X130615568Y-135702366D01*
X130619665Y-135713871D01*
X130622619Y-135725721D01*
X130624403Y-135737802D01*
X130625000Y-135750000D01*
X130625000Y-139125000D01*
X131375000Y-139125000D01*
X131375000Y-135750000D01*
X131375012Y-135748255D01*
X131375779Y-135736066D01*
X131377732Y-135724011D01*
X131380851Y-135712204D01*
X131385108Y-135700757D01*
X131390462Y-135689781D01*
X131396861Y-135679379D01*
X131404244Y-135669652D01*
X131412542Y-135660691D01*
X131421675Y-135652583D01*
X131431555Y-135645404D01*
X131442088Y-135639225D01*
X131453174Y-135634102D01*
X131464707Y-135630086D01*
X131476577Y-135627214D01*
X131488671Y-135625514D01*
X131500873Y-135625003D01*
X131513066Y-135625685D01*
G37*
G36*
X126986934Y-138794315D02*
G01*
X126974865Y-138792447D01*
X126963036Y-138789410D01*
X126951561Y-138785233D01*
X126940547Y-138779956D01*
X126930101Y-138773630D01*
X126920322Y-138766314D01*
X126911304Y-138758079D01*
X126903132Y-138749004D01*
X126895885Y-138739174D01*
X126889632Y-138728684D01*
X126884432Y-138717634D01*
X126880335Y-138706129D01*
X126877381Y-138694279D01*
X126875597Y-138682198D01*
X126875000Y-138670000D01*
X126875000Y-135170000D01*
X126875006Y-135169189D01*
X126875003Y-135169127D01*
X126875006Y-135169066D01*
X126875012Y-135168255D01*
X126875370Y-135162566D01*
X126875685Y-135156934D01*
X126875751Y-135156505D01*
X126875779Y-135156066D01*
X126876683Y-135150486D01*
X126877553Y-135144865D01*
X126877663Y-135144436D01*
X126877732Y-135144011D01*
X126879165Y-135138588D01*
X126880590Y-135133036D01*
X126880740Y-135132623D01*
X126880851Y-135132204D01*
X126882827Y-135126892D01*
X126884767Y-135121561D01*
X126884955Y-135121169D01*
X126885108Y-135120757D01*
X126887594Y-135115660D01*
X126890044Y-135110547D01*
X126890272Y-135110170D01*
X126890462Y-135109781D01*
X126893408Y-135104991D01*
X126896370Y-135100101D01*
X126896634Y-135099749D01*
X126896861Y-135099379D01*
X126900288Y-135094864D01*
X126903686Y-135090322D01*
X126903979Y-135090001D01*
X126904244Y-135089652D01*
X126908126Y-135085460D01*
X126911921Y-135081304D01*
X126912242Y-135081015D01*
X126912542Y-135080691D01*
X126916769Y-135076939D01*
X126920996Y-135073132D01*
X126921353Y-135072869D01*
X126921675Y-135072583D01*
X126926237Y-135069268D01*
X126930826Y-135065885D01*
X126931199Y-135065663D01*
X126931555Y-135065404D01*
X126936466Y-135062523D01*
X126941316Y-135059632D01*
X126941711Y-135059446D01*
X126942088Y-135059225D01*
X126947246Y-135056842D01*
X126952366Y-135054432D01*
X126952775Y-135054286D01*
X126953174Y-135054102D01*
X126958532Y-135052236D01*
X126963871Y-135050335D01*
X126964297Y-135050229D01*
X126964707Y-135050086D01*
X126970247Y-135048746D01*
X126975721Y-135047381D01*
X126976146Y-135047318D01*
X126976577Y-135047214D01*
X126982291Y-135046411D01*
X126987802Y-135045597D01*
X126988229Y-135045576D01*
X126988671Y-135045514D01*
X126994400Y-135045274D01*
X127000000Y-135045000D01*
X128250000Y-135045000D01*
X128250000Y-134170000D01*
X130250000Y-134170000D01*
X130250000Y-135045000D01*
X131500000Y-135045000D01*
X131501745Y-135045012D01*
X131513934Y-135045779D01*
X131525989Y-135047732D01*
X131537796Y-135050851D01*
X131549243Y-135055108D01*
X131560219Y-135060462D01*
X131570621Y-135066861D01*
X131580348Y-135074244D01*
X131589309Y-135082542D01*
X131597417Y-135091675D01*
X131604596Y-135101555D01*
X131610775Y-135112088D01*
X131615898Y-135123174D01*
X131619914Y-135134707D01*
X131622786Y-135146577D01*
X131624486Y-135158671D01*
X131624997Y-135170873D01*
X131624315Y-135183066D01*
X131622447Y-135195135D01*
X131619410Y-135206964D01*
X131615233Y-135218439D01*
X131609956Y-135229453D01*
X131603630Y-135239899D01*
X131596314Y-135249678D01*
X131588079Y-135258696D01*
X131579004Y-135266868D01*
X131569174Y-135274115D01*
X131558684Y-135280368D01*
X131547634Y-135285568D01*
X131536129Y-135289665D01*
X131524279Y-135292619D01*
X131512198Y-135294403D01*
X131500000Y-135295000D01*
X131125000Y-135295000D01*
X131125000Y-138670000D01*
X131124988Y-138671745D01*
X131124221Y-138683934D01*
X131122268Y-138695989D01*
X131119149Y-138707796D01*
X131114892Y-138719243D01*
X131109538Y-138730219D01*
X131103139Y-138740621D01*
X131095756Y-138750348D01*
X131087458Y-138759309D01*
X131078325Y-138767417D01*
X131068445Y-138774596D01*
X131057912Y-138780775D01*
X131046826Y-138785898D01*
X131035293Y-138789914D01*
X131023423Y-138792786D01*
X131011329Y-138794486D01*
X130999127Y-138794997D01*
X130986934Y-138794315D01*
X130974865Y-138792447D01*
X130963036Y-138789410D01*
X130951561Y-138785233D01*
X130940547Y-138779956D01*
X130930101Y-138773630D01*
X130920322Y-138766314D01*
X130911304Y-138758079D01*
X130903132Y-138749004D01*
X130895885Y-138739174D01*
X130889632Y-138728684D01*
X130884432Y-138717634D01*
X130880335Y-138706129D01*
X130877381Y-138694279D01*
X130875597Y-138682198D01*
X130875000Y-138670000D01*
X130875000Y-135295000D01*
X130125000Y-135295000D01*
X130125000Y-138670000D01*
X130124988Y-138671745D01*
X130124221Y-138683934D01*
X130122268Y-138695989D01*
X130119149Y-138707796D01*
X130114892Y-138719243D01*
X130109538Y-138730219D01*
X130103139Y-138740621D01*
X130095756Y-138750348D01*
X130087458Y-138759309D01*
X130078325Y-138767417D01*
X130068445Y-138774596D01*
X130057912Y-138780775D01*
X130046826Y-138785898D01*
X130035293Y-138789914D01*
X130023423Y-138792786D01*
X130011329Y-138794486D01*
X129999127Y-138794997D01*
X129986934Y-138794315D01*
X129974865Y-138792447D01*
X129963036Y-138789410D01*
X129951561Y-138785233D01*
X129940547Y-138779956D01*
X129930101Y-138773630D01*
X129920322Y-138766314D01*
X129911304Y-138758079D01*
X129903132Y-138749004D01*
X129895885Y-138739174D01*
X129889632Y-138728684D01*
X129884432Y-138717634D01*
X129880335Y-138706129D01*
X129877381Y-138694279D01*
X129875597Y-138682198D01*
X129875000Y-138670000D01*
X129875000Y-135295000D01*
X129125000Y-135295000D01*
X129125000Y-138670000D01*
X129124988Y-138671745D01*
X129124221Y-138683934D01*
X129122268Y-138695989D01*
X129119149Y-138707796D01*
X129114892Y-138719243D01*
X129109538Y-138730219D01*
X129103139Y-138740621D01*
X129095756Y-138750348D01*
X129087458Y-138759309D01*
X129078325Y-138767417D01*
X129068445Y-138774596D01*
X129057912Y-138780775D01*
X129046826Y-138785898D01*
X129035293Y-138789914D01*
X129023423Y-138792786D01*
X129011329Y-138794486D01*
X128999127Y-138794997D01*
X128986934Y-138794315D01*
X128974865Y-138792447D01*
X128963036Y-138789410D01*
X128951561Y-138785233D01*
X128940547Y-138779956D01*
X128930101Y-138773630D01*
X128920322Y-138766314D01*
X128911304Y-138758079D01*
X128903132Y-138749004D01*
X128895885Y-138739174D01*
X128889632Y-138728684D01*
X128884432Y-138717634D01*
X128880335Y-138706129D01*
X128877381Y-138694279D01*
X128875597Y-138682198D01*
X128875000Y-138670000D01*
X128875000Y-135295000D01*
X128125000Y-135295000D01*
X128125000Y-138670000D01*
X128124988Y-138671745D01*
X128124221Y-138683934D01*
X128122268Y-138695989D01*
X128119149Y-138707796D01*
X128114892Y-138719243D01*
X128109538Y-138730219D01*
X128103139Y-138740621D01*
X128095756Y-138750348D01*
X128087458Y-138759309D01*
X128078325Y-138767417D01*
X128068445Y-138774596D01*
X128057912Y-138780775D01*
X128046826Y-138785898D01*
X128035293Y-138789914D01*
X128023423Y-138792786D01*
X128011329Y-138794486D01*
X127999127Y-138794997D01*
X127986934Y-138794315D01*
X127974865Y-138792447D01*
X127963036Y-138789410D01*
X127951561Y-138785233D01*
X127940547Y-138779956D01*
X127930101Y-138773630D01*
X127920322Y-138766314D01*
X127911304Y-138758079D01*
X127903132Y-138749004D01*
X127895885Y-138739174D01*
X127889632Y-138728684D01*
X127884432Y-138717634D01*
X127880335Y-138706129D01*
X127877381Y-138694279D01*
X127875597Y-138682198D01*
X127875000Y-138670000D01*
X127875000Y-135295000D01*
X127125000Y-135295000D01*
X127125000Y-138670000D01*
X127124988Y-138671745D01*
X127124221Y-138683934D01*
X127122268Y-138695989D01*
X127119149Y-138707796D01*
X127114892Y-138719243D01*
X127109538Y-138730219D01*
X127103139Y-138740621D01*
X127095756Y-138750348D01*
X127087458Y-138759309D01*
X127078325Y-138767417D01*
X127068445Y-138774596D01*
X127057912Y-138780775D01*
X127046826Y-138785898D01*
X127035293Y-138789914D01*
X127023423Y-138792786D01*
X127011329Y-138794486D01*
X126999127Y-138794997D01*
X126986934Y-138794315D01*
G37*
G36*
X123513066Y-135625685D02*
G01*
X123525135Y-135627553D01*
X123536964Y-135630590D01*
X123548439Y-135634767D01*
X123559453Y-135640044D01*
X123569899Y-135646370D01*
X123579678Y-135653686D01*
X123588696Y-135661921D01*
X123596868Y-135670996D01*
X123604115Y-135680826D01*
X123610368Y-135691316D01*
X123615568Y-135702366D01*
X123619665Y-135713871D01*
X123622619Y-135725721D01*
X123624403Y-135737802D01*
X123625000Y-135750000D01*
X123625000Y-139250000D01*
X123624994Y-139250811D01*
X123624997Y-139250873D01*
X123624994Y-139250934D01*
X123624988Y-139251745D01*
X123624630Y-139257434D01*
X123624315Y-139263066D01*
X123624249Y-139263495D01*
X123624221Y-139263934D01*
X123623317Y-139269514D01*
X123622447Y-139275135D01*
X123622337Y-139275564D01*
X123622268Y-139275989D01*
X123620835Y-139281412D01*
X123619410Y-139286964D01*
X123619260Y-139287377D01*
X123619149Y-139287796D01*
X123617173Y-139293108D01*
X123615233Y-139298439D01*
X123615045Y-139298831D01*
X123614892Y-139299243D01*
X123612406Y-139304340D01*
X123609956Y-139309453D01*
X123609728Y-139309830D01*
X123609538Y-139310219D01*
X123606592Y-139315009D01*
X123603630Y-139319899D01*
X123603366Y-139320251D01*
X123603139Y-139320621D01*
X123599712Y-139325136D01*
X123596314Y-139329678D01*
X123596021Y-139329999D01*
X123595756Y-139330348D01*
X123591874Y-139334540D01*
X123588079Y-139338696D01*
X123587758Y-139338985D01*
X123587458Y-139339309D01*
X123583231Y-139343061D01*
X123579004Y-139346868D01*
X123578647Y-139347131D01*
X123578325Y-139347417D01*
X123573763Y-139350732D01*
X123569174Y-139354115D01*
X123568801Y-139354337D01*
X123568445Y-139354596D01*
X123563534Y-139357477D01*
X123558684Y-139360368D01*
X123558289Y-139360554D01*
X123557912Y-139360775D01*
X123552754Y-139363158D01*
X123547634Y-139365568D01*
X123547225Y-139365714D01*
X123546826Y-139365898D01*
X123541468Y-139367764D01*
X123536129Y-139369665D01*
X123535703Y-139369771D01*
X123535293Y-139369914D01*
X123529753Y-139371254D01*
X123524279Y-139372619D01*
X123523854Y-139372682D01*
X123523423Y-139372786D01*
X123517709Y-139373589D01*
X123512198Y-139374403D01*
X123511771Y-139374424D01*
X123511329Y-139374486D01*
X123505600Y-139374726D01*
X123500000Y-139375000D01*
X122250000Y-139375000D01*
X122250000Y-140250000D01*
X120250000Y-140250000D01*
X120250000Y-139375000D01*
X119000000Y-139375000D01*
X118998255Y-139374988D01*
X118986066Y-139374221D01*
X118974011Y-139372268D01*
X118962204Y-139369149D01*
X118950757Y-139364892D01*
X118939781Y-139359538D01*
X118929379Y-139353139D01*
X118919652Y-139345756D01*
X118910691Y-139337458D01*
X118902583Y-139328325D01*
X118895404Y-139318445D01*
X118889225Y-139307912D01*
X118884102Y-139296826D01*
X118880086Y-139285293D01*
X118877214Y-139273423D01*
X118875514Y-139261329D01*
X118875003Y-139249127D01*
X118875685Y-139236934D01*
X118877553Y-139224865D01*
X118880590Y-139213036D01*
X118884767Y-139201561D01*
X118890044Y-139190547D01*
X118896370Y-139180101D01*
X118903686Y-139170322D01*
X118911921Y-139161304D01*
X118920996Y-139153132D01*
X118930826Y-139145885D01*
X118941316Y-139139632D01*
X118952366Y-139134432D01*
X118963871Y-139130335D01*
X118975721Y-139127381D01*
X118987802Y-139125597D01*
X119000000Y-139125000D01*
X119375000Y-139125000D01*
X119375000Y-135750000D01*
X119375012Y-135748255D01*
X119375779Y-135736066D01*
X119377732Y-135724011D01*
X119380851Y-135712204D01*
X119385108Y-135700757D01*
X119390462Y-135689781D01*
X119396861Y-135679379D01*
X119404244Y-135669652D01*
X119412542Y-135660691D01*
X119421675Y-135652583D01*
X119431555Y-135645404D01*
X119442088Y-135639225D01*
X119453174Y-135634102D01*
X119464707Y-135630086D01*
X119476577Y-135627214D01*
X119488671Y-135625514D01*
X119500873Y-135625003D01*
X119513066Y-135625685D01*
X119525135Y-135627553D01*
X119536964Y-135630590D01*
X119548439Y-135634767D01*
X119559453Y-135640044D01*
X119569899Y-135646370D01*
X119579678Y-135653686D01*
X119588696Y-135661921D01*
X119596868Y-135670996D01*
X119604115Y-135680826D01*
X119610368Y-135691316D01*
X119615568Y-135702366D01*
X119619665Y-135713871D01*
X119622619Y-135725721D01*
X119624403Y-135737802D01*
X119625000Y-135750000D01*
X119625000Y-139125000D01*
X120375000Y-139125000D01*
X120375000Y-135750000D01*
X120375012Y-135748255D01*
X120375779Y-135736066D01*
X120377732Y-135724011D01*
X120380851Y-135712204D01*
X120385108Y-135700757D01*
X120390462Y-135689781D01*
X120396861Y-135679379D01*
X120404244Y-135669652D01*
X120412542Y-135660691D01*
X120421675Y-135652583D01*
X120431555Y-135645404D01*
X120442088Y-135639225D01*
X120453174Y-135634102D01*
X120464707Y-135630086D01*
X120476577Y-135627214D01*
X120488671Y-135625514D01*
X120500873Y-135625003D01*
X120513066Y-135625685D01*
X120525135Y-135627553D01*
X120536964Y-135630590D01*
X120548439Y-135634767D01*
X120559453Y-135640044D01*
X120569899Y-135646370D01*
X120579678Y-135653686D01*
X120588696Y-135661921D01*
X120596868Y-135670996D01*
X120604115Y-135680826D01*
X120610368Y-135691316D01*
X120615568Y-135702366D01*
X120619665Y-135713871D01*
X120622619Y-135725721D01*
X120624403Y-135737802D01*
X120625000Y-135750000D01*
X120625000Y-139125000D01*
X121375000Y-139125000D01*
X121375000Y-135750000D01*
X121375012Y-135748255D01*
X121375779Y-135736066D01*
X121377732Y-135724011D01*
X121380851Y-135712204D01*
X121385108Y-135700757D01*
X121390462Y-135689781D01*
X121396861Y-135679379D01*
X121404244Y-135669652D01*
X121412542Y-135660691D01*
X121421675Y-135652583D01*
X121431555Y-135645404D01*
X121442088Y-135639225D01*
X121453174Y-135634102D01*
X121464707Y-135630086D01*
X121476577Y-135627214D01*
X121488671Y-135625514D01*
X121500873Y-135625003D01*
X121513066Y-135625685D01*
X121525135Y-135627553D01*
X121536964Y-135630590D01*
X121548439Y-135634767D01*
X121559453Y-135640044D01*
X121569899Y-135646370D01*
X121579678Y-135653686D01*
X121588696Y-135661921D01*
X121596868Y-135670996D01*
X121604115Y-135680826D01*
X121610368Y-135691316D01*
X121615568Y-135702366D01*
X121619665Y-135713871D01*
X121622619Y-135725721D01*
X121624403Y-135737802D01*
X121625000Y-135750000D01*
X121625000Y-139125000D01*
X122375000Y-139125000D01*
X122375000Y-135750000D01*
X122375012Y-135748255D01*
X122375779Y-135736066D01*
X122377732Y-135724011D01*
X122380851Y-135712204D01*
X122385108Y-135700757D01*
X122390462Y-135689781D01*
X122396861Y-135679379D01*
X122404244Y-135669652D01*
X122412542Y-135660691D01*
X122421675Y-135652583D01*
X122431555Y-135645404D01*
X122442088Y-135639225D01*
X122453174Y-135634102D01*
X122464707Y-135630086D01*
X122476577Y-135627214D01*
X122488671Y-135625514D01*
X122500873Y-135625003D01*
X122513066Y-135625685D01*
X122525135Y-135627553D01*
X122536964Y-135630590D01*
X122548439Y-135634767D01*
X122559453Y-135640044D01*
X122569899Y-135646370D01*
X122579678Y-135653686D01*
X122588696Y-135661921D01*
X122596868Y-135670996D01*
X122604115Y-135680826D01*
X122610368Y-135691316D01*
X122615568Y-135702366D01*
X122619665Y-135713871D01*
X122622619Y-135725721D01*
X122624403Y-135737802D01*
X122625000Y-135750000D01*
X122625000Y-139125000D01*
X123375000Y-139125000D01*
X123375000Y-135750000D01*
X123375012Y-135748255D01*
X123375779Y-135736066D01*
X123377732Y-135724011D01*
X123380851Y-135712204D01*
X123385108Y-135700757D01*
X123390462Y-135689781D01*
X123396861Y-135679379D01*
X123404244Y-135669652D01*
X123412542Y-135660691D01*
X123421675Y-135652583D01*
X123431555Y-135645404D01*
X123442088Y-135639225D01*
X123453174Y-135634102D01*
X123464707Y-135630086D01*
X123476577Y-135627214D01*
X123488671Y-135625514D01*
X123500873Y-135625003D01*
X123513066Y-135625685D01*
G37*
G36*
X118986934Y-138794315D02*
G01*
X118974865Y-138792447D01*
X118963036Y-138789410D01*
X118951561Y-138785233D01*
X118940547Y-138779956D01*
X118930101Y-138773630D01*
X118920322Y-138766314D01*
X118911304Y-138758079D01*
X118903132Y-138749004D01*
X118895885Y-138739174D01*
X118889632Y-138728684D01*
X118884432Y-138717634D01*
X118880335Y-138706129D01*
X118877381Y-138694279D01*
X118875597Y-138682198D01*
X118875000Y-138670000D01*
X118875000Y-135170000D01*
X118875006Y-135169189D01*
X118875003Y-135169127D01*
X118875006Y-135169066D01*
X118875012Y-135168255D01*
X118875370Y-135162566D01*
X118875685Y-135156934D01*
X118875751Y-135156505D01*
X118875779Y-135156066D01*
X118876683Y-135150486D01*
X118877553Y-135144865D01*
X118877663Y-135144436D01*
X118877732Y-135144011D01*
X118879165Y-135138588D01*
X118880590Y-135133036D01*
X118880740Y-135132623D01*
X118880851Y-135132204D01*
X118882827Y-135126892D01*
X118884767Y-135121561D01*
X118884955Y-135121169D01*
X118885108Y-135120757D01*
X118887594Y-135115660D01*
X118890044Y-135110547D01*
X118890272Y-135110170D01*
X118890462Y-135109781D01*
X118893408Y-135104991D01*
X118896370Y-135100101D01*
X118896634Y-135099749D01*
X118896861Y-135099379D01*
X118900288Y-135094864D01*
X118903686Y-135090322D01*
X118903979Y-135090001D01*
X118904244Y-135089652D01*
X118908126Y-135085460D01*
X118911921Y-135081304D01*
X118912242Y-135081015D01*
X118912542Y-135080691D01*
X118916769Y-135076939D01*
X118920996Y-135073132D01*
X118921353Y-135072869D01*
X118921675Y-135072583D01*
X118926237Y-135069268D01*
X118930826Y-135065885D01*
X118931199Y-135065663D01*
X118931555Y-135065404D01*
X118936466Y-135062523D01*
X118941316Y-135059632D01*
X118941711Y-135059446D01*
X118942088Y-135059225D01*
X118947246Y-135056842D01*
X118952366Y-135054432D01*
X118952775Y-135054286D01*
X118953174Y-135054102D01*
X118958532Y-135052236D01*
X118963871Y-135050335D01*
X118964297Y-135050229D01*
X118964707Y-135050086D01*
X118970247Y-135048746D01*
X118975721Y-135047381D01*
X118976146Y-135047318D01*
X118976577Y-135047214D01*
X118982291Y-135046411D01*
X118987802Y-135045597D01*
X118988229Y-135045576D01*
X118988671Y-135045514D01*
X118994400Y-135045274D01*
X119000000Y-135045000D01*
X120250000Y-135045000D01*
X120250000Y-134170000D01*
X122250000Y-134170000D01*
X122250000Y-135045000D01*
X123500000Y-135045000D01*
X123501745Y-135045012D01*
X123513934Y-135045779D01*
X123525989Y-135047732D01*
X123537796Y-135050851D01*
X123549243Y-135055108D01*
X123560219Y-135060462D01*
X123570621Y-135066861D01*
X123580348Y-135074244D01*
X123589309Y-135082542D01*
X123597417Y-135091675D01*
X123604596Y-135101555D01*
X123610775Y-135112088D01*
X123615898Y-135123174D01*
X123619914Y-135134707D01*
X123622786Y-135146577D01*
X123624486Y-135158671D01*
X123624997Y-135170873D01*
X123624315Y-135183066D01*
X123622447Y-135195135D01*
X123619410Y-135206964D01*
X123615233Y-135218439D01*
X123609956Y-135229453D01*
X123603630Y-135239899D01*
X123596314Y-135249678D01*
X123588079Y-135258696D01*
X123579004Y-135266868D01*
X123569174Y-135274115D01*
X123558684Y-135280368D01*
X123547634Y-135285568D01*
X123536129Y-135289665D01*
X123524279Y-135292619D01*
X123512198Y-135294403D01*
X123500000Y-135295000D01*
X123125000Y-135295000D01*
X123125000Y-138670000D01*
X123124988Y-138671745D01*
X123124221Y-138683934D01*
X123122268Y-138695989D01*
X123119149Y-138707796D01*
X123114892Y-138719243D01*
X123109538Y-138730219D01*
X123103139Y-138740621D01*
X123095756Y-138750348D01*
X123087458Y-138759309D01*
X123078325Y-138767417D01*
X123068445Y-138774596D01*
X123057912Y-138780775D01*
X123046826Y-138785898D01*
X123035293Y-138789914D01*
X123023423Y-138792786D01*
X123011329Y-138794486D01*
X122999127Y-138794997D01*
X122986934Y-138794315D01*
X122974865Y-138792447D01*
X122963036Y-138789410D01*
X122951561Y-138785233D01*
X122940547Y-138779956D01*
X122930101Y-138773630D01*
X122920322Y-138766314D01*
X122911304Y-138758079D01*
X122903132Y-138749004D01*
X122895885Y-138739174D01*
X122889632Y-138728684D01*
X122884432Y-138717634D01*
X122880335Y-138706129D01*
X122877381Y-138694279D01*
X122875597Y-138682198D01*
X122875000Y-138670000D01*
X122875000Y-135295000D01*
X122125000Y-135295000D01*
X122125000Y-138670000D01*
X122124988Y-138671745D01*
X122124221Y-138683934D01*
X122122268Y-138695989D01*
X122119149Y-138707796D01*
X122114892Y-138719243D01*
X122109538Y-138730219D01*
X122103139Y-138740621D01*
X122095756Y-138750348D01*
X122087458Y-138759309D01*
X122078325Y-138767417D01*
X122068445Y-138774596D01*
X122057912Y-138780775D01*
X122046826Y-138785898D01*
X122035293Y-138789914D01*
X122023423Y-138792786D01*
X122011329Y-138794486D01*
X121999127Y-138794997D01*
X121986934Y-138794315D01*
X121974865Y-138792447D01*
X121963036Y-138789410D01*
X121951561Y-138785233D01*
X121940547Y-138779956D01*
X121930101Y-138773630D01*
X121920322Y-138766314D01*
X121911304Y-138758079D01*
X121903132Y-138749004D01*
X121895885Y-138739174D01*
X121889632Y-138728684D01*
X121884432Y-138717634D01*
X121880335Y-138706129D01*
X121877381Y-138694279D01*
X121875597Y-138682198D01*
X121875000Y-138670000D01*
X121875000Y-135295000D01*
X121125000Y-135295000D01*
X121125000Y-138670000D01*
X121124988Y-138671745D01*
X121124221Y-138683934D01*
X121122268Y-138695989D01*
X121119149Y-138707796D01*
X121114892Y-138719243D01*
X121109538Y-138730219D01*
X121103139Y-138740621D01*
X121095756Y-138750348D01*
X121087458Y-138759309D01*
X121078325Y-138767417D01*
X121068445Y-138774596D01*
X121057912Y-138780775D01*
X121046826Y-138785898D01*
X121035293Y-138789914D01*
X121023423Y-138792786D01*
X121011329Y-138794486D01*
X120999127Y-138794997D01*
X120986934Y-138794315D01*
X120974865Y-138792447D01*
X120963036Y-138789410D01*
X120951561Y-138785233D01*
X120940547Y-138779956D01*
X120930101Y-138773630D01*
X120920322Y-138766314D01*
X120911304Y-138758079D01*
X120903132Y-138749004D01*
X120895885Y-138739174D01*
X120889632Y-138728684D01*
X120884432Y-138717634D01*
X120880335Y-138706129D01*
X120877381Y-138694279D01*
X120875597Y-138682198D01*
X120875000Y-138670000D01*
X120875000Y-135295000D01*
X120125000Y-135295000D01*
X120125000Y-138670000D01*
X120124988Y-138671745D01*
X120124221Y-138683934D01*
X120122268Y-138695989D01*
X120119149Y-138707796D01*
X120114892Y-138719243D01*
X120109538Y-138730219D01*
X120103139Y-138740621D01*
X120095756Y-138750348D01*
X120087458Y-138759309D01*
X120078325Y-138767417D01*
X120068445Y-138774596D01*
X120057912Y-138780775D01*
X120046826Y-138785898D01*
X120035293Y-138789914D01*
X120023423Y-138792786D01*
X120011329Y-138794486D01*
X119999127Y-138794997D01*
X119986934Y-138794315D01*
X119974865Y-138792447D01*
X119963036Y-138789410D01*
X119951561Y-138785233D01*
X119940547Y-138779956D01*
X119930101Y-138773630D01*
X119920322Y-138766314D01*
X119911304Y-138758079D01*
X119903132Y-138749004D01*
X119895885Y-138739174D01*
X119889632Y-138728684D01*
X119884432Y-138717634D01*
X119880335Y-138706129D01*
X119877381Y-138694279D01*
X119875597Y-138682198D01*
X119875000Y-138670000D01*
X119875000Y-135295000D01*
X119125000Y-135295000D01*
X119125000Y-138670000D01*
X119124988Y-138671745D01*
X119124221Y-138683934D01*
X119122268Y-138695989D01*
X119119149Y-138707796D01*
X119114892Y-138719243D01*
X119109538Y-138730219D01*
X119103139Y-138740621D01*
X119095756Y-138750348D01*
X119087458Y-138759309D01*
X119078325Y-138767417D01*
X119068445Y-138774596D01*
X119057912Y-138780775D01*
X119046826Y-138785898D01*
X119035293Y-138789914D01*
X119023423Y-138792786D01*
X119011329Y-138794486D01*
X118999127Y-138794997D01*
X118986934Y-138794315D01*
G37*
G36*
X115513066Y-135625685D02*
G01*
X115525135Y-135627553D01*
X115536964Y-135630590D01*
X115548439Y-135634767D01*
X115559453Y-135640044D01*
X115569899Y-135646370D01*
X115579678Y-135653686D01*
X115588696Y-135661921D01*
X115596868Y-135670996D01*
X115604115Y-135680826D01*
X115610368Y-135691316D01*
X115615568Y-135702366D01*
X115619665Y-135713871D01*
X115622619Y-135725721D01*
X115624403Y-135737802D01*
X115625000Y-135750000D01*
X115625000Y-139250000D01*
X115624994Y-139250811D01*
X115624997Y-139250873D01*
X115624994Y-139250934D01*
X115624988Y-139251745D01*
X115624630Y-139257434D01*
X115624315Y-139263066D01*
X115624249Y-139263495D01*
X115624221Y-139263934D01*
X115623317Y-139269514D01*
X115622447Y-139275135D01*
X115622337Y-139275564D01*
X115622268Y-139275989D01*
X115620835Y-139281412D01*
X115619410Y-139286964D01*
X115619260Y-139287377D01*
X115619149Y-139287796D01*
X115617173Y-139293108D01*
X115615233Y-139298439D01*
X115615045Y-139298831D01*
X115614892Y-139299243D01*
X115612406Y-139304340D01*
X115609956Y-139309453D01*
X115609728Y-139309830D01*
X115609538Y-139310219D01*
X115606592Y-139315009D01*
X115603630Y-139319899D01*
X115603366Y-139320251D01*
X115603139Y-139320621D01*
X115599712Y-139325136D01*
X115596314Y-139329678D01*
X115596021Y-139329999D01*
X115595756Y-139330348D01*
X115591874Y-139334540D01*
X115588079Y-139338696D01*
X115587758Y-139338985D01*
X115587458Y-139339309D01*
X115583231Y-139343061D01*
X115579004Y-139346868D01*
X115578647Y-139347131D01*
X115578325Y-139347417D01*
X115573763Y-139350732D01*
X115569174Y-139354115D01*
X115568801Y-139354337D01*
X115568445Y-139354596D01*
X115563534Y-139357477D01*
X115558684Y-139360368D01*
X115558289Y-139360554D01*
X115557912Y-139360775D01*
X115552754Y-139363158D01*
X115547634Y-139365568D01*
X115547225Y-139365714D01*
X115546826Y-139365898D01*
X115541468Y-139367764D01*
X115536129Y-139369665D01*
X115535703Y-139369771D01*
X115535293Y-139369914D01*
X115529753Y-139371254D01*
X115524279Y-139372619D01*
X115523854Y-139372682D01*
X115523423Y-139372786D01*
X115517709Y-139373589D01*
X115512198Y-139374403D01*
X115511771Y-139374424D01*
X115511329Y-139374486D01*
X115505600Y-139374726D01*
X115500000Y-139375000D01*
X114250000Y-139375000D01*
X114250000Y-140250000D01*
X112250000Y-140250000D01*
X112250000Y-139375000D01*
X111000000Y-139375000D01*
X110998255Y-139374988D01*
X110986066Y-139374221D01*
X110974011Y-139372268D01*
X110962204Y-139369149D01*
X110950757Y-139364892D01*
X110939781Y-139359538D01*
X110929379Y-139353139D01*
X110919652Y-139345756D01*
X110910691Y-139337458D01*
X110902583Y-139328325D01*
X110895404Y-139318445D01*
X110889225Y-139307912D01*
X110884102Y-139296826D01*
X110880086Y-139285293D01*
X110877214Y-139273423D01*
X110875514Y-139261329D01*
X110875003Y-139249127D01*
X110875685Y-139236934D01*
X110877553Y-139224865D01*
X110880590Y-139213036D01*
X110884767Y-139201561D01*
X110890044Y-139190547D01*
X110896370Y-139180101D01*
X110903686Y-139170322D01*
X110911921Y-139161304D01*
X110920996Y-139153132D01*
X110930826Y-139145885D01*
X110941316Y-139139632D01*
X110952366Y-139134432D01*
X110963871Y-139130335D01*
X110975721Y-139127381D01*
X110987802Y-139125597D01*
X111000000Y-139125000D01*
X111375000Y-139125000D01*
X111375000Y-135750000D01*
X111375012Y-135748255D01*
X111375779Y-135736066D01*
X111377732Y-135724011D01*
X111380851Y-135712204D01*
X111385108Y-135700757D01*
X111390462Y-135689781D01*
X111396861Y-135679379D01*
X111404244Y-135669652D01*
X111412542Y-135660691D01*
X111421675Y-135652583D01*
X111431555Y-135645404D01*
X111442088Y-135639225D01*
X111453174Y-135634102D01*
X111464707Y-135630086D01*
X111476577Y-135627214D01*
X111488671Y-135625514D01*
X111500873Y-135625003D01*
X111513066Y-135625685D01*
X111525135Y-135627553D01*
X111536964Y-135630590D01*
X111548439Y-135634767D01*
X111559453Y-135640044D01*
X111569899Y-135646370D01*
X111579678Y-135653686D01*
X111588696Y-135661921D01*
X111596868Y-135670996D01*
X111604115Y-135680826D01*
X111610368Y-135691316D01*
X111615568Y-135702366D01*
X111619665Y-135713871D01*
X111622619Y-135725721D01*
X111624403Y-135737802D01*
X111625000Y-135750000D01*
X111625000Y-139125000D01*
X112375000Y-139125000D01*
X112375000Y-135750000D01*
X112375012Y-135748255D01*
X112375779Y-135736066D01*
X112377732Y-135724011D01*
X112380851Y-135712204D01*
X112385108Y-135700757D01*
X112390462Y-135689781D01*
X112396861Y-135679379D01*
X112404244Y-135669652D01*
X112412542Y-135660691D01*
X112421675Y-135652583D01*
X112431555Y-135645404D01*
X112442088Y-135639225D01*
X112453174Y-135634102D01*
X112464707Y-135630086D01*
X112476577Y-135627214D01*
X112488671Y-135625514D01*
X112500873Y-135625003D01*
X112513066Y-135625685D01*
X112525135Y-135627553D01*
X112536964Y-135630590D01*
X112548439Y-135634767D01*
X112559453Y-135640044D01*
X112569899Y-135646370D01*
X112579678Y-135653686D01*
X112588696Y-135661921D01*
X112596868Y-135670996D01*
X112604115Y-135680826D01*
X112610368Y-135691316D01*
X112615568Y-135702366D01*
X112619665Y-135713871D01*
X112622619Y-135725721D01*
X112624403Y-135737802D01*
X112625000Y-135750000D01*
X112625000Y-139125000D01*
X113375000Y-139125000D01*
X113375000Y-135750000D01*
X113375012Y-135748255D01*
X113375779Y-135736066D01*
X113377732Y-135724011D01*
X113380851Y-135712204D01*
X113385108Y-135700757D01*
X113390462Y-135689781D01*
X113396861Y-135679379D01*
X113404244Y-135669652D01*
X113412542Y-135660691D01*
X113421675Y-135652583D01*
X113431555Y-135645404D01*
X113442088Y-135639225D01*
X113453174Y-135634102D01*
X113464707Y-135630086D01*
X113476577Y-135627214D01*
X113488671Y-135625514D01*
X113500873Y-135625003D01*
X113513066Y-135625685D01*
X113525135Y-135627553D01*
X113536964Y-135630590D01*
X113548439Y-135634767D01*
X113559453Y-135640044D01*
X113569899Y-135646370D01*
X113579678Y-135653686D01*
X113588696Y-135661921D01*
X113596868Y-135670996D01*
X113604115Y-135680826D01*
X113610368Y-135691316D01*
X113615568Y-135702366D01*
X113619665Y-135713871D01*
X113622619Y-135725721D01*
X113624403Y-135737802D01*
X113625000Y-135750000D01*
X113625000Y-139125000D01*
X114375000Y-139125000D01*
X114375000Y-135750000D01*
X114375012Y-135748255D01*
X114375779Y-135736066D01*
X114377732Y-135724011D01*
X114380851Y-135712204D01*
X114385108Y-135700757D01*
X114390462Y-135689781D01*
X114396861Y-135679379D01*
X114404244Y-135669652D01*
X114412542Y-135660691D01*
X114421675Y-135652583D01*
X114431555Y-135645404D01*
X114442088Y-135639225D01*
X114453174Y-135634102D01*
X114464707Y-135630086D01*
X114476577Y-135627214D01*
X114488671Y-135625514D01*
X114500873Y-135625003D01*
X114513066Y-135625685D01*
X114525135Y-135627553D01*
X114536964Y-135630590D01*
X114548439Y-135634767D01*
X114559453Y-135640044D01*
X114569899Y-135646370D01*
X114579678Y-135653686D01*
X114588696Y-135661921D01*
X114596868Y-135670996D01*
X114604115Y-135680826D01*
X114610368Y-135691316D01*
X114615568Y-135702366D01*
X114619665Y-135713871D01*
X114622619Y-135725721D01*
X114624403Y-135737802D01*
X114625000Y-135750000D01*
X114625000Y-139125000D01*
X115375000Y-139125000D01*
X115375000Y-135750000D01*
X115375012Y-135748255D01*
X115375779Y-135736066D01*
X115377732Y-135724011D01*
X115380851Y-135712204D01*
X115385108Y-135700757D01*
X115390462Y-135689781D01*
X115396861Y-135679379D01*
X115404244Y-135669652D01*
X115412542Y-135660691D01*
X115421675Y-135652583D01*
X115431555Y-135645404D01*
X115442088Y-135639225D01*
X115453174Y-135634102D01*
X115464707Y-135630086D01*
X115476577Y-135627214D01*
X115488671Y-135625514D01*
X115500873Y-135625003D01*
X115513066Y-135625685D01*
G37*
G36*
X110986934Y-138794315D02*
G01*
X110974865Y-138792447D01*
X110963036Y-138789410D01*
X110951561Y-138785233D01*
X110940547Y-138779956D01*
X110930101Y-138773630D01*
X110920322Y-138766314D01*
X110911304Y-138758079D01*
X110903132Y-138749004D01*
X110895885Y-138739174D01*
X110889632Y-138728684D01*
X110884432Y-138717634D01*
X110880335Y-138706129D01*
X110877381Y-138694279D01*
X110875597Y-138682198D01*
X110875000Y-138670000D01*
X110875000Y-135170000D01*
X110875006Y-135169189D01*
X110875003Y-135169127D01*
X110875006Y-135169066D01*
X110875012Y-135168255D01*
X110875370Y-135162566D01*
X110875685Y-135156934D01*
X110875751Y-135156505D01*
X110875779Y-135156066D01*
X110876683Y-135150486D01*
X110877553Y-135144865D01*
X110877663Y-135144436D01*
X110877732Y-135144011D01*
X110879165Y-135138588D01*
X110880590Y-135133036D01*
X110880740Y-135132623D01*
X110880851Y-135132204D01*
X110882827Y-135126892D01*
X110884767Y-135121561D01*
X110884955Y-135121169D01*
X110885108Y-135120757D01*
X110887594Y-135115660D01*
X110890044Y-135110547D01*
X110890272Y-135110170D01*
X110890462Y-135109781D01*
X110893408Y-135104991D01*
X110896370Y-135100101D01*
X110896634Y-135099749D01*
X110896861Y-135099379D01*
X110900288Y-135094864D01*
X110903686Y-135090322D01*
X110903979Y-135090001D01*
X110904244Y-135089652D01*
X110908126Y-135085460D01*
X110911921Y-135081304D01*
X110912242Y-135081015D01*
X110912542Y-135080691D01*
X110916769Y-135076939D01*
X110920996Y-135073132D01*
X110921353Y-135072869D01*
X110921675Y-135072583D01*
X110926237Y-135069268D01*
X110930826Y-135065885D01*
X110931199Y-135065663D01*
X110931555Y-135065404D01*
X110936466Y-135062523D01*
X110941316Y-135059632D01*
X110941711Y-135059446D01*
X110942088Y-135059225D01*
X110947246Y-135056842D01*
X110952366Y-135054432D01*
X110952775Y-135054286D01*
X110953174Y-135054102D01*
X110958532Y-135052236D01*
X110963871Y-135050335D01*
X110964297Y-135050229D01*
X110964707Y-135050086D01*
X110970247Y-135048746D01*
X110975721Y-135047381D01*
X110976146Y-135047318D01*
X110976577Y-135047214D01*
X110982291Y-135046411D01*
X110987802Y-135045597D01*
X110988229Y-135045576D01*
X110988671Y-135045514D01*
X110994400Y-135045274D01*
X111000000Y-135045000D01*
X112250000Y-135045000D01*
X112250000Y-134170000D01*
X114250000Y-134170000D01*
X114250000Y-135045000D01*
X115500000Y-135045000D01*
X115501745Y-135045012D01*
X115513934Y-135045779D01*
X115525989Y-135047732D01*
X115537796Y-135050851D01*
X115549243Y-135055108D01*
X115560219Y-135060462D01*
X115570621Y-135066861D01*
X115580348Y-135074244D01*
X115589309Y-135082542D01*
X115597417Y-135091675D01*
X115604596Y-135101555D01*
X115610775Y-135112088D01*
X115615898Y-135123174D01*
X115619914Y-135134707D01*
X115622786Y-135146577D01*
X115624486Y-135158671D01*
X115624997Y-135170873D01*
X115624315Y-135183066D01*
X115622447Y-135195135D01*
X115619410Y-135206964D01*
X115615233Y-135218439D01*
X115609956Y-135229453D01*
X115603630Y-135239899D01*
X115596314Y-135249678D01*
X115588079Y-135258696D01*
X115579004Y-135266868D01*
X115569174Y-135274115D01*
X115558684Y-135280368D01*
X115547634Y-135285568D01*
X115536129Y-135289665D01*
X115524279Y-135292619D01*
X115512198Y-135294403D01*
X115500000Y-135295000D01*
X115125000Y-135295000D01*
X115125000Y-138670000D01*
X115124988Y-138671745D01*
X115124221Y-138683934D01*
X115122268Y-138695989D01*
X115119149Y-138707796D01*
X115114892Y-138719243D01*
X115109538Y-138730219D01*
X115103139Y-138740621D01*
X115095756Y-138750348D01*
X115087458Y-138759309D01*
X115078325Y-138767417D01*
X115068445Y-138774596D01*
X115057912Y-138780775D01*
X115046826Y-138785898D01*
X115035293Y-138789914D01*
X115023423Y-138792786D01*
X115011329Y-138794486D01*
X114999127Y-138794997D01*
X114986934Y-138794315D01*
X114974865Y-138792447D01*
X114963036Y-138789410D01*
X114951561Y-138785233D01*
X114940547Y-138779956D01*
X114930101Y-138773630D01*
X114920322Y-138766314D01*
X114911304Y-138758079D01*
X114903132Y-138749004D01*
X114895885Y-138739174D01*
X114889632Y-138728684D01*
X114884432Y-138717634D01*
X114880335Y-138706129D01*
X114877381Y-138694279D01*
X114875597Y-138682198D01*
X114875000Y-138670000D01*
X114875000Y-135295000D01*
X114125000Y-135295000D01*
X114125000Y-138670000D01*
X114124988Y-138671745D01*
X114124221Y-138683934D01*
X114122268Y-138695989D01*
X114119149Y-138707796D01*
X114114892Y-138719243D01*
X114109538Y-138730219D01*
X114103139Y-138740621D01*
X114095756Y-138750348D01*
X114087458Y-138759309D01*
X114078325Y-138767417D01*
X114068445Y-138774596D01*
X114057912Y-138780775D01*
X114046826Y-138785898D01*
X114035293Y-138789914D01*
X114023423Y-138792786D01*
X114011329Y-138794486D01*
X113999127Y-138794997D01*
X113986934Y-138794315D01*
X113974865Y-138792447D01*
X113963036Y-138789410D01*
X113951561Y-138785233D01*
X113940547Y-138779956D01*
X113930101Y-138773630D01*
X113920322Y-138766314D01*
X113911304Y-138758079D01*
X113903132Y-138749004D01*
X113895885Y-138739174D01*
X113889632Y-138728684D01*
X113884432Y-138717634D01*
X113880335Y-138706129D01*
X113877381Y-138694279D01*
X113875597Y-138682198D01*
X113875000Y-138670000D01*
X113875000Y-135295000D01*
X113125000Y-135295000D01*
X113125000Y-138670000D01*
X113124988Y-138671745D01*
X113124221Y-138683934D01*
X113122268Y-138695989D01*
X113119149Y-138707796D01*
X113114892Y-138719243D01*
X113109538Y-138730219D01*
X113103139Y-138740621D01*
X113095756Y-138750348D01*
X113087458Y-138759309D01*
X113078325Y-138767417D01*
X113068445Y-138774596D01*
X113057912Y-138780775D01*
X113046826Y-138785898D01*
X113035293Y-138789914D01*
X113023423Y-138792786D01*
X113011329Y-138794486D01*
X112999127Y-138794997D01*
X112986934Y-138794315D01*
X112974865Y-138792447D01*
X112963036Y-138789410D01*
X112951561Y-138785233D01*
X112940547Y-138779956D01*
X112930101Y-138773630D01*
X112920322Y-138766314D01*
X112911304Y-138758079D01*
X112903132Y-138749004D01*
X112895885Y-138739174D01*
X112889632Y-138728684D01*
X112884432Y-138717634D01*
X112880335Y-138706129D01*
X112877381Y-138694279D01*
X112875597Y-138682198D01*
X112875000Y-138670000D01*
X112875000Y-135295000D01*
X112125000Y-135295000D01*
X112125000Y-138670000D01*
X112124988Y-138671745D01*
X112124221Y-138683934D01*
X112122268Y-138695989D01*
X112119149Y-138707796D01*
X112114892Y-138719243D01*
X112109538Y-138730219D01*
X112103139Y-138740621D01*
X112095756Y-138750348D01*
X112087458Y-138759309D01*
X112078325Y-138767417D01*
X112068445Y-138774596D01*
X112057912Y-138780775D01*
X112046826Y-138785898D01*
X112035293Y-138789914D01*
X112023423Y-138792786D01*
X112011329Y-138794486D01*
X111999127Y-138794997D01*
X111986934Y-138794315D01*
X111974865Y-138792447D01*
X111963036Y-138789410D01*
X111951561Y-138785233D01*
X111940547Y-138779956D01*
X111930101Y-138773630D01*
X111920322Y-138766314D01*
X111911304Y-138758079D01*
X111903132Y-138749004D01*
X111895885Y-138739174D01*
X111889632Y-138728684D01*
X111884432Y-138717634D01*
X111880335Y-138706129D01*
X111877381Y-138694279D01*
X111875597Y-138682198D01*
X111875000Y-138670000D01*
X111875000Y-135295000D01*
X111125000Y-135295000D01*
X111125000Y-138670000D01*
X111124988Y-138671745D01*
X111124221Y-138683934D01*
X111122268Y-138695989D01*
X111119149Y-138707796D01*
X111114892Y-138719243D01*
X111109538Y-138730219D01*
X111103139Y-138740621D01*
X111095756Y-138750348D01*
X111087458Y-138759309D01*
X111078325Y-138767417D01*
X111068445Y-138774596D01*
X111057912Y-138780775D01*
X111046826Y-138785898D01*
X111035293Y-138789914D01*
X111023423Y-138792786D01*
X111011329Y-138794486D01*
X110999127Y-138794997D01*
X110986934Y-138794315D01*
G37*
G36*
X102986934Y-138794315D02*
G01*
X102974865Y-138792447D01*
X102963036Y-138789410D01*
X102951561Y-138785233D01*
X102940547Y-138779956D01*
X102930101Y-138773630D01*
X102920322Y-138766314D01*
X102911304Y-138758079D01*
X102903132Y-138749004D01*
X102895885Y-138739174D01*
X102889632Y-138728684D01*
X102884432Y-138717634D01*
X102880335Y-138706129D01*
X102877381Y-138694279D01*
X102875597Y-138682198D01*
X102875000Y-138670000D01*
X102875000Y-135170000D01*
X102875006Y-135169189D01*
X102875003Y-135169127D01*
X102875006Y-135169066D01*
X102875012Y-135168255D01*
X102875370Y-135162566D01*
X102875685Y-135156934D01*
X102875751Y-135156505D01*
X102875779Y-135156066D01*
X102876683Y-135150486D01*
X102877553Y-135144865D01*
X102877663Y-135144436D01*
X102877732Y-135144011D01*
X102879165Y-135138588D01*
X102880590Y-135133036D01*
X102880740Y-135132623D01*
X102880851Y-135132204D01*
X102882827Y-135126892D01*
X102884767Y-135121561D01*
X102884955Y-135121169D01*
X102885108Y-135120757D01*
X102887594Y-135115660D01*
X102890044Y-135110547D01*
X102890272Y-135110170D01*
X102890462Y-135109781D01*
X102893408Y-135104991D01*
X102896370Y-135100101D01*
X102896634Y-135099749D01*
X102896861Y-135099379D01*
X102900288Y-135094864D01*
X102903686Y-135090322D01*
X102903979Y-135090001D01*
X102904244Y-135089652D01*
X102908126Y-135085460D01*
X102911921Y-135081304D01*
X102912242Y-135081015D01*
X102912542Y-135080691D01*
X102916769Y-135076939D01*
X102920996Y-135073132D01*
X102921353Y-135072869D01*
X102921675Y-135072583D01*
X102926237Y-135069268D01*
X102930826Y-135065885D01*
X102931199Y-135065663D01*
X102931555Y-135065404D01*
X102936466Y-135062523D01*
X102941316Y-135059632D01*
X102941711Y-135059446D01*
X102942088Y-135059225D01*
X102947246Y-135056842D01*
X102952366Y-135054432D01*
X102952775Y-135054286D01*
X102953174Y-135054102D01*
X102958532Y-135052236D01*
X102963871Y-135050335D01*
X102964297Y-135050229D01*
X102964707Y-135050086D01*
X102970247Y-135048746D01*
X102975721Y-135047381D01*
X102976146Y-135047318D01*
X102976577Y-135047214D01*
X102982291Y-135046411D01*
X102987802Y-135045597D01*
X102988229Y-135045576D01*
X102988671Y-135045514D01*
X102994400Y-135045274D01*
X103000000Y-135045000D01*
X104250000Y-135045000D01*
X104250000Y-134170000D01*
X106250000Y-134170000D01*
X106250000Y-135045000D01*
X107500000Y-135045000D01*
X107501745Y-135045012D01*
X107513934Y-135045779D01*
X107525989Y-135047732D01*
X107537796Y-135050851D01*
X107549243Y-135055108D01*
X107560219Y-135060462D01*
X107570621Y-135066861D01*
X107580348Y-135074244D01*
X107589309Y-135082542D01*
X107597417Y-135091675D01*
X107604596Y-135101555D01*
X107610775Y-135112088D01*
X107615898Y-135123174D01*
X107619914Y-135134707D01*
X107622786Y-135146577D01*
X107624486Y-135158671D01*
X107624997Y-135170873D01*
X107624315Y-135183066D01*
X107622447Y-135195135D01*
X107619410Y-135206964D01*
X107615233Y-135218439D01*
X107609956Y-135229453D01*
X107603630Y-135239899D01*
X107596314Y-135249678D01*
X107588079Y-135258696D01*
X107579004Y-135266868D01*
X107569174Y-135274115D01*
X107558684Y-135280368D01*
X107547634Y-135285568D01*
X107536129Y-135289665D01*
X107524279Y-135292619D01*
X107512198Y-135294403D01*
X107500000Y-135295000D01*
X107125000Y-135295000D01*
X107125000Y-138670000D01*
X107124988Y-138671745D01*
X107124221Y-138683934D01*
X107122268Y-138695989D01*
X107119149Y-138707796D01*
X107114892Y-138719243D01*
X107109538Y-138730219D01*
X107103139Y-138740621D01*
X107095756Y-138750348D01*
X107087458Y-138759309D01*
X107078325Y-138767417D01*
X107068445Y-138774596D01*
X107057912Y-138780775D01*
X107046826Y-138785898D01*
X107035293Y-138789914D01*
X107023423Y-138792786D01*
X107011329Y-138794486D01*
X106999127Y-138794997D01*
X106986934Y-138794315D01*
X106974865Y-138792447D01*
X106963036Y-138789410D01*
X106951561Y-138785233D01*
X106940547Y-138779956D01*
X106930101Y-138773630D01*
X106920322Y-138766314D01*
X106911304Y-138758079D01*
X106903132Y-138749004D01*
X106895885Y-138739174D01*
X106889632Y-138728684D01*
X106884432Y-138717634D01*
X106880335Y-138706129D01*
X106877381Y-138694279D01*
X106875597Y-138682198D01*
X106875000Y-138670000D01*
X106875000Y-135295000D01*
X106125000Y-135295000D01*
X106125000Y-138670000D01*
X106124988Y-138671745D01*
X106124221Y-138683934D01*
X106122268Y-138695989D01*
X106119149Y-138707796D01*
X106114892Y-138719243D01*
X106109538Y-138730219D01*
X106103139Y-138740621D01*
X106095756Y-138750348D01*
X106087458Y-138759309D01*
X106078325Y-138767417D01*
X106068445Y-138774596D01*
X106057912Y-138780775D01*
X106046826Y-138785898D01*
X106035293Y-138789914D01*
X106023423Y-138792786D01*
X106011329Y-138794486D01*
X105999127Y-138794997D01*
X105986934Y-138794315D01*
X105974865Y-138792447D01*
X105963036Y-138789410D01*
X105951561Y-138785233D01*
X105940547Y-138779956D01*
X105930101Y-138773630D01*
X105920322Y-138766314D01*
X105911304Y-138758079D01*
X105903132Y-138749004D01*
X105895885Y-138739174D01*
X105889632Y-138728684D01*
X105884432Y-138717634D01*
X105880335Y-138706129D01*
X105877381Y-138694279D01*
X105875597Y-138682198D01*
X105875000Y-138670000D01*
X105875000Y-135295000D01*
X105125000Y-135295000D01*
X105125000Y-138670000D01*
X105124988Y-138671745D01*
X105124221Y-138683934D01*
X105122268Y-138695989D01*
X105119149Y-138707796D01*
X105114892Y-138719243D01*
X105109538Y-138730219D01*
X105103139Y-138740621D01*
X105095756Y-138750348D01*
X105087458Y-138759309D01*
X105078325Y-138767417D01*
X105068445Y-138774596D01*
X105057912Y-138780775D01*
X105046826Y-138785898D01*
X105035293Y-138789914D01*
X105023423Y-138792786D01*
X105011329Y-138794486D01*
X104999127Y-138794997D01*
X104986934Y-138794315D01*
X104974865Y-138792447D01*
X104963036Y-138789410D01*
X104951561Y-138785233D01*
X104940547Y-138779956D01*
X104930101Y-138773630D01*
X104920322Y-138766314D01*
X104911304Y-138758079D01*
X104903132Y-138749004D01*
X104895885Y-138739174D01*
X104889632Y-138728684D01*
X104884432Y-138717634D01*
X104880335Y-138706129D01*
X104877381Y-138694279D01*
X104875597Y-138682198D01*
X104875000Y-138670000D01*
X104875000Y-135295000D01*
X104125000Y-135295000D01*
X104125000Y-138670000D01*
X104124988Y-138671745D01*
X104124221Y-138683934D01*
X104122268Y-138695989D01*
X104119149Y-138707796D01*
X104114892Y-138719243D01*
X104109538Y-138730219D01*
X104103139Y-138740621D01*
X104095756Y-138750348D01*
X104087458Y-138759309D01*
X104078325Y-138767417D01*
X104068445Y-138774596D01*
X104057912Y-138780775D01*
X104046826Y-138785898D01*
X104035293Y-138789914D01*
X104023423Y-138792786D01*
X104011329Y-138794486D01*
X103999127Y-138794997D01*
X103986934Y-138794315D01*
X103974865Y-138792447D01*
X103963036Y-138789410D01*
X103951561Y-138785233D01*
X103940547Y-138779956D01*
X103930101Y-138773630D01*
X103920322Y-138766314D01*
X103911304Y-138758079D01*
X103903132Y-138749004D01*
X103895885Y-138739174D01*
X103889632Y-138728684D01*
X103884432Y-138717634D01*
X103880335Y-138706129D01*
X103877381Y-138694279D01*
X103875597Y-138682198D01*
X103875000Y-138670000D01*
X103875000Y-135295000D01*
X103125000Y-135295000D01*
X103125000Y-138670000D01*
X103124988Y-138671745D01*
X103124221Y-138683934D01*
X103122268Y-138695989D01*
X103119149Y-138707796D01*
X103114892Y-138719243D01*
X103109538Y-138730219D01*
X103103139Y-138740621D01*
X103095756Y-138750348D01*
X103087458Y-138759309D01*
X103078325Y-138767417D01*
X103068445Y-138774596D01*
X103057912Y-138780775D01*
X103046826Y-138785898D01*
X103035293Y-138789914D01*
X103023423Y-138792786D01*
X103011329Y-138794486D01*
X102999127Y-138794997D01*
X102986934Y-138794315D01*
G37*
G36*
X107513066Y-135625685D02*
G01*
X107525135Y-135627553D01*
X107536964Y-135630590D01*
X107548439Y-135634767D01*
X107559453Y-135640044D01*
X107569899Y-135646370D01*
X107579678Y-135653686D01*
X107588696Y-135661921D01*
X107596868Y-135670996D01*
X107604115Y-135680826D01*
X107610368Y-135691316D01*
X107615568Y-135702366D01*
X107619665Y-135713871D01*
X107622619Y-135725721D01*
X107624403Y-135737802D01*
X107625000Y-135750000D01*
X107625000Y-139250000D01*
X107624994Y-139250811D01*
X107624997Y-139250873D01*
X107624994Y-139250934D01*
X107624988Y-139251745D01*
X107624630Y-139257434D01*
X107624315Y-139263066D01*
X107624249Y-139263495D01*
X107624221Y-139263934D01*
X107623317Y-139269514D01*
X107622447Y-139275135D01*
X107622337Y-139275564D01*
X107622268Y-139275989D01*
X107620835Y-139281412D01*
X107619410Y-139286964D01*
X107619260Y-139287377D01*
X107619149Y-139287796D01*
X107617173Y-139293108D01*
X107615233Y-139298439D01*
X107615045Y-139298831D01*
X107614892Y-139299243D01*
X107612406Y-139304340D01*
X107609956Y-139309453D01*
X107609728Y-139309830D01*
X107609538Y-139310219D01*
X107606592Y-139315009D01*
X107603630Y-139319899D01*
X107603366Y-139320251D01*
X107603139Y-139320621D01*
X107599712Y-139325136D01*
X107596314Y-139329678D01*
X107596021Y-139329999D01*
X107595756Y-139330348D01*
X107591874Y-139334540D01*
X107588079Y-139338696D01*
X107587758Y-139338985D01*
X107587458Y-139339309D01*
X107583231Y-139343061D01*
X107579004Y-139346868D01*
X107578647Y-139347131D01*
X107578325Y-139347417D01*
X107573763Y-139350732D01*
X107569174Y-139354115D01*
X107568801Y-139354337D01*
X107568445Y-139354596D01*
X107563534Y-139357477D01*
X107558684Y-139360368D01*
X107558289Y-139360554D01*
X107557912Y-139360775D01*
X107552754Y-139363158D01*
X107547634Y-139365568D01*
X107547225Y-139365714D01*
X107546826Y-139365898D01*
X107541468Y-139367764D01*
X107536129Y-139369665D01*
X107535703Y-139369771D01*
X107535293Y-139369914D01*
X107529753Y-139371254D01*
X107524279Y-139372619D01*
X107523854Y-139372682D01*
X107523423Y-139372786D01*
X107517709Y-139373589D01*
X107512198Y-139374403D01*
X107511771Y-139374424D01*
X107511329Y-139374486D01*
X107505600Y-139374726D01*
X107500000Y-139375000D01*
X106250000Y-139375000D01*
X106250000Y-140250000D01*
X104250000Y-140250000D01*
X104250000Y-139375000D01*
X103000000Y-139375000D01*
X102998255Y-139374988D01*
X102986066Y-139374221D01*
X102974011Y-139372268D01*
X102962204Y-139369149D01*
X102950757Y-139364892D01*
X102939781Y-139359538D01*
X102929379Y-139353139D01*
X102919652Y-139345756D01*
X102910691Y-139337458D01*
X102902583Y-139328325D01*
X102895404Y-139318445D01*
X102889225Y-139307912D01*
X102884102Y-139296826D01*
X102880086Y-139285293D01*
X102877214Y-139273423D01*
X102875514Y-139261329D01*
X102875003Y-139249127D01*
X102875685Y-139236934D01*
X102877553Y-139224865D01*
X102880590Y-139213036D01*
X102884767Y-139201561D01*
X102890044Y-139190547D01*
X102896370Y-139180101D01*
X102903686Y-139170322D01*
X102911921Y-139161304D01*
X102920996Y-139153132D01*
X102930826Y-139145885D01*
X102941316Y-139139632D01*
X102952366Y-139134432D01*
X102963871Y-139130335D01*
X102975721Y-139127381D01*
X102987802Y-139125597D01*
X103000000Y-139125000D01*
X103375000Y-139125000D01*
X103375000Y-135750000D01*
X103375012Y-135748255D01*
X103375779Y-135736066D01*
X103377732Y-135724011D01*
X103380851Y-135712204D01*
X103385108Y-135700757D01*
X103390462Y-135689781D01*
X103396861Y-135679379D01*
X103404244Y-135669652D01*
X103412542Y-135660691D01*
X103421675Y-135652583D01*
X103431555Y-135645404D01*
X103442088Y-135639225D01*
X103453174Y-135634102D01*
X103464707Y-135630086D01*
X103476577Y-135627214D01*
X103488671Y-135625514D01*
X103500873Y-135625003D01*
X103513066Y-135625685D01*
X103525135Y-135627553D01*
X103536964Y-135630590D01*
X103548439Y-135634767D01*
X103559453Y-135640044D01*
X103569899Y-135646370D01*
X103579678Y-135653686D01*
X103588696Y-135661921D01*
X103596868Y-135670996D01*
X103604115Y-135680826D01*
X103610368Y-135691316D01*
X103615568Y-135702366D01*
X103619665Y-135713871D01*
X103622619Y-135725721D01*
X103624403Y-135737802D01*
X103625000Y-135750000D01*
X103625000Y-139125000D01*
X104375000Y-139125000D01*
X104375000Y-135750000D01*
X104375012Y-135748255D01*
X104375779Y-135736066D01*
X104377732Y-135724011D01*
X104380851Y-135712204D01*
X104385108Y-135700757D01*
X104390462Y-135689781D01*
X104396861Y-135679379D01*
X104404244Y-135669652D01*
X104412542Y-135660691D01*
X104421675Y-135652583D01*
X104431555Y-135645404D01*
X104442088Y-135639225D01*
X104453174Y-135634102D01*
X104464707Y-135630086D01*
X104476577Y-135627214D01*
X104488671Y-135625514D01*
X104500873Y-135625003D01*
X104513066Y-135625685D01*
X104525135Y-135627553D01*
X104536964Y-135630590D01*
X104548439Y-135634767D01*
X104559453Y-135640044D01*
X104569899Y-135646370D01*
X104579678Y-135653686D01*
X104588696Y-135661921D01*
X104596868Y-135670996D01*
X104604115Y-135680826D01*
X104610368Y-135691316D01*
X104615568Y-135702366D01*
X104619665Y-135713871D01*
X104622619Y-135725721D01*
X104624403Y-135737802D01*
X104625000Y-135750000D01*
X104625000Y-139125000D01*
X105375000Y-139125000D01*
X105375000Y-135750000D01*
X105375012Y-135748255D01*
X105375779Y-135736066D01*
X105377732Y-135724011D01*
X105380851Y-135712204D01*
X105385108Y-135700757D01*
X105390462Y-135689781D01*
X105396861Y-135679379D01*
X105404244Y-135669652D01*
X105412542Y-135660691D01*
X105421675Y-135652583D01*
X105431555Y-135645404D01*
X105442088Y-135639225D01*
X105453174Y-135634102D01*
X105464707Y-135630086D01*
X105476577Y-135627214D01*
X105488671Y-135625514D01*
X105500873Y-135625003D01*
X105513066Y-135625685D01*
X105525135Y-135627553D01*
X105536964Y-135630590D01*
X105548439Y-135634767D01*
X105559453Y-135640044D01*
X105569899Y-135646370D01*
X105579678Y-135653686D01*
X105588696Y-135661921D01*
X105596868Y-135670996D01*
X105604115Y-135680826D01*
X105610368Y-135691316D01*
X105615568Y-135702366D01*
X105619665Y-135713871D01*
X105622619Y-135725721D01*
X105624403Y-135737802D01*
X105625000Y-135750000D01*
X105625000Y-139125000D01*
X106375000Y-139125000D01*
X106375000Y-135750000D01*
X106375012Y-135748255D01*
X106375779Y-135736066D01*
X106377732Y-135724011D01*
X106380851Y-135712204D01*
X106385108Y-135700757D01*
X106390462Y-135689781D01*
X106396861Y-135679379D01*
X106404244Y-135669652D01*
X106412542Y-135660691D01*
X106421675Y-135652583D01*
X106431555Y-135645404D01*
X106442088Y-135639225D01*
X106453174Y-135634102D01*
X106464707Y-135630086D01*
X106476577Y-135627214D01*
X106488671Y-135625514D01*
X106500873Y-135625003D01*
X106513066Y-135625685D01*
X106525135Y-135627553D01*
X106536964Y-135630590D01*
X106548439Y-135634767D01*
X106559453Y-135640044D01*
X106569899Y-135646370D01*
X106579678Y-135653686D01*
X106588696Y-135661921D01*
X106596868Y-135670996D01*
X106604115Y-135680826D01*
X106610368Y-135691316D01*
X106615568Y-135702366D01*
X106619665Y-135713871D01*
X106622619Y-135725721D01*
X106624403Y-135737802D01*
X106625000Y-135750000D01*
X106625000Y-139125000D01*
X107375000Y-139125000D01*
X107375000Y-135750000D01*
X107375012Y-135748255D01*
X107375779Y-135736066D01*
X107377732Y-135724011D01*
X107380851Y-135712204D01*
X107385108Y-135700757D01*
X107390462Y-135689781D01*
X107396861Y-135679379D01*
X107404244Y-135669652D01*
X107412542Y-135660691D01*
X107421675Y-135652583D01*
X107431555Y-135645404D01*
X107442088Y-135639225D01*
X107453174Y-135634102D01*
X107464707Y-135630086D01*
X107476577Y-135627214D01*
X107488671Y-135625514D01*
X107500873Y-135625003D01*
X107513066Y-135625685D01*
G37*
G36*
X99513066Y-135625685D02*
G01*
X99525135Y-135627553D01*
X99536964Y-135630590D01*
X99548439Y-135634767D01*
X99559453Y-135640044D01*
X99569899Y-135646370D01*
X99579678Y-135653686D01*
X99588696Y-135661921D01*
X99596868Y-135670996D01*
X99604115Y-135680826D01*
X99610368Y-135691316D01*
X99615568Y-135702366D01*
X99619665Y-135713871D01*
X99622619Y-135725721D01*
X99624403Y-135737802D01*
X99625000Y-135750000D01*
X99625000Y-139250000D01*
X99624994Y-139250811D01*
X99624997Y-139250873D01*
X99624994Y-139250934D01*
X99624988Y-139251745D01*
X99624630Y-139257434D01*
X99624315Y-139263066D01*
X99624249Y-139263495D01*
X99624221Y-139263934D01*
X99623317Y-139269514D01*
X99622447Y-139275135D01*
X99622337Y-139275564D01*
X99622268Y-139275989D01*
X99620835Y-139281412D01*
X99619410Y-139286964D01*
X99619260Y-139287377D01*
X99619149Y-139287796D01*
X99617173Y-139293108D01*
X99615233Y-139298439D01*
X99615045Y-139298831D01*
X99614892Y-139299243D01*
X99612406Y-139304340D01*
X99609956Y-139309453D01*
X99609728Y-139309830D01*
X99609538Y-139310219D01*
X99606592Y-139315009D01*
X99603630Y-139319899D01*
X99603366Y-139320251D01*
X99603139Y-139320621D01*
X99599712Y-139325136D01*
X99596314Y-139329678D01*
X99596021Y-139329999D01*
X99595756Y-139330348D01*
X99591874Y-139334540D01*
X99588079Y-139338696D01*
X99587758Y-139338985D01*
X99587458Y-139339309D01*
X99583231Y-139343061D01*
X99579004Y-139346868D01*
X99578647Y-139347131D01*
X99578325Y-139347417D01*
X99573763Y-139350732D01*
X99569174Y-139354115D01*
X99568801Y-139354337D01*
X99568445Y-139354596D01*
X99563534Y-139357477D01*
X99558684Y-139360368D01*
X99558289Y-139360554D01*
X99557912Y-139360775D01*
X99552754Y-139363158D01*
X99547634Y-139365568D01*
X99547225Y-139365714D01*
X99546826Y-139365898D01*
X99541468Y-139367764D01*
X99536129Y-139369665D01*
X99535703Y-139369771D01*
X99535293Y-139369914D01*
X99529753Y-139371254D01*
X99524279Y-139372619D01*
X99523854Y-139372682D01*
X99523423Y-139372786D01*
X99517709Y-139373589D01*
X99512198Y-139374403D01*
X99511771Y-139374424D01*
X99511329Y-139374486D01*
X99505600Y-139374726D01*
X99500000Y-139375000D01*
X98250000Y-139375000D01*
X98250000Y-140250000D01*
X96250000Y-140250000D01*
X96250000Y-139375000D01*
X95000000Y-139375000D01*
X94998255Y-139374988D01*
X94986066Y-139374221D01*
X94974011Y-139372268D01*
X94962204Y-139369149D01*
X94950757Y-139364892D01*
X94939781Y-139359538D01*
X94929379Y-139353139D01*
X94919652Y-139345756D01*
X94910691Y-139337458D01*
X94902583Y-139328325D01*
X94895404Y-139318445D01*
X94889225Y-139307912D01*
X94884102Y-139296826D01*
X94880086Y-139285293D01*
X94877214Y-139273423D01*
X94875514Y-139261329D01*
X94875003Y-139249127D01*
X94875685Y-139236934D01*
X94877553Y-139224865D01*
X94880590Y-139213036D01*
X94884767Y-139201561D01*
X94890044Y-139190547D01*
X94896370Y-139180101D01*
X94903686Y-139170322D01*
X94911921Y-139161304D01*
X94920996Y-139153132D01*
X94930826Y-139145885D01*
X94941316Y-139139632D01*
X94952366Y-139134432D01*
X94963871Y-139130335D01*
X94975721Y-139127381D01*
X94987802Y-139125597D01*
X95000000Y-139125000D01*
X95375000Y-139125000D01*
X95375000Y-135750000D01*
X95375012Y-135748255D01*
X95375779Y-135736066D01*
X95377732Y-135724011D01*
X95380851Y-135712204D01*
X95385108Y-135700757D01*
X95390462Y-135689781D01*
X95396861Y-135679379D01*
X95404244Y-135669652D01*
X95412542Y-135660691D01*
X95421675Y-135652583D01*
X95431555Y-135645404D01*
X95442088Y-135639225D01*
X95453174Y-135634102D01*
X95464707Y-135630086D01*
X95476577Y-135627214D01*
X95488671Y-135625514D01*
X95500873Y-135625003D01*
X95513066Y-135625685D01*
X95525135Y-135627553D01*
X95536964Y-135630590D01*
X95548439Y-135634767D01*
X95559453Y-135640044D01*
X95569899Y-135646370D01*
X95579678Y-135653686D01*
X95588696Y-135661921D01*
X95596868Y-135670996D01*
X95604115Y-135680826D01*
X95610368Y-135691316D01*
X95615568Y-135702366D01*
X95619665Y-135713871D01*
X95622619Y-135725721D01*
X95624403Y-135737802D01*
X95625000Y-135750000D01*
X95625000Y-139125000D01*
X96375000Y-139125000D01*
X96375000Y-135750000D01*
X96375012Y-135748255D01*
X96375779Y-135736066D01*
X96377732Y-135724011D01*
X96380851Y-135712204D01*
X96385108Y-135700757D01*
X96390462Y-135689781D01*
X96396861Y-135679379D01*
X96404244Y-135669652D01*
X96412542Y-135660691D01*
X96421675Y-135652583D01*
X96431555Y-135645404D01*
X96442088Y-135639225D01*
X96453174Y-135634102D01*
X96464707Y-135630086D01*
X96476577Y-135627214D01*
X96488671Y-135625514D01*
X96500873Y-135625003D01*
X96513066Y-135625685D01*
X96525135Y-135627553D01*
X96536964Y-135630590D01*
X96548439Y-135634767D01*
X96559453Y-135640044D01*
X96569899Y-135646370D01*
X96579678Y-135653686D01*
X96588696Y-135661921D01*
X96596868Y-135670996D01*
X96604115Y-135680826D01*
X96610368Y-135691316D01*
X96615568Y-135702366D01*
X96619665Y-135713871D01*
X96622619Y-135725721D01*
X96624403Y-135737802D01*
X96625000Y-135750000D01*
X96625000Y-139125000D01*
X97375000Y-139125000D01*
X97375000Y-135750000D01*
X97375012Y-135748255D01*
X97375779Y-135736066D01*
X97377732Y-135724011D01*
X97380851Y-135712204D01*
X97385108Y-135700757D01*
X97390462Y-135689781D01*
X97396861Y-135679379D01*
X97404244Y-135669652D01*
X97412542Y-135660691D01*
X97421675Y-135652583D01*
X97431555Y-135645404D01*
X97442088Y-135639225D01*
X97453174Y-135634102D01*
X97464707Y-135630086D01*
X97476577Y-135627214D01*
X97488671Y-135625514D01*
X97500873Y-135625003D01*
X97513066Y-135625685D01*
X97525135Y-135627553D01*
X97536964Y-135630590D01*
X97548439Y-135634767D01*
X97559453Y-135640044D01*
X97569899Y-135646370D01*
X97579678Y-135653686D01*
X97588696Y-135661921D01*
X97596868Y-135670996D01*
X97604115Y-135680826D01*
X97610368Y-135691316D01*
X97615568Y-135702366D01*
X97619665Y-135713871D01*
X97622619Y-135725721D01*
X97624403Y-135737802D01*
X97625000Y-135750000D01*
X97625000Y-139125000D01*
X98375000Y-139125000D01*
X98375000Y-135750000D01*
X98375012Y-135748255D01*
X98375779Y-135736066D01*
X98377732Y-135724011D01*
X98380851Y-135712204D01*
X98385108Y-135700757D01*
X98390462Y-135689781D01*
X98396861Y-135679379D01*
X98404244Y-135669652D01*
X98412542Y-135660691D01*
X98421675Y-135652583D01*
X98431555Y-135645404D01*
X98442088Y-135639225D01*
X98453174Y-135634102D01*
X98464707Y-135630086D01*
X98476577Y-135627214D01*
X98488671Y-135625514D01*
X98500873Y-135625003D01*
X98513066Y-135625685D01*
X98525135Y-135627553D01*
X98536964Y-135630590D01*
X98548439Y-135634767D01*
X98559453Y-135640044D01*
X98569899Y-135646370D01*
X98579678Y-135653686D01*
X98588696Y-135661921D01*
X98596868Y-135670996D01*
X98604115Y-135680826D01*
X98610368Y-135691316D01*
X98615568Y-135702366D01*
X98619665Y-135713871D01*
X98622619Y-135725721D01*
X98624403Y-135737802D01*
X98625000Y-135750000D01*
X98625000Y-139125000D01*
X99375000Y-139125000D01*
X99375000Y-135750000D01*
X99375012Y-135748255D01*
X99375779Y-135736066D01*
X99377732Y-135724011D01*
X99380851Y-135712204D01*
X99385108Y-135700757D01*
X99390462Y-135689781D01*
X99396861Y-135679379D01*
X99404244Y-135669652D01*
X99412542Y-135660691D01*
X99421675Y-135652583D01*
X99431555Y-135645404D01*
X99442088Y-135639225D01*
X99453174Y-135634102D01*
X99464707Y-135630086D01*
X99476577Y-135627214D01*
X99488671Y-135625514D01*
X99500873Y-135625003D01*
X99513066Y-135625685D01*
G37*
G36*
X94986934Y-138794315D02*
G01*
X94974865Y-138792447D01*
X94963036Y-138789410D01*
X94951561Y-138785233D01*
X94940547Y-138779956D01*
X94930101Y-138773630D01*
X94920322Y-138766314D01*
X94911304Y-138758079D01*
X94903132Y-138749004D01*
X94895885Y-138739174D01*
X94889632Y-138728684D01*
X94884432Y-138717634D01*
X94880335Y-138706129D01*
X94877381Y-138694279D01*
X94875597Y-138682198D01*
X94875000Y-138670000D01*
X94875000Y-135170000D01*
X94875006Y-135169189D01*
X94875003Y-135169127D01*
X94875006Y-135169066D01*
X94875012Y-135168255D01*
X94875370Y-135162566D01*
X94875685Y-135156934D01*
X94875751Y-135156505D01*
X94875779Y-135156066D01*
X94876683Y-135150486D01*
X94877553Y-135144865D01*
X94877663Y-135144436D01*
X94877732Y-135144011D01*
X94879165Y-135138588D01*
X94880590Y-135133036D01*
X94880740Y-135132623D01*
X94880851Y-135132204D01*
X94882827Y-135126892D01*
X94884767Y-135121561D01*
X94884955Y-135121169D01*
X94885108Y-135120757D01*
X94887594Y-135115660D01*
X94890044Y-135110547D01*
X94890272Y-135110170D01*
X94890462Y-135109781D01*
X94893408Y-135104991D01*
X94896370Y-135100101D01*
X94896634Y-135099749D01*
X94896861Y-135099379D01*
X94900288Y-135094864D01*
X94903686Y-135090322D01*
X94903979Y-135090001D01*
X94904244Y-135089652D01*
X94908126Y-135085460D01*
X94911921Y-135081304D01*
X94912242Y-135081015D01*
X94912542Y-135080691D01*
X94916769Y-135076939D01*
X94920996Y-135073132D01*
X94921353Y-135072869D01*
X94921675Y-135072583D01*
X94926237Y-135069268D01*
X94930826Y-135065885D01*
X94931199Y-135065663D01*
X94931555Y-135065404D01*
X94936466Y-135062523D01*
X94941316Y-135059632D01*
X94941711Y-135059446D01*
X94942088Y-135059225D01*
X94947246Y-135056842D01*
X94952366Y-135054432D01*
X94952775Y-135054286D01*
X94953174Y-135054102D01*
X94958532Y-135052236D01*
X94963871Y-135050335D01*
X94964297Y-135050229D01*
X94964707Y-135050086D01*
X94970247Y-135048746D01*
X94975721Y-135047381D01*
X94976146Y-135047318D01*
X94976577Y-135047214D01*
X94982291Y-135046411D01*
X94987802Y-135045597D01*
X94988229Y-135045576D01*
X94988671Y-135045514D01*
X94994400Y-135045274D01*
X95000000Y-135045000D01*
X96250000Y-135045000D01*
X96250000Y-134170000D01*
X98250000Y-134170000D01*
X98250000Y-135045000D01*
X99500000Y-135045000D01*
X99501745Y-135045012D01*
X99513934Y-135045779D01*
X99525989Y-135047732D01*
X99537796Y-135050851D01*
X99549243Y-135055108D01*
X99560219Y-135060462D01*
X99570621Y-135066861D01*
X99580348Y-135074244D01*
X99589309Y-135082542D01*
X99597417Y-135091675D01*
X99604596Y-135101555D01*
X99610775Y-135112088D01*
X99615898Y-135123174D01*
X99619914Y-135134707D01*
X99622786Y-135146577D01*
X99624486Y-135158671D01*
X99624997Y-135170873D01*
X99624315Y-135183066D01*
X99622447Y-135195135D01*
X99619410Y-135206964D01*
X99615233Y-135218439D01*
X99609956Y-135229453D01*
X99603630Y-135239899D01*
X99596314Y-135249678D01*
X99588079Y-135258696D01*
X99579004Y-135266868D01*
X99569174Y-135274115D01*
X99558684Y-135280368D01*
X99547634Y-135285568D01*
X99536129Y-135289665D01*
X99524279Y-135292619D01*
X99512198Y-135294403D01*
X99500000Y-135295000D01*
X99125000Y-135295000D01*
X99125000Y-138670000D01*
X99124988Y-138671745D01*
X99124221Y-138683934D01*
X99122268Y-138695989D01*
X99119149Y-138707796D01*
X99114892Y-138719243D01*
X99109538Y-138730219D01*
X99103139Y-138740621D01*
X99095756Y-138750348D01*
X99087458Y-138759309D01*
X99078325Y-138767417D01*
X99068445Y-138774596D01*
X99057912Y-138780775D01*
X99046826Y-138785898D01*
X99035293Y-138789914D01*
X99023423Y-138792786D01*
X99011329Y-138794486D01*
X98999127Y-138794997D01*
X98986934Y-138794315D01*
X98974865Y-138792447D01*
X98963036Y-138789410D01*
X98951561Y-138785233D01*
X98940547Y-138779956D01*
X98930101Y-138773630D01*
X98920322Y-138766314D01*
X98911304Y-138758079D01*
X98903132Y-138749004D01*
X98895885Y-138739174D01*
X98889632Y-138728684D01*
X98884432Y-138717634D01*
X98880335Y-138706129D01*
X98877381Y-138694279D01*
X98875597Y-138682198D01*
X98875000Y-138670000D01*
X98875000Y-135295000D01*
X98125000Y-135295000D01*
X98125000Y-138670000D01*
X98124988Y-138671745D01*
X98124221Y-138683934D01*
X98122268Y-138695989D01*
X98119149Y-138707796D01*
X98114892Y-138719243D01*
X98109538Y-138730219D01*
X98103139Y-138740621D01*
X98095756Y-138750348D01*
X98087458Y-138759309D01*
X98078325Y-138767417D01*
X98068445Y-138774596D01*
X98057912Y-138780775D01*
X98046826Y-138785898D01*
X98035293Y-138789914D01*
X98023423Y-138792786D01*
X98011329Y-138794486D01*
X97999127Y-138794997D01*
X97986934Y-138794315D01*
X97974865Y-138792447D01*
X97963036Y-138789410D01*
X97951561Y-138785233D01*
X97940547Y-138779956D01*
X97930101Y-138773630D01*
X97920322Y-138766314D01*
X97911304Y-138758079D01*
X97903132Y-138749004D01*
X97895885Y-138739174D01*
X97889632Y-138728684D01*
X97884432Y-138717634D01*
X97880335Y-138706129D01*
X97877381Y-138694279D01*
X97875597Y-138682198D01*
X97875000Y-138670000D01*
X97875000Y-135295000D01*
X97125000Y-135295000D01*
X97125000Y-138670000D01*
X97124988Y-138671745D01*
X97124221Y-138683934D01*
X97122268Y-138695989D01*
X97119149Y-138707796D01*
X97114892Y-138719243D01*
X97109538Y-138730219D01*
X97103139Y-138740621D01*
X97095756Y-138750348D01*
X97087458Y-138759309D01*
X97078325Y-138767417D01*
X97068445Y-138774596D01*
X97057912Y-138780775D01*
X97046826Y-138785898D01*
X97035293Y-138789914D01*
X97023423Y-138792786D01*
X97011329Y-138794486D01*
X96999127Y-138794997D01*
X96986934Y-138794315D01*
X96974865Y-138792447D01*
X96963036Y-138789410D01*
X96951561Y-138785233D01*
X96940547Y-138779956D01*
X96930101Y-138773630D01*
X96920322Y-138766314D01*
X96911304Y-138758079D01*
X96903132Y-138749004D01*
X96895885Y-138739174D01*
X96889632Y-138728684D01*
X96884432Y-138717634D01*
X96880335Y-138706129D01*
X96877381Y-138694279D01*
X96875597Y-138682198D01*
X96875000Y-138670000D01*
X96875000Y-135295000D01*
X96125000Y-135295000D01*
X96125000Y-138670000D01*
X96124988Y-138671745D01*
X96124221Y-138683934D01*
X96122268Y-138695989D01*
X96119149Y-138707796D01*
X96114892Y-138719243D01*
X96109538Y-138730219D01*
X96103139Y-138740621D01*
X96095756Y-138750348D01*
X96087458Y-138759309D01*
X96078325Y-138767417D01*
X96068445Y-138774596D01*
X96057912Y-138780775D01*
X96046826Y-138785898D01*
X96035293Y-138789914D01*
X96023423Y-138792786D01*
X96011329Y-138794486D01*
X95999127Y-138794997D01*
X95986934Y-138794315D01*
X95974865Y-138792447D01*
X95963036Y-138789410D01*
X95951561Y-138785233D01*
X95940547Y-138779956D01*
X95930101Y-138773630D01*
X95920322Y-138766314D01*
X95911304Y-138758079D01*
X95903132Y-138749004D01*
X95895885Y-138739174D01*
X95889632Y-138728684D01*
X95884432Y-138717634D01*
X95880335Y-138706129D01*
X95877381Y-138694279D01*
X95875597Y-138682198D01*
X95875000Y-138670000D01*
X95875000Y-135295000D01*
X95125000Y-135295000D01*
X95125000Y-138670000D01*
X95124988Y-138671745D01*
X95124221Y-138683934D01*
X95122268Y-138695989D01*
X95119149Y-138707796D01*
X95114892Y-138719243D01*
X95109538Y-138730219D01*
X95103139Y-138740621D01*
X95095756Y-138750348D01*
X95087458Y-138759309D01*
X95078325Y-138767417D01*
X95068445Y-138774596D01*
X95057912Y-138780775D01*
X95046826Y-138785898D01*
X95035293Y-138789914D01*
X95023423Y-138792786D01*
X95011329Y-138794486D01*
X94999127Y-138794997D01*
X94986934Y-138794315D01*
G37*
M02*
