G04 #@! TF.GenerationSoftware,KiCad,Pcbnew,(5.1.9-0-10_14)*
G04 #@! TF.CreationDate,2021-10-10T20:01:09+11:00*
G04 #@! TF.ProjectId,Control Board,436f6e74-726f-46c2-9042-6f6172642e6b,rev?*
G04 #@! TF.SameCoordinates,Original*
G04 #@! TF.FileFunction,Paste,Top*
G04 #@! TF.FilePolarity,Positive*
%FSLAX46Y46*%
G04 Gerber Fmt 4.6, Leading zero omitted, Abs format (unit mm)*
G04 Created by KiCad (PCBNEW (5.1.9-0-10_14)) date 2021-10-10 20:01:09*
%MOMM*%
%LPD*%
G01*
G04 APERTURE LIST*
%ADD10R,2.000000X0.900000*%
%ADD11R,0.900000X2.000000*%
%ADD12R,5.000000X5.000000*%
%ADD13R,0.450000X0.700000*%
%ADD14R,0.600000X1.550000*%
G04 APERTURE END LIST*
D10*
X98400000Y-118790000D03*
X98400000Y-120060000D03*
X98400000Y-121330000D03*
X98400000Y-122600000D03*
X98400000Y-123870000D03*
X98400000Y-125140000D03*
X98400000Y-126410000D03*
X98400000Y-127680000D03*
X98400000Y-128950000D03*
X98400000Y-130220000D03*
X98400000Y-131490000D03*
X98400000Y-132760000D03*
X98400000Y-134030000D03*
X98400000Y-135300000D03*
D11*
X95615000Y-136300000D03*
X94345000Y-136300000D03*
X93075000Y-136300000D03*
X91805000Y-136300000D03*
X90535000Y-136300000D03*
X89265000Y-136300000D03*
X87995000Y-136300000D03*
X86725000Y-136300000D03*
X85455000Y-136300000D03*
X84185000Y-136300000D03*
D10*
X81400000Y-135300000D03*
X81400000Y-134030000D03*
X81400000Y-132760000D03*
X81400000Y-131490000D03*
X81400000Y-130220000D03*
X81400000Y-128950000D03*
X81400000Y-127680000D03*
X81400000Y-126410000D03*
X81400000Y-125140000D03*
X81400000Y-123870000D03*
X81400000Y-122600000D03*
X81400000Y-121330000D03*
X81400000Y-120060000D03*
X81400000Y-118790000D03*
D12*
X88900000Y-126290000D03*
G36*
G01*
X78537500Y-125656250D02*
X78537500Y-124743750D01*
G75*
G02*
X78781250Y-124500000I243750J0D01*
G01*
X79268750Y-124500000D01*
G75*
G02*
X79512500Y-124743750I0J-243750D01*
G01*
X79512500Y-125656250D01*
G75*
G02*
X79268750Y-125900000I-243750J0D01*
G01*
X78781250Y-125900000D01*
G75*
G02*
X78537500Y-125656250I0J243750D01*
G01*
G37*
G36*
G01*
X76662500Y-125656250D02*
X76662500Y-124743750D01*
G75*
G02*
X76906250Y-124500000I243750J0D01*
G01*
X77393750Y-124500000D01*
G75*
G02*
X77637500Y-124743750I0J-243750D01*
G01*
X77637500Y-125656250D01*
G75*
G02*
X77393750Y-125900000I-243750J0D01*
G01*
X76906250Y-125900000D01*
G75*
G02*
X76662500Y-125656250I0J243750D01*
G01*
G37*
G36*
G01*
X135912500Y-131956250D02*
X135912500Y-131043750D01*
G75*
G02*
X136156250Y-130800000I243750J0D01*
G01*
X136643750Y-130800000D01*
G75*
G02*
X136887500Y-131043750I0J-243750D01*
G01*
X136887500Y-131956250D01*
G75*
G02*
X136643750Y-132200000I-243750J0D01*
G01*
X136156250Y-132200000D01*
G75*
G02*
X135912500Y-131956250I0J243750D01*
G01*
G37*
G36*
G01*
X134037500Y-131956250D02*
X134037500Y-131043750D01*
G75*
G02*
X134281250Y-130800000I243750J0D01*
G01*
X134768750Y-130800000D01*
G75*
G02*
X135012500Y-131043750I0J-243750D01*
G01*
X135012500Y-131956250D01*
G75*
G02*
X134768750Y-132200000I-243750J0D01*
G01*
X134281250Y-132200000D01*
G75*
G02*
X134037500Y-131956250I0J243750D01*
G01*
G37*
G36*
G01*
X133137500Y-128643750D02*
X133137500Y-129556250D01*
G75*
G02*
X132893750Y-129800000I-243750J0D01*
G01*
X132406250Y-129800000D01*
G75*
G02*
X132162500Y-129556250I0J243750D01*
G01*
X132162500Y-128643750D01*
G75*
G02*
X132406250Y-128400000I243750J0D01*
G01*
X132893750Y-128400000D01*
G75*
G02*
X133137500Y-128643750I0J-243750D01*
G01*
G37*
G36*
G01*
X135012500Y-128643750D02*
X135012500Y-129556250D01*
G75*
G02*
X134768750Y-129800000I-243750J0D01*
G01*
X134281250Y-129800000D01*
G75*
G02*
X134037500Y-129556250I0J243750D01*
G01*
X134037500Y-128643750D01*
G75*
G02*
X134281250Y-128400000I243750J0D01*
G01*
X134768750Y-128400000D01*
G75*
G02*
X135012500Y-128643750I0J-243750D01*
G01*
G37*
G36*
G01*
X137856250Y-135187500D02*
X136943750Y-135187500D01*
G75*
G02*
X136700000Y-134943750I0J243750D01*
G01*
X136700000Y-134456250D01*
G75*
G02*
X136943750Y-134212500I243750J0D01*
G01*
X137856250Y-134212500D01*
G75*
G02*
X138100000Y-134456250I0J-243750D01*
G01*
X138100000Y-134943750D01*
G75*
G02*
X137856250Y-135187500I-243750J0D01*
G01*
G37*
G36*
G01*
X137856250Y-137062500D02*
X136943750Y-137062500D01*
G75*
G02*
X136700000Y-136818750I0J243750D01*
G01*
X136700000Y-136331250D01*
G75*
G02*
X136943750Y-136087500I243750J0D01*
G01*
X137856250Y-136087500D01*
G75*
G02*
X138100000Y-136331250I0J-243750D01*
G01*
X138100000Y-136818750D01*
G75*
G02*
X137856250Y-137062500I-243750J0D01*
G01*
G37*
G36*
G01*
X122556250Y-135187500D02*
X121643750Y-135187500D01*
G75*
G02*
X121400000Y-134943750I0J243750D01*
G01*
X121400000Y-134456250D01*
G75*
G02*
X121643750Y-134212500I243750J0D01*
G01*
X122556250Y-134212500D01*
G75*
G02*
X122800000Y-134456250I0J-243750D01*
G01*
X122800000Y-134943750D01*
G75*
G02*
X122556250Y-135187500I-243750J0D01*
G01*
G37*
G36*
G01*
X122556250Y-137062500D02*
X121643750Y-137062500D01*
G75*
G02*
X121400000Y-136818750I0J243750D01*
G01*
X121400000Y-136331250D01*
G75*
G02*
X121643750Y-136087500I243750J0D01*
G01*
X122556250Y-136087500D01*
G75*
G02*
X122800000Y-136331250I0J-243750D01*
G01*
X122800000Y-136818750D01*
G75*
G02*
X122556250Y-137062500I-243750J0D01*
G01*
G37*
G36*
G01*
X126487500Y-129556250D02*
X126487500Y-128643750D01*
G75*
G02*
X126731250Y-128400000I243750J0D01*
G01*
X127218750Y-128400000D01*
G75*
G02*
X127462500Y-128643750I0J-243750D01*
G01*
X127462500Y-129556250D01*
G75*
G02*
X127218750Y-129800000I-243750J0D01*
G01*
X126731250Y-129800000D01*
G75*
G02*
X126487500Y-129556250I0J243750D01*
G01*
G37*
G36*
G01*
X124612500Y-129556250D02*
X124612500Y-128643750D01*
G75*
G02*
X124856250Y-128400000I243750J0D01*
G01*
X125343750Y-128400000D01*
G75*
G02*
X125587500Y-128643750I0J-243750D01*
G01*
X125587500Y-129556250D01*
G75*
G02*
X125343750Y-129800000I-243750J0D01*
G01*
X124856250Y-129800000D01*
G75*
G02*
X124612500Y-129556250I0J243750D01*
G01*
G37*
G36*
G01*
X124612500Y-131956250D02*
X124612500Y-131043750D01*
G75*
G02*
X124856250Y-130800000I243750J0D01*
G01*
X125343750Y-130800000D01*
G75*
G02*
X125587500Y-131043750I0J-243750D01*
G01*
X125587500Y-131956250D01*
G75*
G02*
X125343750Y-132200000I-243750J0D01*
G01*
X124856250Y-132200000D01*
G75*
G02*
X124612500Y-131956250I0J243750D01*
G01*
G37*
G36*
G01*
X122737500Y-131956250D02*
X122737500Y-131043750D01*
G75*
G02*
X122981250Y-130800000I243750J0D01*
G01*
X123468750Y-130800000D01*
G75*
G02*
X123712500Y-131043750I0J-243750D01*
G01*
X123712500Y-131956250D01*
G75*
G02*
X123468750Y-132200000I-243750J0D01*
G01*
X122981250Y-132200000D01*
G75*
G02*
X122737500Y-131956250I0J243750D01*
G01*
G37*
G36*
G01*
X78537500Y-129456250D02*
X78537500Y-128543750D01*
G75*
G02*
X78781250Y-128300000I243750J0D01*
G01*
X79268750Y-128300000D01*
G75*
G02*
X79512500Y-128543750I0J-243750D01*
G01*
X79512500Y-129456250D01*
G75*
G02*
X79268750Y-129700000I-243750J0D01*
G01*
X78781250Y-129700000D01*
G75*
G02*
X78537500Y-129456250I0J243750D01*
G01*
G37*
G36*
G01*
X76662500Y-129456250D02*
X76662500Y-128543750D01*
G75*
G02*
X76906250Y-128300000I243750J0D01*
G01*
X77393750Y-128300000D01*
G75*
G02*
X77637500Y-128543750I0J-243750D01*
G01*
X77637500Y-129456250D01*
G75*
G02*
X77393750Y-129700000I-243750J0D01*
G01*
X76906250Y-129700000D01*
G75*
G02*
X76662500Y-129456250I0J243750D01*
G01*
G37*
G36*
G01*
X78537500Y-127556250D02*
X78537500Y-126643750D01*
G75*
G02*
X78781250Y-126400000I243750J0D01*
G01*
X79268750Y-126400000D01*
G75*
G02*
X79512500Y-126643750I0J-243750D01*
G01*
X79512500Y-127556250D01*
G75*
G02*
X79268750Y-127800000I-243750J0D01*
G01*
X78781250Y-127800000D01*
G75*
G02*
X78537500Y-127556250I0J243750D01*
G01*
G37*
G36*
G01*
X76662500Y-127556250D02*
X76662500Y-126643750D01*
G75*
G02*
X76906250Y-126400000I243750J0D01*
G01*
X77393750Y-126400000D01*
G75*
G02*
X77637500Y-126643750I0J-243750D01*
G01*
X77637500Y-127556250D01*
G75*
G02*
X77393750Y-127800000I-243750J0D01*
G01*
X76906250Y-127800000D01*
G75*
G02*
X76662500Y-127556250I0J243750D01*
G01*
G37*
G36*
G01*
X78537500Y-133256250D02*
X78537500Y-132343750D01*
G75*
G02*
X78781250Y-132100000I243750J0D01*
G01*
X79268750Y-132100000D01*
G75*
G02*
X79512500Y-132343750I0J-243750D01*
G01*
X79512500Y-133256250D01*
G75*
G02*
X79268750Y-133500000I-243750J0D01*
G01*
X78781250Y-133500000D01*
G75*
G02*
X78537500Y-133256250I0J243750D01*
G01*
G37*
G36*
G01*
X76662500Y-133256250D02*
X76662500Y-132343750D01*
G75*
G02*
X76906250Y-132100000I243750J0D01*
G01*
X77393750Y-132100000D01*
G75*
G02*
X77637500Y-132343750I0J-243750D01*
G01*
X77637500Y-133256250D01*
G75*
G02*
X77393750Y-133500000I-243750J0D01*
G01*
X76906250Y-133500000D01*
G75*
G02*
X76662500Y-133256250I0J243750D01*
G01*
G37*
G36*
G01*
X79456250Y-119187500D02*
X78543750Y-119187500D01*
G75*
G02*
X78300000Y-118943750I0J243750D01*
G01*
X78300000Y-118456250D01*
G75*
G02*
X78543750Y-118212500I243750J0D01*
G01*
X79456250Y-118212500D01*
G75*
G02*
X79700000Y-118456250I0J-243750D01*
G01*
X79700000Y-118943750D01*
G75*
G02*
X79456250Y-119187500I-243750J0D01*
G01*
G37*
G36*
G01*
X79456250Y-121062500D02*
X78543750Y-121062500D01*
G75*
G02*
X78300000Y-120818750I0J243750D01*
G01*
X78300000Y-120331250D01*
G75*
G02*
X78543750Y-120087500I243750J0D01*
G01*
X79456250Y-120087500D01*
G75*
G02*
X79700000Y-120331250I0J-243750D01*
G01*
X79700000Y-120818750D01*
G75*
G02*
X79456250Y-121062500I-243750J0D01*
G01*
G37*
D13*
X138450000Y-133250000D03*
X137800000Y-131250000D03*
X139100000Y-131250000D03*
X121150000Y-133250000D03*
X120500000Y-131250000D03*
X121800000Y-131250000D03*
D14*
X134970000Y-133500000D03*
X133700000Y-133500000D03*
X132430000Y-133500000D03*
X131160000Y-133500000D03*
X131160000Y-138900000D03*
X132430000Y-138900000D03*
X133700000Y-138900000D03*
X134970000Y-138900000D03*
X128440000Y-138900000D03*
X127170000Y-138900000D03*
X125900000Y-138900000D03*
X124630000Y-138900000D03*
X124630000Y-133500000D03*
X125900000Y-133500000D03*
X127170000Y-133500000D03*
X128440000Y-133500000D03*
G36*
G01*
X76662500Y-131356250D02*
X76662500Y-130443750D01*
G75*
G02*
X76906250Y-130200000I243750J0D01*
G01*
X77393750Y-130200000D01*
G75*
G02*
X77637500Y-130443750I0J-243750D01*
G01*
X77637500Y-131356250D01*
G75*
G02*
X77393750Y-131600000I-243750J0D01*
G01*
X76906250Y-131600000D01*
G75*
G02*
X76662500Y-131356250I0J243750D01*
G01*
G37*
G36*
G01*
X78537500Y-131356250D02*
X78537500Y-130443750D01*
G75*
G02*
X78781250Y-130200000I243750J0D01*
G01*
X79268750Y-130200000D01*
G75*
G02*
X79512500Y-130443750I0J-243750D01*
G01*
X79512500Y-131356250D01*
G75*
G02*
X79268750Y-131600000I-243750J0D01*
G01*
X78781250Y-131600000D01*
G75*
G02*
X78537500Y-131356250I0J243750D01*
G01*
G37*
M02*
