G04 #@! TF.GenerationSoftware,KiCad,Pcbnew,(5.1.9-0-10_14)*
G04 #@! TF.CreationDate,2021-10-10T20:01:10+11:00*
G04 #@! TF.ProjectId,Control Board,436f6e74-726f-46c2-9042-6f6172642e6b,rev?*
G04 #@! TF.SameCoordinates,Original*
G04 #@! TF.FileFunction,Legend,Bot*
G04 #@! TF.FilePolarity,Positive*
%FSLAX46Y46*%
G04 Gerber Fmt 4.6, Leading zero omitted, Abs format (unit mm)*
G04 Created by KiCad (PCBNEW (5.1.9-0-10_14)) date 2021-10-10 20:01:10*
%MOMM*%
%LPD*%
G01*
G04 APERTURE LIST*
%ADD10C,0.150000*%
G04 APERTURE END LIST*
D10*
X90583333Y-141504761D02*
X90440476Y-141552380D01*
X90202380Y-141552380D01*
X90107142Y-141504761D01*
X90059523Y-141457142D01*
X90011904Y-141361904D01*
X90011904Y-141266666D01*
X90059523Y-141171428D01*
X90107142Y-141123809D01*
X90202380Y-141076190D01*
X90392857Y-141028571D01*
X90488095Y-140980952D01*
X90535714Y-140933333D01*
X90583333Y-140838095D01*
X90583333Y-140742857D01*
X90535714Y-140647619D01*
X90488095Y-140600000D01*
X90392857Y-140552380D01*
X90154761Y-140552380D01*
X90011904Y-140600000D01*
X89678571Y-140552380D02*
X89440476Y-141552380D01*
X89250000Y-140838095D01*
X89059523Y-141552380D01*
X88821428Y-140552380D01*
X88011904Y-140552380D02*
X88202380Y-140552380D01*
X88297619Y-140600000D01*
X88345238Y-140647619D01*
X88440476Y-140790476D01*
X88488095Y-140980952D01*
X88488095Y-141361904D01*
X88440476Y-141457142D01*
X88392857Y-141504761D01*
X88297619Y-141552380D01*
X88107142Y-141552380D01*
X88011904Y-141504761D01*
X87964285Y-141457142D01*
X87916666Y-141361904D01*
X87916666Y-141123809D01*
X87964285Y-141028571D01*
X88011904Y-140980952D01*
X88107142Y-140933333D01*
X88297619Y-140933333D01*
X88392857Y-140980952D01*
X88440476Y-141028571D01*
X88488095Y-141123809D01*
X130533333Y-141504761D02*
X130390476Y-141552380D01*
X130152380Y-141552380D01*
X130057142Y-141504761D01*
X130009523Y-141457142D01*
X129961904Y-141361904D01*
X129961904Y-141266666D01*
X130009523Y-141171428D01*
X130057142Y-141123809D01*
X130152380Y-141076190D01*
X130342857Y-141028571D01*
X130438095Y-140980952D01*
X130485714Y-140933333D01*
X130533333Y-140838095D01*
X130533333Y-140742857D01*
X130485714Y-140647619D01*
X130438095Y-140600000D01*
X130342857Y-140552380D01*
X130104761Y-140552380D01*
X129961904Y-140600000D01*
X129628571Y-140552380D02*
X129390476Y-141552380D01*
X129200000Y-140838095D01*
X129009523Y-141552380D01*
X128771428Y-140552380D01*
X127866666Y-141552380D02*
X128438095Y-141552380D01*
X128152380Y-141552380D02*
X128152380Y-140552380D01*
X128247619Y-140695238D01*
X128342857Y-140790476D01*
X128438095Y-140838095D01*
X122583333Y-141404761D02*
X122440476Y-141452380D01*
X122202380Y-141452380D01*
X122107142Y-141404761D01*
X122059523Y-141357142D01*
X122011904Y-141261904D01*
X122011904Y-141166666D01*
X122059523Y-141071428D01*
X122107142Y-141023809D01*
X122202380Y-140976190D01*
X122392857Y-140928571D01*
X122488095Y-140880952D01*
X122535714Y-140833333D01*
X122583333Y-140738095D01*
X122583333Y-140642857D01*
X122535714Y-140547619D01*
X122488095Y-140500000D01*
X122392857Y-140452380D01*
X122154761Y-140452380D01*
X122011904Y-140500000D01*
X121678571Y-140452380D02*
X121440476Y-141452380D01*
X121250000Y-140738095D01*
X121059523Y-141452380D01*
X120821428Y-140452380D01*
X120488095Y-140547619D02*
X120440476Y-140500000D01*
X120345238Y-140452380D01*
X120107142Y-140452380D01*
X120011904Y-140500000D01*
X119964285Y-140547619D01*
X119916666Y-140642857D01*
X119916666Y-140738095D01*
X119964285Y-140880952D01*
X120535714Y-141452380D01*
X119916666Y-141452380D01*
X114583333Y-141504761D02*
X114440476Y-141552380D01*
X114202380Y-141552380D01*
X114107142Y-141504761D01*
X114059523Y-141457142D01*
X114011904Y-141361904D01*
X114011904Y-141266666D01*
X114059523Y-141171428D01*
X114107142Y-141123809D01*
X114202380Y-141076190D01*
X114392857Y-141028571D01*
X114488095Y-140980952D01*
X114535714Y-140933333D01*
X114583333Y-140838095D01*
X114583333Y-140742857D01*
X114535714Y-140647619D01*
X114488095Y-140600000D01*
X114392857Y-140552380D01*
X114154761Y-140552380D01*
X114011904Y-140600000D01*
X113678571Y-140552380D02*
X113440476Y-141552380D01*
X113250000Y-140838095D01*
X113059523Y-141552380D01*
X112821428Y-140552380D01*
X112535714Y-140552380D02*
X111916666Y-140552380D01*
X112250000Y-140933333D01*
X112107142Y-140933333D01*
X112011904Y-140980952D01*
X111964285Y-141028571D01*
X111916666Y-141123809D01*
X111916666Y-141361904D01*
X111964285Y-141457142D01*
X112011904Y-141504761D01*
X112107142Y-141552380D01*
X112392857Y-141552380D01*
X112488095Y-141504761D01*
X112535714Y-141457142D01*
X106583333Y-141504761D02*
X106440476Y-141552380D01*
X106202380Y-141552380D01*
X106107142Y-141504761D01*
X106059523Y-141457142D01*
X106011904Y-141361904D01*
X106011904Y-141266666D01*
X106059523Y-141171428D01*
X106107142Y-141123809D01*
X106202380Y-141076190D01*
X106392857Y-141028571D01*
X106488095Y-140980952D01*
X106535714Y-140933333D01*
X106583333Y-140838095D01*
X106583333Y-140742857D01*
X106535714Y-140647619D01*
X106488095Y-140600000D01*
X106392857Y-140552380D01*
X106154761Y-140552380D01*
X106011904Y-140600000D01*
X105678571Y-140552380D02*
X105440476Y-141552380D01*
X105250000Y-140838095D01*
X105059523Y-141552380D01*
X104821428Y-140552380D01*
X104011904Y-140885714D02*
X104011904Y-141552380D01*
X104250000Y-140504761D02*
X104488095Y-141219047D01*
X103869047Y-141219047D01*
X98583333Y-141504761D02*
X98440476Y-141552380D01*
X98202380Y-141552380D01*
X98107142Y-141504761D01*
X98059523Y-141457142D01*
X98011904Y-141361904D01*
X98011904Y-141266666D01*
X98059523Y-141171428D01*
X98107142Y-141123809D01*
X98202380Y-141076190D01*
X98392857Y-141028571D01*
X98488095Y-140980952D01*
X98535714Y-140933333D01*
X98583333Y-140838095D01*
X98583333Y-140742857D01*
X98535714Y-140647619D01*
X98488095Y-140600000D01*
X98392857Y-140552380D01*
X98154761Y-140552380D01*
X98011904Y-140600000D01*
X97678571Y-140552380D02*
X97440476Y-141552380D01*
X97250000Y-140838095D01*
X97059523Y-141552380D01*
X96821428Y-140552380D01*
X95964285Y-140552380D02*
X96440476Y-140552380D01*
X96488095Y-141028571D01*
X96440476Y-140980952D01*
X96345238Y-140933333D01*
X96107142Y-140933333D01*
X96011904Y-140980952D01*
X95964285Y-141028571D01*
X95916666Y-141123809D01*
X95916666Y-141361904D01*
X95964285Y-141457142D01*
X96011904Y-141504761D01*
X96107142Y-141552380D01*
X96345238Y-141552380D01*
X96440476Y-141504761D01*
X96488095Y-141457142D01*
M02*
