G04 #@! TF.GenerationSoftware,KiCad,Pcbnew,(5.1.9-0-10_14)*
G04 #@! TF.CreationDate,2021-10-10T20:01:09+11:00*
G04 #@! TF.ProjectId,Control Board,436f6e74-726f-46c2-9042-6f6172642e6b,rev?*
G04 #@! TF.SameCoordinates,Original*
G04 #@! TF.FileFunction,Copper,L1,Top*
G04 #@! TF.FilePolarity,Positive*
%FSLAX46Y46*%
G04 Gerber Fmt 4.6, Leading zero omitted, Abs format (unit mm)*
G04 Created by KiCad (PCBNEW (5.1.9-0-10_14)) date 2021-10-10 20:01:09*
%MOMM*%
%LPD*%
G01*
G04 APERTURE LIST*
G04 #@! TA.AperFunction,SMDPad,CuDef*
%ADD10R,1.000000X1.000000*%
G04 #@! TD*
G04 #@! TA.AperFunction,SMDPad,CuDef*
%ADD11R,2.000000X0.900000*%
G04 #@! TD*
G04 #@! TA.AperFunction,SMDPad,CuDef*
%ADD12R,0.900000X2.000000*%
G04 #@! TD*
G04 #@! TA.AperFunction,SMDPad,CuDef*
%ADD13R,5.000000X5.000000*%
G04 #@! TD*
G04 #@! TA.AperFunction,ComponentPad*
%ADD14O,1.700000X2.000000*%
G04 #@! TD*
G04 #@! TA.AperFunction,ComponentPad*
%ADD15C,2.400000*%
G04 #@! TD*
G04 #@! TA.AperFunction,SMDPad,CuDef*
%ADD16R,0.450000X0.700000*%
G04 #@! TD*
G04 #@! TA.AperFunction,SMDPad,CuDef*
%ADD17R,0.600000X1.550000*%
G04 #@! TD*
G04 #@! TA.AperFunction,ViaPad*
%ADD18C,0.800000*%
G04 #@! TD*
G04 #@! TA.AperFunction,Conductor*
%ADD19C,0.500000*%
G04 #@! TD*
G04 #@! TA.AperFunction,Conductor*
%ADD20C,0.250000*%
G04 #@! TD*
G04 #@! TA.AperFunction,Conductor*
%ADD21C,0.100000*%
G04 #@! TD*
G04 APERTURE END LIST*
D10*
X101300000Y-137300000D03*
X101300000Y-118600000D03*
X101300000Y-135300000D03*
X101300000Y-122600000D03*
X101300000Y-124600000D03*
X101300000Y-120600000D03*
X136400000Y-129100000D03*
X132400000Y-142200000D03*
X134900000Y-142200000D03*
X123225000Y-129100000D03*
D11*
X98400000Y-118790000D03*
X98400000Y-120060000D03*
X98400000Y-121330000D03*
X98400000Y-122600000D03*
X98400000Y-123870000D03*
X98400000Y-125140000D03*
X98400000Y-126410000D03*
X98400000Y-127680000D03*
X98400000Y-128950000D03*
X98400000Y-130220000D03*
X98400000Y-131490000D03*
X98400000Y-132760000D03*
X98400000Y-134030000D03*
X98400000Y-135300000D03*
D12*
X95615000Y-136300000D03*
X94345000Y-136300000D03*
X93075000Y-136300000D03*
X91805000Y-136300000D03*
X90535000Y-136300000D03*
X89265000Y-136300000D03*
X87995000Y-136300000D03*
X86725000Y-136300000D03*
X85455000Y-136300000D03*
X84185000Y-136300000D03*
D11*
X81400000Y-135300000D03*
X81400000Y-134030000D03*
X81400000Y-132760000D03*
X81400000Y-131490000D03*
X81400000Y-130220000D03*
X81400000Y-128950000D03*
X81400000Y-127680000D03*
X81400000Y-126410000D03*
X81400000Y-125140000D03*
X81400000Y-123870000D03*
X81400000Y-122600000D03*
X81400000Y-121330000D03*
X81400000Y-120060000D03*
X81400000Y-118790000D03*
D13*
X88900000Y-126290000D03*
G04 #@! TA.AperFunction,ComponentPad*
G36*
G01*
X86950000Y-145350000D02*
X86950000Y-146850000D01*
G75*
G02*
X86700000Y-147100000I-250000J0D01*
G01*
X85500000Y-147100000D01*
G75*
G02*
X85250000Y-146850000I0J250000D01*
G01*
X85250000Y-145350000D01*
G75*
G02*
X85500000Y-145100000I250000J0D01*
G01*
X86700000Y-145100000D01*
G75*
G02*
X86950000Y-145350000I0J-250000D01*
G01*
G37*
G04 #@! TD.AperFunction*
D14*
X83600000Y-146100000D03*
G04 #@! TA.AperFunction,SMDPad,CuDef*
G36*
G01*
X78537500Y-125656250D02*
X78537500Y-124743750D01*
G75*
G02*
X78781250Y-124500000I243750J0D01*
G01*
X79268750Y-124500000D01*
G75*
G02*
X79512500Y-124743750I0J-243750D01*
G01*
X79512500Y-125656250D01*
G75*
G02*
X79268750Y-125900000I-243750J0D01*
G01*
X78781250Y-125900000D01*
G75*
G02*
X78537500Y-125656250I0J243750D01*
G01*
G37*
G04 #@! TD.AperFunction*
G04 #@! TA.AperFunction,SMDPad,CuDef*
G36*
G01*
X76662500Y-125656250D02*
X76662500Y-124743750D01*
G75*
G02*
X76906250Y-124500000I243750J0D01*
G01*
X77393750Y-124500000D01*
G75*
G02*
X77637500Y-124743750I0J-243750D01*
G01*
X77637500Y-125656250D01*
G75*
G02*
X77393750Y-125900000I-243750J0D01*
G01*
X76906250Y-125900000D01*
G75*
G02*
X76662500Y-125656250I0J243750D01*
G01*
G37*
G04 #@! TD.AperFunction*
D15*
X106150000Y-109100000D03*
X106150000Y-124210000D03*
X131250000Y-109100000D03*
X131250000Y-124210000D03*
G04 #@! TA.AperFunction,SMDPad,CuDef*
G36*
G01*
X135912500Y-131956250D02*
X135912500Y-131043750D01*
G75*
G02*
X136156250Y-130800000I243750J0D01*
G01*
X136643750Y-130800000D01*
G75*
G02*
X136887500Y-131043750I0J-243750D01*
G01*
X136887500Y-131956250D01*
G75*
G02*
X136643750Y-132200000I-243750J0D01*
G01*
X136156250Y-132200000D01*
G75*
G02*
X135912500Y-131956250I0J243750D01*
G01*
G37*
G04 #@! TD.AperFunction*
G04 #@! TA.AperFunction,SMDPad,CuDef*
G36*
G01*
X134037500Y-131956250D02*
X134037500Y-131043750D01*
G75*
G02*
X134281250Y-130800000I243750J0D01*
G01*
X134768750Y-130800000D01*
G75*
G02*
X135012500Y-131043750I0J-243750D01*
G01*
X135012500Y-131956250D01*
G75*
G02*
X134768750Y-132200000I-243750J0D01*
G01*
X134281250Y-132200000D01*
G75*
G02*
X134037500Y-131956250I0J243750D01*
G01*
G37*
G04 #@! TD.AperFunction*
G04 #@! TA.AperFunction,SMDPad,CuDef*
G36*
G01*
X133137500Y-128643750D02*
X133137500Y-129556250D01*
G75*
G02*
X132893750Y-129800000I-243750J0D01*
G01*
X132406250Y-129800000D01*
G75*
G02*
X132162500Y-129556250I0J243750D01*
G01*
X132162500Y-128643750D01*
G75*
G02*
X132406250Y-128400000I243750J0D01*
G01*
X132893750Y-128400000D01*
G75*
G02*
X133137500Y-128643750I0J-243750D01*
G01*
G37*
G04 #@! TD.AperFunction*
G04 #@! TA.AperFunction,SMDPad,CuDef*
G36*
G01*
X135012500Y-128643750D02*
X135012500Y-129556250D01*
G75*
G02*
X134768750Y-129800000I-243750J0D01*
G01*
X134281250Y-129800000D01*
G75*
G02*
X134037500Y-129556250I0J243750D01*
G01*
X134037500Y-128643750D01*
G75*
G02*
X134281250Y-128400000I243750J0D01*
G01*
X134768750Y-128400000D01*
G75*
G02*
X135012500Y-128643750I0J-243750D01*
G01*
G37*
G04 #@! TD.AperFunction*
G04 #@! TA.AperFunction,SMDPad,CuDef*
G36*
G01*
X137856250Y-135187500D02*
X136943750Y-135187500D01*
G75*
G02*
X136700000Y-134943750I0J243750D01*
G01*
X136700000Y-134456250D01*
G75*
G02*
X136943750Y-134212500I243750J0D01*
G01*
X137856250Y-134212500D01*
G75*
G02*
X138100000Y-134456250I0J-243750D01*
G01*
X138100000Y-134943750D01*
G75*
G02*
X137856250Y-135187500I-243750J0D01*
G01*
G37*
G04 #@! TD.AperFunction*
G04 #@! TA.AperFunction,SMDPad,CuDef*
G36*
G01*
X137856250Y-137062500D02*
X136943750Y-137062500D01*
G75*
G02*
X136700000Y-136818750I0J243750D01*
G01*
X136700000Y-136331250D01*
G75*
G02*
X136943750Y-136087500I243750J0D01*
G01*
X137856250Y-136087500D01*
G75*
G02*
X138100000Y-136331250I0J-243750D01*
G01*
X138100000Y-136818750D01*
G75*
G02*
X137856250Y-137062500I-243750J0D01*
G01*
G37*
G04 #@! TD.AperFunction*
G04 #@! TA.AperFunction,SMDPad,CuDef*
G36*
G01*
X122556250Y-135187500D02*
X121643750Y-135187500D01*
G75*
G02*
X121400000Y-134943750I0J243750D01*
G01*
X121400000Y-134456250D01*
G75*
G02*
X121643750Y-134212500I243750J0D01*
G01*
X122556250Y-134212500D01*
G75*
G02*
X122800000Y-134456250I0J-243750D01*
G01*
X122800000Y-134943750D01*
G75*
G02*
X122556250Y-135187500I-243750J0D01*
G01*
G37*
G04 #@! TD.AperFunction*
G04 #@! TA.AperFunction,SMDPad,CuDef*
G36*
G01*
X122556250Y-137062500D02*
X121643750Y-137062500D01*
G75*
G02*
X121400000Y-136818750I0J243750D01*
G01*
X121400000Y-136331250D01*
G75*
G02*
X121643750Y-136087500I243750J0D01*
G01*
X122556250Y-136087500D01*
G75*
G02*
X122800000Y-136331250I0J-243750D01*
G01*
X122800000Y-136818750D01*
G75*
G02*
X122556250Y-137062500I-243750J0D01*
G01*
G37*
G04 #@! TD.AperFunction*
G04 #@! TA.AperFunction,SMDPad,CuDef*
G36*
G01*
X126487500Y-129556250D02*
X126487500Y-128643750D01*
G75*
G02*
X126731250Y-128400000I243750J0D01*
G01*
X127218750Y-128400000D01*
G75*
G02*
X127462500Y-128643750I0J-243750D01*
G01*
X127462500Y-129556250D01*
G75*
G02*
X127218750Y-129800000I-243750J0D01*
G01*
X126731250Y-129800000D01*
G75*
G02*
X126487500Y-129556250I0J243750D01*
G01*
G37*
G04 #@! TD.AperFunction*
G04 #@! TA.AperFunction,SMDPad,CuDef*
G36*
G01*
X124612500Y-129556250D02*
X124612500Y-128643750D01*
G75*
G02*
X124856250Y-128400000I243750J0D01*
G01*
X125343750Y-128400000D01*
G75*
G02*
X125587500Y-128643750I0J-243750D01*
G01*
X125587500Y-129556250D01*
G75*
G02*
X125343750Y-129800000I-243750J0D01*
G01*
X124856250Y-129800000D01*
G75*
G02*
X124612500Y-129556250I0J243750D01*
G01*
G37*
G04 #@! TD.AperFunction*
G04 #@! TA.AperFunction,SMDPad,CuDef*
G36*
G01*
X124612500Y-131956250D02*
X124612500Y-131043750D01*
G75*
G02*
X124856250Y-130800000I243750J0D01*
G01*
X125343750Y-130800000D01*
G75*
G02*
X125587500Y-131043750I0J-243750D01*
G01*
X125587500Y-131956250D01*
G75*
G02*
X125343750Y-132200000I-243750J0D01*
G01*
X124856250Y-132200000D01*
G75*
G02*
X124612500Y-131956250I0J243750D01*
G01*
G37*
G04 #@! TD.AperFunction*
G04 #@! TA.AperFunction,SMDPad,CuDef*
G36*
G01*
X122737500Y-131956250D02*
X122737500Y-131043750D01*
G75*
G02*
X122981250Y-130800000I243750J0D01*
G01*
X123468750Y-130800000D01*
G75*
G02*
X123712500Y-131043750I0J-243750D01*
G01*
X123712500Y-131956250D01*
G75*
G02*
X123468750Y-132200000I-243750J0D01*
G01*
X122981250Y-132200000D01*
G75*
G02*
X122737500Y-131956250I0J243750D01*
G01*
G37*
G04 #@! TD.AperFunction*
G04 #@! TA.AperFunction,SMDPad,CuDef*
G36*
G01*
X78537500Y-129456250D02*
X78537500Y-128543750D01*
G75*
G02*
X78781250Y-128300000I243750J0D01*
G01*
X79268750Y-128300000D01*
G75*
G02*
X79512500Y-128543750I0J-243750D01*
G01*
X79512500Y-129456250D01*
G75*
G02*
X79268750Y-129700000I-243750J0D01*
G01*
X78781250Y-129700000D01*
G75*
G02*
X78537500Y-129456250I0J243750D01*
G01*
G37*
G04 #@! TD.AperFunction*
G04 #@! TA.AperFunction,SMDPad,CuDef*
G36*
G01*
X76662500Y-129456250D02*
X76662500Y-128543750D01*
G75*
G02*
X76906250Y-128300000I243750J0D01*
G01*
X77393750Y-128300000D01*
G75*
G02*
X77637500Y-128543750I0J-243750D01*
G01*
X77637500Y-129456250D01*
G75*
G02*
X77393750Y-129700000I-243750J0D01*
G01*
X76906250Y-129700000D01*
G75*
G02*
X76662500Y-129456250I0J243750D01*
G01*
G37*
G04 #@! TD.AperFunction*
G04 #@! TA.AperFunction,SMDPad,CuDef*
G36*
G01*
X78537500Y-127556250D02*
X78537500Y-126643750D01*
G75*
G02*
X78781250Y-126400000I243750J0D01*
G01*
X79268750Y-126400000D01*
G75*
G02*
X79512500Y-126643750I0J-243750D01*
G01*
X79512500Y-127556250D01*
G75*
G02*
X79268750Y-127800000I-243750J0D01*
G01*
X78781250Y-127800000D01*
G75*
G02*
X78537500Y-127556250I0J243750D01*
G01*
G37*
G04 #@! TD.AperFunction*
G04 #@! TA.AperFunction,SMDPad,CuDef*
G36*
G01*
X76662500Y-127556250D02*
X76662500Y-126643750D01*
G75*
G02*
X76906250Y-126400000I243750J0D01*
G01*
X77393750Y-126400000D01*
G75*
G02*
X77637500Y-126643750I0J-243750D01*
G01*
X77637500Y-127556250D01*
G75*
G02*
X77393750Y-127800000I-243750J0D01*
G01*
X76906250Y-127800000D01*
G75*
G02*
X76662500Y-127556250I0J243750D01*
G01*
G37*
G04 #@! TD.AperFunction*
G04 #@! TA.AperFunction,SMDPad,CuDef*
G36*
G01*
X78537500Y-133256250D02*
X78537500Y-132343750D01*
G75*
G02*
X78781250Y-132100000I243750J0D01*
G01*
X79268750Y-132100000D01*
G75*
G02*
X79512500Y-132343750I0J-243750D01*
G01*
X79512500Y-133256250D01*
G75*
G02*
X79268750Y-133500000I-243750J0D01*
G01*
X78781250Y-133500000D01*
G75*
G02*
X78537500Y-133256250I0J243750D01*
G01*
G37*
G04 #@! TD.AperFunction*
G04 #@! TA.AperFunction,SMDPad,CuDef*
G36*
G01*
X76662500Y-133256250D02*
X76662500Y-132343750D01*
G75*
G02*
X76906250Y-132100000I243750J0D01*
G01*
X77393750Y-132100000D01*
G75*
G02*
X77637500Y-132343750I0J-243750D01*
G01*
X77637500Y-133256250D01*
G75*
G02*
X77393750Y-133500000I-243750J0D01*
G01*
X76906250Y-133500000D01*
G75*
G02*
X76662500Y-133256250I0J243750D01*
G01*
G37*
G04 #@! TD.AperFunction*
G04 #@! TA.AperFunction,SMDPad,CuDef*
G36*
G01*
X79456250Y-119187500D02*
X78543750Y-119187500D01*
G75*
G02*
X78300000Y-118943750I0J243750D01*
G01*
X78300000Y-118456250D01*
G75*
G02*
X78543750Y-118212500I243750J0D01*
G01*
X79456250Y-118212500D01*
G75*
G02*
X79700000Y-118456250I0J-243750D01*
G01*
X79700000Y-118943750D01*
G75*
G02*
X79456250Y-119187500I-243750J0D01*
G01*
G37*
G04 #@! TD.AperFunction*
G04 #@! TA.AperFunction,SMDPad,CuDef*
G36*
G01*
X79456250Y-121062500D02*
X78543750Y-121062500D01*
G75*
G02*
X78300000Y-120818750I0J243750D01*
G01*
X78300000Y-120331250D01*
G75*
G02*
X78543750Y-120087500I243750J0D01*
G01*
X79456250Y-120087500D01*
G75*
G02*
X79700000Y-120331250I0J-243750D01*
G01*
X79700000Y-120818750D01*
G75*
G02*
X79456250Y-121062500I-243750J0D01*
G01*
G37*
G04 #@! TD.AperFunction*
D16*
X138450000Y-133250000D03*
X137800000Y-131250000D03*
X139100000Y-131250000D03*
X121150000Y-133250000D03*
X120500000Y-131250000D03*
X121800000Y-131250000D03*
D17*
X134970000Y-133500000D03*
X133700000Y-133500000D03*
X132430000Y-133500000D03*
X131160000Y-133500000D03*
X131160000Y-138900000D03*
X132430000Y-138900000D03*
X133700000Y-138900000D03*
X134970000Y-138900000D03*
X128440000Y-138900000D03*
X127170000Y-138900000D03*
X125900000Y-138900000D03*
X124630000Y-138900000D03*
X124630000Y-133500000D03*
X125900000Y-133500000D03*
X127170000Y-133500000D03*
X128440000Y-133500000D03*
G04 #@! TA.AperFunction,ComponentPad*
G36*
G01*
X135750000Y-145150000D02*
X135750000Y-146650000D01*
G75*
G02*
X135500000Y-146900000I-250000J0D01*
G01*
X134300000Y-146900000D01*
G75*
G02*
X134050000Y-146650000I0J250000D01*
G01*
X134050000Y-145150000D01*
G75*
G02*
X134300000Y-144900000I250000J0D01*
G01*
X135500000Y-144900000D01*
G75*
G02*
X135750000Y-145150000I0J-250000D01*
G01*
G37*
G04 #@! TD.AperFunction*
D14*
X132400000Y-145900000D03*
G04 #@! TA.AperFunction,SMDPad,CuDef*
G36*
G01*
X76662500Y-131356250D02*
X76662500Y-130443750D01*
G75*
G02*
X76906250Y-130200000I243750J0D01*
G01*
X77393750Y-130200000D01*
G75*
G02*
X77637500Y-130443750I0J-243750D01*
G01*
X77637500Y-131356250D01*
G75*
G02*
X77393750Y-131600000I-243750J0D01*
G01*
X76906250Y-131600000D01*
G75*
G02*
X76662500Y-131356250I0J243750D01*
G01*
G37*
G04 #@! TD.AperFunction*
G04 #@! TA.AperFunction,SMDPad,CuDef*
G36*
G01*
X78537500Y-131356250D02*
X78537500Y-130443750D01*
G75*
G02*
X78781250Y-130200000I243750J0D01*
G01*
X79268750Y-130200000D01*
G75*
G02*
X79512500Y-130443750I0J-243750D01*
G01*
X79512500Y-131356250D01*
G75*
G02*
X79268750Y-131600000I-243750J0D01*
G01*
X78781250Y-131600000D01*
G75*
G02*
X78537500Y-131356250I0J243750D01*
G01*
G37*
G04 #@! TD.AperFunction*
D18*
X88300000Y-118200000D03*
X102900000Y-118400000D03*
X129900000Y-130000000D03*
X136400000Y-133400000D03*
X83200000Y-131490000D03*
X83200000Y-126410000D03*
X83200000Y-127680000D03*
X83200000Y-128950000D03*
X83200000Y-130220000D03*
X83200000Y-121330000D03*
D19*
X77150000Y-130900000D02*
X77150000Y-129003684D01*
X77150000Y-129003684D02*
X77157943Y-128995741D01*
X77157943Y-128995741D02*
X77157943Y-125200955D01*
X101300000Y-120600000D02*
X102500000Y-120600000D01*
X102500000Y-120600000D02*
X106100000Y-117000000D01*
X106100000Y-117000000D02*
X106100000Y-109100000D01*
X79540000Y-120060000D02*
X81400000Y-120060000D01*
X77150000Y-122450000D02*
X79540000Y-120060000D01*
X77150000Y-125200000D02*
X77150000Y-122450000D01*
X77150000Y-132800000D02*
X77150000Y-130950000D01*
X77150000Y-130950000D02*
X77100000Y-130900000D01*
X94869998Y-120060000D02*
X97929998Y-117000000D01*
X97929998Y-117000000D02*
X106100000Y-117000000D01*
X81400000Y-120060000D02*
X94869998Y-120060000D01*
X98400000Y-135300000D02*
X99900000Y-135300000D01*
X99900000Y-135300000D02*
X101300000Y-135300000D01*
X101300000Y-122600000D02*
X98400000Y-122600000D01*
X101300000Y-124600000D02*
X101272974Y-124600000D01*
X101272974Y-124600000D02*
X100572974Y-123900000D01*
X100572974Y-123900000D02*
X98400000Y-123900000D01*
X134525000Y-129100000D02*
X134525000Y-131475000D01*
X134525000Y-131475000D02*
X134500000Y-131500000D01*
X134525000Y-129100000D02*
X136400000Y-129100000D01*
X133700000Y-133500000D02*
X133700000Y-132300000D01*
X133700000Y-132300000D02*
X134500000Y-131500000D01*
X132911126Y-127680000D02*
X134331126Y-129100000D01*
X98400000Y-127680000D02*
X132911126Y-127680000D01*
X125100000Y-131500000D02*
X125100000Y-129100000D01*
X125100000Y-129100000D02*
X123200000Y-129100000D01*
X127170000Y-133500000D02*
X127170000Y-132670000D01*
X127170000Y-132670000D02*
X126000000Y-131500000D01*
X126000000Y-131500000D02*
X125100000Y-131500000D01*
X98400000Y-128950000D02*
X123050000Y-128950000D01*
X123050000Y-128950000D02*
X123200000Y-129100000D01*
X124630000Y-138900000D02*
X125900000Y-138900000D01*
X133700000Y-138900000D02*
X135000000Y-138900000D01*
X134900000Y-142400000D02*
X134900000Y-139000000D01*
X134900000Y-139000000D02*
X135000000Y-138900000D01*
X125900000Y-138284998D02*
X126684998Y-137500000D01*
X125900000Y-138900000D02*
X125900000Y-138284998D01*
X132915002Y-137500000D02*
X133700000Y-138284998D01*
X126684998Y-137500000D02*
X132915002Y-137500000D01*
X133700000Y-138284998D02*
X133700000Y-138900000D01*
X134900000Y-142400000D02*
X134900000Y-145900000D01*
X127170000Y-138900000D02*
X128500000Y-138900000D01*
X128500000Y-138900000D02*
X131200000Y-138900000D01*
X131200000Y-138900000D02*
X132400000Y-138900000D01*
X132430000Y-138900000D02*
X132430000Y-142370000D01*
X132430000Y-142370000D02*
X132400000Y-142400000D01*
X132400000Y-142400000D02*
X132400000Y-145900000D01*
X122100000Y-134700000D02*
X123400000Y-134700000D01*
X123400000Y-134700000D02*
X124600000Y-133500000D01*
X122100000Y-134700000D02*
X121155461Y-133755461D01*
X121155461Y-133755461D02*
X121155461Y-133344539D01*
X123100000Y-131500000D02*
X123200000Y-131500000D01*
X121800000Y-131250000D02*
X122850000Y-131250000D01*
X122850000Y-131250000D02*
X123100000Y-131500000D01*
X131160000Y-133500000D02*
X131160000Y-134115002D01*
X138450000Y-133250000D02*
X138450000Y-133550000D01*
X138450000Y-133550000D02*
X137400000Y-134600000D01*
X132230525Y-135185527D02*
X131200000Y-134155002D01*
X136914473Y-135185527D02*
X132230525Y-135185527D01*
X137400000Y-134700000D02*
X136914473Y-135185527D01*
X131200000Y-134155002D02*
X131200000Y-133500000D01*
X136400000Y-131500000D02*
X137100000Y-132200000D01*
X137100000Y-132200000D02*
X138200000Y-132200000D01*
X138200000Y-132200000D02*
X139100000Y-131300000D01*
X81400000Y-131490000D02*
X83200000Y-131490000D01*
X79025000Y-132800000D02*
X80325000Y-131500000D01*
X80325000Y-131500000D02*
X81400000Y-131500000D01*
X81400000Y-126410000D02*
X83200000Y-126410000D01*
X79025000Y-125200000D02*
X80225000Y-126400000D01*
X80225000Y-126400000D02*
X81400000Y-126400000D01*
X81400000Y-127680000D02*
X83200000Y-127680000D01*
X79025000Y-127100000D02*
X79625000Y-127700000D01*
X79625000Y-127700000D02*
X81400000Y-127700000D01*
X81400000Y-128950000D02*
X83200000Y-128950000D01*
X79025000Y-129000000D02*
X81500000Y-129000000D01*
X81500000Y-129000000D02*
X81400000Y-129000000D01*
X125900000Y-136500000D02*
X125975000Y-136575000D01*
X125900000Y-133500000D02*
X125900000Y-136500000D01*
X125975000Y-136575000D02*
X122125000Y-136575000D01*
X130275000Y-136575000D02*
X125975000Y-136575000D01*
X137400000Y-136575000D02*
X130275000Y-136575000D01*
X129900000Y-132874998D02*
X129900000Y-136200000D01*
X129900000Y-136200000D02*
X130275000Y-136575000D01*
X130574998Y-132200000D02*
X129900000Y-132874998D01*
X131900000Y-132200000D02*
X130574998Y-132200000D01*
X132430000Y-132730000D02*
X131900000Y-132200000D01*
X132430000Y-133500000D02*
X132430000Y-132730000D01*
X131250000Y-109100000D02*
X140000000Y-117850000D01*
X140000000Y-117850000D02*
X140000000Y-135120750D01*
X140000000Y-135120750D02*
X138520750Y-136600000D01*
X138520750Y-136600000D02*
X137400000Y-136600000D01*
X118800000Y-139800000D02*
X122100000Y-136500000D01*
X89400000Y-139800000D02*
X118800000Y-139800000D01*
X86000000Y-143200000D02*
X89400000Y-139800000D01*
X86000000Y-146100000D02*
X86000000Y-143200000D01*
X81400000Y-130220000D02*
X83200000Y-130220000D01*
X79025000Y-130900000D02*
X79725000Y-130200000D01*
X79725000Y-130200000D02*
X81400000Y-130200000D01*
X81400000Y-121330000D02*
X83200000Y-121330000D01*
D20*
X96802996Y-119425000D02*
X96784043Y-119487479D01*
X96771976Y-119610000D01*
X96771976Y-120510000D01*
X96784043Y-120632521D01*
X96802996Y-120695000D01*
X96784043Y-120757479D01*
X96771976Y-120880000D01*
X96771976Y-121780000D01*
X96784043Y-121902521D01*
X96802996Y-121965000D01*
X96784043Y-122027479D01*
X96771976Y-122150000D01*
X96771976Y-123050000D01*
X96784043Y-123172521D01*
X96802996Y-123235000D01*
X96784043Y-123297479D01*
X96771976Y-123420000D01*
X96771976Y-124320000D01*
X96784043Y-124442521D01*
X96802996Y-124505000D01*
X96784043Y-124567479D01*
X96771976Y-124690000D01*
X96771976Y-125590000D01*
X96784043Y-125712521D01*
X96802996Y-125775000D01*
X96784043Y-125837479D01*
X96771976Y-125960000D01*
X96771976Y-126860000D01*
X96784043Y-126982521D01*
X96802996Y-127045000D01*
X96784043Y-127107479D01*
X96771976Y-127230000D01*
X96771976Y-128130000D01*
X96784043Y-128252521D01*
X96802996Y-128315000D01*
X96784043Y-128377479D01*
X96771976Y-128500000D01*
X96771976Y-129400000D01*
X96784043Y-129522521D01*
X96802996Y-129585000D01*
X96784043Y-129647479D01*
X96771976Y-129770000D01*
X96771976Y-130670000D01*
X96784043Y-130792521D01*
X96802996Y-130855000D01*
X96784043Y-130917479D01*
X96771976Y-131040000D01*
X96771976Y-131940000D01*
X96784043Y-132062521D01*
X96802996Y-132125000D01*
X96784043Y-132187479D01*
X96771976Y-132310000D01*
X96771976Y-133210000D01*
X96784043Y-133332521D01*
X96802996Y-133395000D01*
X96784043Y-133457479D01*
X96771976Y-133580000D01*
X96771976Y-134480000D01*
X96784043Y-134602521D01*
X96802996Y-134665000D01*
X96784043Y-134727479D01*
X96771976Y-134850000D01*
X96771976Y-135750000D01*
X96784043Y-135872521D01*
X96819781Y-135990334D01*
X96877817Y-136098911D01*
X96955920Y-136194080D01*
X97051089Y-136272183D01*
X97159666Y-136330219D01*
X97277479Y-136365957D01*
X97400000Y-136378024D01*
X99400000Y-136378024D01*
X99522521Y-136365957D01*
X99640334Y-136330219D01*
X99748911Y-136272183D01*
X99844080Y-136194080D01*
X99859739Y-136175000D01*
X100299228Y-136175000D01*
X100355920Y-136244080D01*
X100424059Y-136300000D01*
X100355920Y-136355920D01*
X100277817Y-136451089D01*
X100219781Y-136559666D01*
X100184043Y-136677479D01*
X100171976Y-136800000D01*
X100175000Y-137018750D01*
X100331250Y-137175000D01*
X101175000Y-137175000D01*
X101175000Y-137155000D01*
X101425000Y-137155000D01*
X101425000Y-137175000D01*
X102268750Y-137175000D01*
X102425000Y-137018750D01*
X102428024Y-136800000D01*
X102415957Y-136677479D01*
X102380219Y-136559666D01*
X102322183Y-136451089D01*
X102244080Y-136355920D01*
X102175941Y-136300000D01*
X102244080Y-136244080D01*
X102322183Y-136148911D01*
X102380219Y-136040334D01*
X102415957Y-135922521D01*
X102428024Y-135800000D01*
X102428024Y-134800000D01*
X102415957Y-134677479D01*
X102380219Y-134559666D01*
X102322183Y-134451089D01*
X102244080Y-134355920D01*
X102148911Y-134277817D01*
X102040334Y-134219781D01*
X101922521Y-134184043D01*
X101800000Y-134171976D01*
X100800000Y-134171976D01*
X100677479Y-134184043D01*
X100559666Y-134219781D01*
X100451089Y-134277817D01*
X100355920Y-134355920D01*
X100299228Y-134425000D01*
X100028024Y-134425000D01*
X100028024Y-133580000D01*
X100015957Y-133457479D01*
X99997004Y-133395000D01*
X100015957Y-133332521D01*
X100028024Y-133210000D01*
X100028024Y-132310000D01*
X100015957Y-132187479D01*
X99997004Y-132125000D01*
X100015957Y-132062521D01*
X100028024Y-131940000D01*
X100028024Y-131585192D01*
X119647151Y-131585192D01*
X119656326Y-131707964D01*
X119689276Y-131826587D01*
X119744736Y-131936502D01*
X119820573Y-132033486D01*
X119913873Y-132113811D01*
X120021052Y-132174391D01*
X120137989Y-132212897D01*
X120243750Y-132225000D01*
X120400000Y-132068750D01*
X120400000Y-131375000D01*
X119806250Y-131375000D01*
X119650000Y-131531250D01*
X119647151Y-131585192D01*
X100028024Y-131585192D01*
X100028024Y-131040000D01*
X100015957Y-130917479D01*
X100015147Y-130914808D01*
X119647151Y-130914808D01*
X119650000Y-130968750D01*
X119806250Y-131125000D01*
X120400000Y-131125000D01*
X120400000Y-130431250D01*
X120243750Y-130275000D01*
X120137989Y-130287103D01*
X120021052Y-130325609D01*
X119913873Y-130386189D01*
X119820573Y-130466514D01*
X119744736Y-130563498D01*
X119689276Y-130673413D01*
X119656326Y-130792036D01*
X119647151Y-130914808D01*
X100015147Y-130914808D01*
X99997004Y-130855000D01*
X100015957Y-130792521D01*
X100028024Y-130670000D01*
X100028024Y-129825000D01*
X122140130Y-129825000D01*
X122144781Y-129840334D01*
X122202817Y-129948911D01*
X122280920Y-130044080D01*
X122376089Y-130122183D01*
X122484666Y-130180219D01*
X122602479Y-130215957D01*
X122692261Y-130224800D01*
X122647637Y-130238336D01*
X122496918Y-130318896D01*
X122428556Y-130375000D01*
X122368641Y-130375000D01*
X122265334Y-130319781D01*
X122147521Y-130284043D01*
X122025000Y-130271976D01*
X121575000Y-130271976D01*
X121452479Y-130284043D01*
X121334666Y-130319781D01*
X121226089Y-130377817D01*
X121149454Y-130440709D01*
X121086127Y-130386189D01*
X120978948Y-130325609D01*
X120862011Y-130287103D01*
X120756250Y-130275000D01*
X120600000Y-130431250D01*
X120600000Y-131125000D01*
X120645000Y-131125000D01*
X120645000Y-131375000D01*
X120600000Y-131375000D01*
X120600000Y-132068750D01*
X120756250Y-132225000D01*
X120862011Y-132212897D01*
X120978948Y-132174391D01*
X121086127Y-132113811D01*
X121149454Y-132059291D01*
X121226089Y-132122183D01*
X121334666Y-132180219D01*
X121452479Y-132215957D01*
X121575000Y-132228024D01*
X122025000Y-132228024D01*
X122147521Y-132215957D01*
X122152920Y-132214319D01*
X122175836Y-132289863D01*
X122256396Y-132440582D01*
X122364813Y-132572687D01*
X122496918Y-132681104D01*
X122647637Y-132761664D01*
X122811175Y-132811273D01*
X122981250Y-132828024D01*
X123468750Y-132828024D01*
X123638825Y-132811273D01*
X123701976Y-132792116D01*
X123701976Y-133160588D01*
X123090336Y-133772228D01*
X123040582Y-133731396D01*
X122889863Y-133650836D01*
X122726325Y-133601227D01*
X122556250Y-133584476D01*
X122221912Y-133584476D01*
X122030461Y-133393025D01*
X122030461Y-133301561D01*
X122017800Y-133173009D01*
X122003024Y-133124300D01*
X122003024Y-132900000D01*
X121990957Y-132777479D01*
X121955219Y-132659666D01*
X121897183Y-132551089D01*
X121819080Y-132455920D01*
X121723911Y-132377817D01*
X121615334Y-132319781D01*
X121497521Y-132284043D01*
X121375000Y-132271976D01*
X120925000Y-132271976D01*
X120802479Y-132284043D01*
X120684666Y-132319781D01*
X120576089Y-132377817D01*
X120480920Y-132455920D01*
X120402817Y-132551089D01*
X120344781Y-132659666D01*
X120309043Y-132777479D01*
X120296976Y-132900000D01*
X120296976Y-133160304D01*
X120293122Y-133173009D01*
X120280461Y-133301560D01*
X120280461Y-133712482D01*
X120276228Y-133755461D01*
X120290997Y-133905410D01*
X120293122Y-133926990D01*
X120343156Y-134091928D01*
X120424405Y-134243936D01*
X120533749Y-134377173D01*
X120567141Y-134404577D01*
X120771976Y-134609412D01*
X120771976Y-134943750D01*
X120788727Y-135113825D01*
X120838336Y-135277363D01*
X120918896Y-135428082D01*
X121027313Y-135560187D01*
X121121518Y-135637500D01*
X121027313Y-135714813D01*
X120918896Y-135846918D01*
X120838336Y-135997637D01*
X120788727Y-136161175D01*
X120771976Y-136331250D01*
X120771976Y-136590587D01*
X118437564Y-138925000D01*
X89442978Y-138925000D01*
X89399999Y-138920767D01*
X89228469Y-138937661D01*
X89091875Y-138979097D01*
X89063532Y-138987695D01*
X88911524Y-139068944D01*
X88778288Y-139178288D01*
X88750890Y-139211673D01*
X85411676Y-142550888D01*
X85378289Y-142578288D01*
X85268945Y-142711524D01*
X85225516Y-142792774D01*
X85187695Y-142863533D01*
X85137661Y-143028471D01*
X85120767Y-143200000D01*
X85125001Y-143242989D01*
X85125001Y-144559655D01*
X85012196Y-144619950D01*
X84879143Y-144729143D01*
X84769950Y-144862196D01*
X84708597Y-144976980D01*
X84700873Y-144966409D01*
X84487831Y-144770539D01*
X84240670Y-144619995D01*
X83968889Y-144520562D01*
X83953372Y-144517955D01*
X83725000Y-144637188D01*
X83725000Y-145975000D01*
X83745000Y-145975000D01*
X83745000Y-146225000D01*
X83725000Y-146225000D01*
X83725000Y-147562812D01*
X83953372Y-147682045D01*
X83968889Y-147679438D01*
X84240670Y-147580005D01*
X84487831Y-147429461D01*
X84700873Y-147233591D01*
X84708597Y-147223020D01*
X84769950Y-147337804D01*
X84879143Y-147470857D01*
X85012196Y-147580050D01*
X85163995Y-147661188D01*
X85328706Y-147711153D01*
X85500000Y-147728024D01*
X86700000Y-147728024D01*
X86871294Y-147711153D01*
X87036005Y-147661188D01*
X87187804Y-147580050D01*
X87320857Y-147470857D01*
X87430050Y-147337804D01*
X87511188Y-147186005D01*
X87561153Y-147021294D01*
X87578024Y-146850000D01*
X87578024Y-145350000D01*
X87561153Y-145178706D01*
X87511188Y-145013995D01*
X87430050Y-144862196D01*
X87320857Y-144729143D01*
X87187804Y-144619950D01*
X87036005Y-144538812D01*
X86875000Y-144489971D01*
X86875000Y-143562436D01*
X88558540Y-141878896D01*
X88546613Y-142000000D01*
X88550000Y-142034390D01*
X88550001Y-149300248D01*
X81386441Y-149302783D01*
X80345080Y-147678577D01*
X79674026Y-146456214D01*
X82138204Y-146456214D01*
X82206522Y-146737434D01*
X82328391Y-146999922D01*
X82499127Y-147233591D01*
X82712169Y-147429461D01*
X82959330Y-147580005D01*
X83231111Y-147679438D01*
X83246628Y-147682045D01*
X83475000Y-147562812D01*
X83475000Y-146225000D01*
X82280192Y-146225000D01*
X82138204Y-146456214D01*
X79674026Y-146456214D01*
X79282916Y-145743786D01*
X82138204Y-145743786D01*
X82280192Y-145975000D01*
X83475000Y-145975000D01*
X83475000Y-144637188D01*
X83246628Y-144517955D01*
X83231111Y-144520562D01*
X82959330Y-144619995D01*
X82712169Y-144770539D01*
X82499127Y-144966409D01*
X82328391Y-145200078D01*
X82206522Y-145462566D01*
X82138204Y-145743786D01*
X79282916Y-145743786D01*
X79243818Y-145672567D01*
X78281539Y-143596290D01*
X77462716Y-141459390D01*
X77460153Y-141451040D01*
X77665917Y-141758989D01*
X77941011Y-142034083D01*
X78264487Y-142250222D01*
X78623914Y-142399102D01*
X79005479Y-142475000D01*
X79394521Y-142475000D01*
X79776086Y-142399102D01*
X80135513Y-142250222D01*
X80458989Y-142034083D01*
X80734083Y-141758989D01*
X80950222Y-141435513D01*
X81099102Y-141076086D01*
X81175000Y-140694521D01*
X81175000Y-140305479D01*
X81099102Y-139923914D01*
X80950222Y-139564487D01*
X80734083Y-139241011D01*
X80458989Y-138965917D01*
X80135513Y-138749778D01*
X79776086Y-138600898D01*
X79394521Y-138525000D01*
X79005479Y-138525000D01*
X78623914Y-138600898D01*
X78264487Y-138749778D01*
X77941011Y-138965917D01*
X77665917Y-139241011D01*
X77449778Y-139564487D01*
X77300898Y-139923914D01*
X77225000Y-140305479D01*
X77225000Y-140685046D01*
X76791127Y-139271735D01*
X76329897Y-137300000D01*
X83106976Y-137300000D01*
X83119043Y-137422521D01*
X83154781Y-137540334D01*
X83212817Y-137648911D01*
X83290920Y-137744080D01*
X83386089Y-137822183D01*
X83494666Y-137880219D01*
X83612479Y-137915957D01*
X83735000Y-137928024D01*
X83903750Y-137925000D01*
X84060000Y-137768750D01*
X84060000Y-136425000D01*
X83266250Y-136425000D01*
X83110000Y-136581250D01*
X83106976Y-137300000D01*
X76329897Y-137300000D01*
X76269889Y-137043471D01*
X75901412Y-134784910D01*
X75687406Y-132506531D01*
X75628861Y-130218847D01*
X75726047Y-127932510D01*
X75978516Y-125658050D01*
X76034476Y-125348095D01*
X76034476Y-125656250D01*
X76051227Y-125826325D01*
X76100836Y-125989863D01*
X76181396Y-126140582D01*
X76189125Y-126150000D01*
X76181396Y-126159418D01*
X76100836Y-126310137D01*
X76051227Y-126473675D01*
X76034476Y-126643750D01*
X76034476Y-127556250D01*
X76051227Y-127726325D01*
X76100836Y-127889863D01*
X76181396Y-128040582D01*
X76189125Y-128050000D01*
X76181396Y-128059418D01*
X76100836Y-128210137D01*
X76051227Y-128373675D01*
X76034476Y-128543750D01*
X76034476Y-129456250D01*
X76051227Y-129626325D01*
X76100836Y-129789863D01*
X76181396Y-129940582D01*
X76189125Y-129950000D01*
X76181396Y-129959418D01*
X76100836Y-130110137D01*
X76051227Y-130273675D01*
X76034476Y-130443750D01*
X76034476Y-131356250D01*
X76051227Y-131526325D01*
X76100836Y-131689863D01*
X76181396Y-131840582D01*
X76189125Y-131850000D01*
X76181396Y-131859418D01*
X76100836Y-132010137D01*
X76051227Y-132173675D01*
X76034476Y-132343750D01*
X76034476Y-133256250D01*
X76051227Y-133426325D01*
X76100836Y-133589863D01*
X76181396Y-133740582D01*
X76289813Y-133872687D01*
X76421918Y-133981104D01*
X76572637Y-134061664D01*
X76736175Y-134111273D01*
X76906250Y-134128024D01*
X77393750Y-134128024D01*
X77563825Y-134111273D01*
X77727363Y-134061664D01*
X77878082Y-133981104D01*
X78010187Y-133872687D01*
X78087500Y-133778482D01*
X78164813Y-133872687D01*
X78296918Y-133981104D01*
X78447637Y-134061664D01*
X78611175Y-134111273D01*
X78781250Y-134128024D01*
X79268750Y-134128024D01*
X79438825Y-134111273D01*
X79602363Y-134061664D01*
X79753082Y-133981104D01*
X79771976Y-133965598D01*
X79771976Y-134480000D01*
X79784043Y-134602521D01*
X79802996Y-134665000D01*
X79784043Y-134727479D01*
X79771976Y-134850000D01*
X79771976Y-135750000D01*
X79784043Y-135872521D01*
X79819781Y-135990334D01*
X79877817Y-136098911D01*
X79955920Y-136194080D01*
X80051089Y-136272183D01*
X80159666Y-136330219D01*
X80277479Y-136365957D01*
X80400000Y-136378024D01*
X82400000Y-136378024D01*
X82522521Y-136365957D01*
X82640334Y-136330219D01*
X82748911Y-136272183D01*
X82844080Y-136194080D01*
X82922183Y-136098911D01*
X82980219Y-135990334D01*
X83015957Y-135872521D01*
X83028024Y-135750000D01*
X83028024Y-135300000D01*
X83106976Y-135300000D01*
X83110000Y-136018750D01*
X83266250Y-136175000D01*
X84060000Y-136175000D01*
X84060000Y-134831250D01*
X84310000Y-134831250D01*
X84310000Y-136175000D01*
X84330000Y-136175000D01*
X84330000Y-136425000D01*
X84310000Y-136425000D01*
X84310000Y-137768750D01*
X84466250Y-137925000D01*
X84635000Y-137928024D01*
X84757521Y-137915957D01*
X84820000Y-137897004D01*
X84882479Y-137915957D01*
X85005000Y-137928024D01*
X85905000Y-137928024D01*
X86027521Y-137915957D01*
X86090000Y-137897004D01*
X86152479Y-137915957D01*
X86275000Y-137928024D01*
X87175000Y-137928024D01*
X87297521Y-137915957D01*
X87360000Y-137897004D01*
X87422479Y-137915957D01*
X87545000Y-137928024D01*
X88445000Y-137928024D01*
X88567521Y-137915957D01*
X88630000Y-137897004D01*
X88692479Y-137915957D01*
X88815000Y-137928024D01*
X89715000Y-137928024D01*
X89837521Y-137915957D01*
X89900000Y-137897004D01*
X89962479Y-137915957D01*
X90085000Y-137928024D01*
X90985000Y-137928024D01*
X91107521Y-137915957D01*
X91170000Y-137897004D01*
X91232479Y-137915957D01*
X91355000Y-137928024D01*
X92255000Y-137928024D01*
X92377521Y-137915957D01*
X92440000Y-137897004D01*
X92502479Y-137915957D01*
X92625000Y-137928024D01*
X93525000Y-137928024D01*
X93647521Y-137915957D01*
X93710000Y-137897004D01*
X93772479Y-137915957D01*
X93895000Y-137928024D01*
X94795000Y-137928024D01*
X94917521Y-137915957D01*
X94980000Y-137897004D01*
X95042479Y-137915957D01*
X95165000Y-137928024D01*
X96065000Y-137928024D01*
X96187521Y-137915957D01*
X96305334Y-137880219D01*
X96413911Y-137822183D01*
X96440941Y-137800000D01*
X100171976Y-137800000D01*
X100184043Y-137922521D01*
X100219781Y-138040334D01*
X100277817Y-138148911D01*
X100355920Y-138244080D01*
X100451089Y-138322183D01*
X100559666Y-138380219D01*
X100677479Y-138415957D01*
X100800000Y-138428024D01*
X101018750Y-138425000D01*
X101175000Y-138268750D01*
X101175000Y-137425000D01*
X101425000Y-137425000D01*
X101425000Y-138268750D01*
X101581250Y-138425000D01*
X101800000Y-138428024D01*
X101922521Y-138415957D01*
X102040334Y-138380219D01*
X102148911Y-138322183D01*
X102244080Y-138244080D01*
X102322183Y-138148911D01*
X102380219Y-138040334D01*
X102415957Y-137922521D01*
X102428024Y-137800000D01*
X102425000Y-137581250D01*
X102268750Y-137425000D01*
X101425000Y-137425000D01*
X101175000Y-137425000D01*
X100331250Y-137425000D01*
X100175000Y-137581250D01*
X100171976Y-137800000D01*
X96440941Y-137800000D01*
X96509080Y-137744080D01*
X96587183Y-137648911D01*
X96645219Y-137540334D01*
X96680957Y-137422521D01*
X96693024Y-137300000D01*
X96693024Y-135300000D01*
X96680957Y-135177479D01*
X96645219Y-135059666D01*
X96587183Y-134951089D01*
X96509080Y-134855920D01*
X96413911Y-134777817D01*
X96305334Y-134719781D01*
X96187521Y-134684043D01*
X96065000Y-134671976D01*
X95165000Y-134671976D01*
X95042479Y-134684043D01*
X94980000Y-134702996D01*
X94917521Y-134684043D01*
X94795000Y-134671976D01*
X93895000Y-134671976D01*
X93772479Y-134684043D01*
X93710000Y-134702996D01*
X93647521Y-134684043D01*
X93525000Y-134671976D01*
X92625000Y-134671976D01*
X92502479Y-134684043D01*
X92440000Y-134702996D01*
X92377521Y-134684043D01*
X92255000Y-134671976D01*
X91355000Y-134671976D01*
X91232479Y-134684043D01*
X91170000Y-134702996D01*
X91107521Y-134684043D01*
X90985000Y-134671976D01*
X90085000Y-134671976D01*
X89962479Y-134684043D01*
X89900000Y-134702996D01*
X89837521Y-134684043D01*
X89715000Y-134671976D01*
X88815000Y-134671976D01*
X88692479Y-134684043D01*
X88630000Y-134702996D01*
X88567521Y-134684043D01*
X88445000Y-134671976D01*
X87545000Y-134671976D01*
X87422479Y-134684043D01*
X87360000Y-134702996D01*
X87297521Y-134684043D01*
X87175000Y-134671976D01*
X86275000Y-134671976D01*
X86152479Y-134684043D01*
X86090000Y-134702996D01*
X86027521Y-134684043D01*
X85905000Y-134671976D01*
X85005000Y-134671976D01*
X84882479Y-134684043D01*
X84820000Y-134702996D01*
X84757521Y-134684043D01*
X84635000Y-134671976D01*
X84466250Y-134675000D01*
X84310000Y-134831250D01*
X84060000Y-134831250D01*
X83903750Y-134675000D01*
X83735000Y-134671976D01*
X83612479Y-134684043D01*
X83494666Y-134719781D01*
X83386089Y-134777817D01*
X83290920Y-134855920D01*
X83212817Y-134951089D01*
X83154781Y-135059666D01*
X83119043Y-135177479D01*
X83106976Y-135300000D01*
X83028024Y-135300000D01*
X83028024Y-134850000D01*
X83015957Y-134727479D01*
X82997004Y-134665000D01*
X83015957Y-134602521D01*
X83028024Y-134480000D01*
X83028024Y-133580000D01*
X83015957Y-133457479D01*
X82997004Y-133395000D01*
X83015957Y-133332521D01*
X83028024Y-133210000D01*
X83028024Y-132500873D01*
X83099046Y-132515000D01*
X83300954Y-132515000D01*
X83498982Y-132475610D01*
X83685520Y-132398344D01*
X83853400Y-132286170D01*
X83996170Y-132143400D01*
X84108344Y-131975520D01*
X84185610Y-131788982D01*
X84225000Y-131590954D01*
X84225000Y-131389046D01*
X84185610Y-131191018D01*
X84108344Y-131004480D01*
X84008465Y-130855000D01*
X84108344Y-130705520D01*
X84185610Y-130518982D01*
X84225000Y-130320954D01*
X84225000Y-130119046D01*
X84185610Y-129921018D01*
X84108344Y-129734480D01*
X84008465Y-129585000D01*
X84108344Y-129435520D01*
X84185610Y-129248982D01*
X84225000Y-129050954D01*
X84225000Y-128849046D01*
X84213256Y-128790000D01*
X85771976Y-128790000D01*
X85784043Y-128912521D01*
X85819781Y-129030334D01*
X85877817Y-129138911D01*
X85955920Y-129234080D01*
X86051089Y-129312183D01*
X86159666Y-129370219D01*
X86277479Y-129405957D01*
X86400000Y-129418024D01*
X88618750Y-129415000D01*
X88775000Y-129258750D01*
X88775000Y-126415000D01*
X89025000Y-126415000D01*
X89025000Y-129258750D01*
X89181250Y-129415000D01*
X91400000Y-129418024D01*
X91522521Y-129405957D01*
X91640334Y-129370219D01*
X91748911Y-129312183D01*
X91844080Y-129234080D01*
X91922183Y-129138911D01*
X91980219Y-129030334D01*
X92015957Y-128912521D01*
X92028024Y-128790000D01*
X92025000Y-126571250D01*
X91868750Y-126415000D01*
X89025000Y-126415000D01*
X88775000Y-126415000D01*
X85931250Y-126415000D01*
X85775000Y-126571250D01*
X85771976Y-128790000D01*
X84213256Y-128790000D01*
X84185610Y-128651018D01*
X84108344Y-128464480D01*
X84008465Y-128315000D01*
X84108344Y-128165520D01*
X84185610Y-127978982D01*
X84225000Y-127780954D01*
X84225000Y-127579046D01*
X84185610Y-127381018D01*
X84108344Y-127194480D01*
X84008465Y-127045000D01*
X84108344Y-126895520D01*
X84185610Y-126708982D01*
X84225000Y-126510954D01*
X84225000Y-126309046D01*
X84185610Y-126111018D01*
X84108344Y-125924480D01*
X83996170Y-125756600D01*
X83853400Y-125613830D01*
X83685520Y-125501656D01*
X83498982Y-125424390D01*
X83300954Y-125385000D01*
X83099046Y-125385000D01*
X83028024Y-125399127D01*
X83028024Y-124690000D01*
X83015957Y-124567479D01*
X82997004Y-124505000D01*
X83015957Y-124442521D01*
X83028024Y-124320000D01*
X83028024Y-123790000D01*
X85771976Y-123790000D01*
X85775000Y-126008750D01*
X85931250Y-126165000D01*
X88775000Y-126165000D01*
X88775000Y-123321250D01*
X89025000Y-123321250D01*
X89025000Y-126165000D01*
X91868750Y-126165000D01*
X92025000Y-126008750D01*
X92028024Y-123790000D01*
X92015957Y-123667479D01*
X91980219Y-123549666D01*
X91922183Y-123441089D01*
X91844080Y-123345920D01*
X91748911Y-123267817D01*
X91640334Y-123209781D01*
X91522521Y-123174043D01*
X91400000Y-123161976D01*
X89181250Y-123165000D01*
X89025000Y-123321250D01*
X88775000Y-123321250D01*
X88618750Y-123165000D01*
X86400000Y-123161976D01*
X86277479Y-123174043D01*
X86159666Y-123209781D01*
X86051089Y-123267817D01*
X85955920Y-123345920D01*
X85877817Y-123441089D01*
X85819781Y-123549666D01*
X85784043Y-123667479D01*
X85771976Y-123790000D01*
X83028024Y-123790000D01*
X83028024Y-123420000D01*
X83015957Y-123297479D01*
X82997004Y-123235000D01*
X83015957Y-123172521D01*
X83028024Y-123050000D01*
X83028024Y-122340873D01*
X83099046Y-122355000D01*
X83300954Y-122355000D01*
X83498982Y-122315610D01*
X83685520Y-122238344D01*
X83853400Y-122126170D01*
X83996170Y-121983400D01*
X84108344Y-121815520D01*
X84185610Y-121628982D01*
X84225000Y-121430954D01*
X84225000Y-121229046D01*
X84185610Y-121031018D01*
X84145838Y-120935000D01*
X94827019Y-120935000D01*
X94869998Y-120939233D01*
X94912977Y-120935000D01*
X95041528Y-120922339D01*
X95206466Y-120872305D01*
X95358474Y-120791056D01*
X95491710Y-120681712D01*
X95519115Y-120648319D01*
X96788900Y-119378534D01*
X96802996Y-119425000D01*
G04 #@! TA.AperFunction,Conductor*
D21*
G36*
X96802996Y-119425000D02*
G01*
X96784043Y-119487479D01*
X96771976Y-119610000D01*
X96771976Y-120510000D01*
X96784043Y-120632521D01*
X96802996Y-120695000D01*
X96784043Y-120757479D01*
X96771976Y-120880000D01*
X96771976Y-121780000D01*
X96784043Y-121902521D01*
X96802996Y-121965000D01*
X96784043Y-122027479D01*
X96771976Y-122150000D01*
X96771976Y-123050000D01*
X96784043Y-123172521D01*
X96802996Y-123235000D01*
X96784043Y-123297479D01*
X96771976Y-123420000D01*
X96771976Y-124320000D01*
X96784043Y-124442521D01*
X96802996Y-124505000D01*
X96784043Y-124567479D01*
X96771976Y-124690000D01*
X96771976Y-125590000D01*
X96784043Y-125712521D01*
X96802996Y-125775000D01*
X96784043Y-125837479D01*
X96771976Y-125960000D01*
X96771976Y-126860000D01*
X96784043Y-126982521D01*
X96802996Y-127045000D01*
X96784043Y-127107479D01*
X96771976Y-127230000D01*
X96771976Y-128130000D01*
X96784043Y-128252521D01*
X96802996Y-128315000D01*
X96784043Y-128377479D01*
X96771976Y-128500000D01*
X96771976Y-129400000D01*
X96784043Y-129522521D01*
X96802996Y-129585000D01*
X96784043Y-129647479D01*
X96771976Y-129770000D01*
X96771976Y-130670000D01*
X96784043Y-130792521D01*
X96802996Y-130855000D01*
X96784043Y-130917479D01*
X96771976Y-131040000D01*
X96771976Y-131940000D01*
X96784043Y-132062521D01*
X96802996Y-132125000D01*
X96784043Y-132187479D01*
X96771976Y-132310000D01*
X96771976Y-133210000D01*
X96784043Y-133332521D01*
X96802996Y-133395000D01*
X96784043Y-133457479D01*
X96771976Y-133580000D01*
X96771976Y-134480000D01*
X96784043Y-134602521D01*
X96802996Y-134665000D01*
X96784043Y-134727479D01*
X96771976Y-134850000D01*
X96771976Y-135750000D01*
X96784043Y-135872521D01*
X96819781Y-135990334D01*
X96877817Y-136098911D01*
X96955920Y-136194080D01*
X97051089Y-136272183D01*
X97159666Y-136330219D01*
X97277479Y-136365957D01*
X97400000Y-136378024D01*
X99400000Y-136378024D01*
X99522521Y-136365957D01*
X99640334Y-136330219D01*
X99748911Y-136272183D01*
X99844080Y-136194080D01*
X99859739Y-136175000D01*
X100299228Y-136175000D01*
X100355920Y-136244080D01*
X100424059Y-136300000D01*
X100355920Y-136355920D01*
X100277817Y-136451089D01*
X100219781Y-136559666D01*
X100184043Y-136677479D01*
X100171976Y-136800000D01*
X100175000Y-137018750D01*
X100331250Y-137175000D01*
X101175000Y-137175000D01*
X101175000Y-137155000D01*
X101425000Y-137155000D01*
X101425000Y-137175000D01*
X102268750Y-137175000D01*
X102425000Y-137018750D01*
X102428024Y-136800000D01*
X102415957Y-136677479D01*
X102380219Y-136559666D01*
X102322183Y-136451089D01*
X102244080Y-136355920D01*
X102175941Y-136300000D01*
X102244080Y-136244080D01*
X102322183Y-136148911D01*
X102380219Y-136040334D01*
X102415957Y-135922521D01*
X102428024Y-135800000D01*
X102428024Y-134800000D01*
X102415957Y-134677479D01*
X102380219Y-134559666D01*
X102322183Y-134451089D01*
X102244080Y-134355920D01*
X102148911Y-134277817D01*
X102040334Y-134219781D01*
X101922521Y-134184043D01*
X101800000Y-134171976D01*
X100800000Y-134171976D01*
X100677479Y-134184043D01*
X100559666Y-134219781D01*
X100451089Y-134277817D01*
X100355920Y-134355920D01*
X100299228Y-134425000D01*
X100028024Y-134425000D01*
X100028024Y-133580000D01*
X100015957Y-133457479D01*
X99997004Y-133395000D01*
X100015957Y-133332521D01*
X100028024Y-133210000D01*
X100028024Y-132310000D01*
X100015957Y-132187479D01*
X99997004Y-132125000D01*
X100015957Y-132062521D01*
X100028024Y-131940000D01*
X100028024Y-131585192D01*
X119647151Y-131585192D01*
X119656326Y-131707964D01*
X119689276Y-131826587D01*
X119744736Y-131936502D01*
X119820573Y-132033486D01*
X119913873Y-132113811D01*
X120021052Y-132174391D01*
X120137989Y-132212897D01*
X120243750Y-132225000D01*
X120400000Y-132068750D01*
X120400000Y-131375000D01*
X119806250Y-131375000D01*
X119650000Y-131531250D01*
X119647151Y-131585192D01*
X100028024Y-131585192D01*
X100028024Y-131040000D01*
X100015957Y-130917479D01*
X100015147Y-130914808D01*
X119647151Y-130914808D01*
X119650000Y-130968750D01*
X119806250Y-131125000D01*
X120400000Y-131125000D01*
X120400000Y-130431250D01*
X120243750Y-130275000D01*
X120137989Y-130287103D01*
X120021052Y-130325609D01*
X119913873Y-130386189D01*
X119820573Y-130466514D01*
X119744736Y-130563498D01*
X119689276Y-130673413D01*
X119656326Y-130792036D01*
X119647151Y-130914808D01*
X100015147Y-130914808D01*
X99997004Y-130855000D01*
X100015957Y-130792521D01*
X100028024Y-130670000D01*
X100028024Y-129825000D01*
X122140130Y-129825000D01*
X122144781Y-129840334D01*
X122202817Y-129948911D01*
X122280920Y-130044080D01*
X122376089Y-130122183D01*
X122484666Y-130180219D01*
X122602479Y-130215957D01*
X122692261Y-130224800D01*
X122647637Y-130238336D01*
X122496918Y-130318896D01*
X122428556Y-130375000D01*
X122368641Y-130375000D01*
X122265334Y-130319781D01*
X122147521Y-130284043D01*
X122025000Y-130271976D01*
X121575000Y-130271976D01*
X121452479Y-130284043D01*
X121334666Y-130319781D01*
X121226089Y-130377817D01*
X121149454Y-130440709D01*
X121086127Y-130386189D01*
X120978948Y-130325609D01*
X120862011Y-130287103D01*
X120756250Y-130275000D01*
X120600000Y-130431250D01*
X120600000Y-131125000D01*
X120645000Y-131125000D01*
X120645000Y-131375000D01*
X120600000Y-131375000D01*
X120600000Y-132068750D01*
X120756250Y-132225000D01*
X120862011Y-132212897D01*
X120978948Y-132174391D01*
X121086127Y-132113811D01*
X121149454Y-132059291D01*
X121226089Y-132122183D01*
X121334666Y-132180219D01*
X121452479Y-132215957D01*
X121575000Y-132228024D01*
X122025000Y-132228024D01*
X122147521Y-132215957D01*
X122152920Y-132214319D01*
X122175836Y-132289863D01*
X122256396Y-132440582D01*
X122364813Y-132572687D01*
X122496918Y-132681104D01*
X122647637Y-132761664D01*
X122811175Y-132811273D01*
X122981250Y-132828024D01*
X123468750Y-132828024D01*
X123638825Y-132811273D01*
X123701976Y-132792116D01*
X123701976Y-133160588D01*
X123090336Y-133772228D01*
X123040582Y-133731396D01*
X122889863Y-133650836D01*
X122726325Y-133601227D01*
X122556250Y-133584476D01*
X122221912Y-133584476D01*
X122030461Y-133393025D01*
X122030461Y-133301561D01*
X122017800Y-133173009D01*
X122003024Y-133124300D01*
X122003024Y-132900000D01*
X121990957Y-132777479D01*
X121955219Y-132659666D01*
X121897183Y-132551089D01*
X121819080Y-132455920D01*
X121723911Y-132377817D01*
X121615334Y-132319781D01*
X121497521Y-132284043D01*
X121375000Y-132271976D01*
X120925000Y-132271976D01*
X120802479Y-132284043D01*
X120684666Y-132319781D01*
X120576089Y-132377817D01*
X120480920Y-132455920D01*
X120402817Y-132551089D01*
X120344781Y-132659666D01*
X120309043Y-132777479D01*
X120296976Y-132900000D01*
X120296976Y-133160304D01*
X120293122Y-133173009D01*
X120280461Y-133301560D01*
X120280461Y-133712482D01*
X120276228Y-133755461D01*
X120290997Y-133905410D01*
X120293122Y-133926990D01*
X120343156Y-134091928D01*
X120424405Y-134243936D01*
X120533749Y-134377173D01*
X120567141Y-134404577D01*
X120771976Y-134609412D01*
X120771976Y-134943750D01*
X120788727Y-135113825D01*
X120838336Y-135277363D01*
X120918896Y-135428082D01*
X121027313Y-135560187D01*
X121121518Y-135637500D01*
X121027313Y-135714813D01*
X120918896Y-135846918D01*
X120838336Y-135997637D01*
X120788727Y-136161175D01*
X120771976Y-136331250D01*
X120771976Y-136590587D01*
X118437564Y-138925000D01*
X89442978Y-138925000D01*
X89399999Y-138920767D01*
X89228469Y-138937661D01*
X89091875Y-138979097D01*
X89063532Y-138987695D01*
X88911524Y-139068944D01*
X88778288Y-139178288D01*
X88750890Y-139211673D01*
X85411676Y-142550888D01*
X85378289Y-142578288D01*
X85268945Y-142711524D01*
X85225516Y-142792774D01*
X85187695Y-142863533D01*
X85137661Y-143028471D01*
X85120767Y-143200000D01*
X85125001Y-143242989D01*
X85125001Y-144559655D01*
X85012196Y-144619950D01*
X84879143Y-144729143D01*
X84769950Y-144862196D01*
X84708597Y-144976980D01*
X84700873Y-144966409D01*
X84487831Y-144770539D01*
X84240670Y-144619995D01*
X83968889Y-144520562D01*
X83953372Y-144517955D01*
X83725000Y-144637188D01*
X83725000Y-145975000D01*
X83745000Y-145975000D01*
X83745000Y-146225000D01*
X83725000Y-146225000D01*
X83725000Y-147562812D01*
X83953372Y-147682045D01*
X83968889Y-147679438D01*
X84240670Y-147580005D01*
X84487831Y-147429461D01*
X84700873Y-147233591D01*
X84708597Y-147223020D01*
X84769950Y-147337804D01*
X84879143Y-147470857D01*
X85012196Y-147580050D01*
X85163995Y-147661188D01*
X85328706Y-147711153D01*
X85500000Y-147728024D01*
X86700000Y-147728024D01*
X86871294Y-147711153D01*
X87036005Y-147661188D01*
X87187804Y-147580050D01*
X87320857Y-147470857D01*
X87430050Y-147337804D01*
X87511188Y-147186005D01*
X87561153Y-147021294D01*
X87578024Y-146850000D01*
X87578024Y-145350000D01*
X87561153Y-145178706D01*
X87511188Y-145013995D01*
X87430050Y-144862196D01*
X87320857Y-144729143D01*
X87187804Y-144619950D01*
X87036005Y-144538812D01*
X86875000Y-144489971D01*
X86875000Y-143562436D01*
X88558540Y-141878896D01*
X88546613Y-142000000D01*
X88550000Y-142034390D01*
X88550001Y-149300248D01*
X81386441Y-149302783D01*
X80345080Y-147678577D01*
X79674026Y-146456214D01*
X82138204Y-146456214D01*
X82206522Y-146737434D01*
X82328391Y-146999922D01*
X82499127Y-147233591D01*
X82712169Y-147429461D01*
X82959330Y-147580005D01*
X83231111Y-147679438D01*
X83246628Y-147682045D01*
X83475000Y-147562812D01*
X83475000Y-146225000D01*
X82280192Y-146225000D01*
X82138204Y-146456214D01*
X79674026Y-146456214D01*
X79282916Y-145743786D01*
X82138204Y-145743786D01*
X82280192Y-145975000D01*
X83475000Y-145975000D01*
X83475000Y-144637188D01*
X83246628Y-144517955D01*
X83231111Y-144520562D01*
X82959330Y-144619995D01*
X82712169Y-144770539D01*
X82499127Y-144966409D01*
X82328391Y-145200078D01*
X82206522Y-145462566D01*
X82138204Y-145743786D01*
X79282916Y-145743786D01*
X79243818Y-145672567D01*
X78281539Y-143596290D01*
X77462716Y-141459390D01*
X77460153Y-141451040D01*
X77665917Y-141758989D01*
X77941011Y-142034083D01*
X78264487Y-142250222D01*
X78623914Y-142399102D01*
X79005479Y-142475000D01*
X79394521Y-142475000D01*
X79776086Y-142399102D01*
X80135513Y-142250222D01*
X80458989Y-142034083D01*
X80734083Y-141758989D01*
X80950222Y-141435513D01*
X81099102Y-141076086D01*
X81175000Y-140694521D01*
X81175000Y-140305479D01*
X81099102Y-139923914D01*
X80950222Y-139564487D01*
X80734083Y-139241011D01*
X80458989Y-138965917D01*
X80135513Y-138749778D01*
X79776086Y-138600898D01*
X79394521Y-138525000D01*
X79005479Y-138525000D01*
X78623914Y-138600898D01*
X78264487Y-138749778D01*
X77941011Y-138965917D01*
X77665917Y-139241011D01*
X77449778Y-139564487D01*
X77300898Y-139923914D01*
X77225000Y-140305479D01*
X77225000Y-140685046D01*
X76791127Y-139271735D01*
X76329897Y-137300000D01*
X83106976Y-137300000D01*
X83119043Y-137422521D01*
X83154781Y-137540334D01*
X83212817Y-137648911D01*
X83290920Y-137744080D01*
X83386089Y-137822183D01*
X83494666Y-137880219D01*
X83612479Y-137915957D01*
X83735000Y-137928024D01*
X83903750Y-137925000D01*
X84060000Y-137768750D01*
X84060000Y-136425000D01*
X83266250Y-136425000D01*
X83110000Y-136581250D01*
X83106976Y-137300000D01*
X76329897Y-137300000D01*
X76269889Y-137043471D01*
X75901412Y-134784910D01*
X75687406Y-132506531D01*
X75628861Y-130218847D01*
X75726047Y-127932510D01*
X75978516Y-125658050D01*
X76034476Y-125348095D01*
X76034476Y-125656250D01*
X76051227Y-125826325D01*
X76100836Y-125989863D01*
X76181396Y-126140582D01*
X76189125Y-126150000D01*
X76181396Y-126159418D01*
X76100836Y-126310137D01*
X76051227Y-126473675D01*
X76034476Y-126643750D01*
X76034476Y-127556250D01*
X76051227Y-127726325D01*
X76100836Y-127889863D01*
X76181396Y-128040582D01*
X76189125Y-128050000D01*
X76181396Y-128059418D01*
X76100836Y-128210137D01*
X76051227Y-128373675D01*
X76034476Y-128543750D01*
X76034476Y-129456250D01*
X76051227Y-129626325D01*
X76100836Y-129789863D01*
X76181396Y-129940582D01*
X76189125Y-129950000D01*
X76181396Y-129959418D01*
X76100836Y-130110137D01*
X76051227Y-130273675D01*
X76034476Y-130443750D01*
X76034476Y-131356250D01*
X76051227Y-131526325D01*
X76100836Y-131689863D01*
X76181396Y-131840582D01*
X76189125Y-131850000D01*
X76181396Y-131859418D01*
X76100836Y-132010137D01*
X76051227Y-132173675D01*
X76034476Y-132343750D01*
X76034476Y-133256250D01*
X76051227Y-133426325D01*
X76100836Y-133589863D01*
X76181396Y-133740582D01*
X76289813Y-133872687D01*
X76421918Y-133981104D01*
X76572637Y-134061664D01*
X76736175Y-134111273D01*
X76906250Y-134128024D01*
X77393750Y-134128024D01*
X77563825Y-134111273D01*
X77727363Y-134061664D01*
X77878082Y-133981104D01*
X78010187Y-133872687D01*
X78087500Y-133778482D01*
X78164813Y-133872687D01*
X78296918Y-133981104D01*
X78447637Y-134061664D01*
X78611175Y-134111273D01*
X78781250Y-134128024D01*
X79268750Y-134128024D01*
X79438825Y-134111273D01*
X79602363Y-134061664D01*
X79753082Y-133981104D01*
X79771976Y-133965598D01*
X79771976Y-134480000D01*
X79784043Y-134602521D01*
X79802996Y-134665000D01*
X79784043Y-134727479D01*
X79771976Y-134850000D01*
X79771976Y-135750000D01*
X79784043Y-135872521D01*
X79819781Y-135990334D01*
X79877817Y-136098911D01*
X79955920Y-136194080D01*
X80051089Y-136272183D01*
X80159666Y-136330219D01*
X80277479Y-136365957D01*
X80400000Y-136378024D01*
X82400000Y-136378024D01*
X82522521Y-136365957D01*
X82640334Y-136330219D01*
X82748911Y-136272183D01*
X82844080Y-136194080D01*
X82922183Y-136098911D01*
X82980219Y-135990334D01*
X83015957Y-135872521D01*
X83028024Y-135750000D01*
X83028024Y-135300000D01*
X83106976Y-135300000D01*
X83110000Y-136018750D01*
X83266250Y-136175000D01*
X84060000Y-136175000D01*
X84060000Y-134831250D01*
X84310000Y-134831250D01*
X84310000Y-136175000D01*
X84330000Y-136175000D01*
X84330000Y-136425000D01*
X84310000Y-136425000D01*
X84310000Y-137768750D01*
X84466250Y-137925000D01*
X84635000Y-137928024D01*
X84757521Y-137915957D01*
X84820000Y-137897004D01*
X84882479Y-137915957D01*
X85005000Y-137928024D01*
X85905000Y-137928024D01*
X86027521Y-137915957D01*
X86090000Y-137897004D01*
X86152479Y-137915957D01*
X86275000Y-137928024D01*
X87175000Y-137928024D01*
X87297521Y-137915957D01*
X87360000Y-137897004D01*
X87422479Y-137915957D01*
X87545000Y-137928024D01*
X88445000Y-137928024D01*
X88567521Y-137915957D01*
X88630000Y-137897004D01*
X88692479Y-137915957D01*
X88815000Y-137928024D01*
X89715000Y-137928024D01*
X89837521Y-137915957D01*
X89900000Y-137897004D01*
X89962479Y-137915957D01*
X90085000Y-137928024D01*
X90985000Y-137928024D01*
X91107521Y-137915957D01*
X91170000Y-137897004D01*
X91232479Y-137915957D01*
X91355000Y-137928024D01*
X92255000Y-137928024D01*
X92377521Y-137915957D01*
X92440000Y-137897004D01*
X92502479Y-137915957D01*
X92625000Y-137928024D01*
X93525000Y-137928024D01*
X93647521Y-137915957D01*
X93710000Y-137897004D01*
X93772479Y-137915957D01*
X93895000Y-137928024D01*
X94795000Y-137928024D01*
X94917521Y-137915957D01*
X94980000Y-137897004D01*
X95042479Y-137915957D01*
X95165000Y-137928024D01*
X96065000Y-137928024D01*
X96187521Y-137915957D01*
X96305334Y-137880219D01*
X96413911Y-137822183D01*
X96440941Y-137800000D01*
X100171976Y-137800000D01*
X100184043Y-137922521D01*
X100219781Y-138040334D01*
X100277817Y-138148911D01*
X100355920Y-138244080D01*
X100451089Y-138322183D01*
X100559666Y-138380219D01*
X100677479Y-138415957D01*
X100800000Y-138428024D01*
X101018750Y-138425000D01*
X101175000Y-138268750D01*
X101175000Y-137425000D01*
X101425000Y-137425000D01*
X101425000Y-138268750D01*
X101581250Y-138425000D01*
X101800000Y-138428024D01*
X101922521Y-138415957D01*
X102040334Y-138380219D01*
X102148911Y-138322183D01*
X102244080Y-138244080D01*
X102322183Y-138148911D01*
X102380219Y-138040334D01*
X102415957Y-137922521D01*
X102428024Y-137800000D01*
X102425000Y-137581250D01*
X102268750Y-137425000D01*
X101425000Y-137425000D01*
X101175000Y-137425000D01*
X100331250Y-137425000D01*
X100175000Y-137581250D01*
X100171976Y-137800000D01*
X96440941Y-137800000D01*
X96509080Y-137744080D01*
X96587183Y-137648911D01*
X96645219Y-137540334D01*
X96680957Y-137422521D01*
X96693024Y-137300000D01*
X96693024Y-135300000D01*
X96680957Y-135177479D01*
X96645219Y-135059666D01*
X96587183Y-134951089D01*
X96509080Y-134855920D01*
X96413911Y-134777817D01*
X96305334Y-134719781D01*
X96187521Y-134684043D01*
X96065000Y-134671976D01*
X95165000Y-134671976D01*
X95042479Y-134684043D01*
X94980000Y-134702996D01*
X94917521Y-134684043D01*
X94795000Y-134671976D01*
X93895000Y-134671976D01*
X93772479Y-134684043D01*
X93710000Y-134702996D01*
X93647521Y-134684043D01*
X93525000Y-134671976D01*
X92625000Y-134671976D01*
X92502479Y-134684043D01*
X92440000Y-134702996D01*
X92377521Y-134684043D01*
X92255000Y-134671976D01*
X91355000Y-134671976D01*
X91232479Y-134684043D01*
X91170000Y-134702996D01*
X91107521Y-134684043D01*
X90985000Y-134671976D01*
X90085000Y-134671976D01*
X89962479Y-134684043D01*
X89900000Y-134702996D01*
X89837521Y-134684043D01*
X89715000Y-134671976D01*
X88815000Y-134671976D01*
X88692479Y-134684043D01*
X88630000Y-134702996D01*
X88567521Y-134684043D01*
X88445000Y-134671976D01*
X87545000Y-134671976D01*
X87422479Y-134684043D01*
X87360000Y-134702996D01*
X87297521Y-134684043D01*
X87175000Y-134671976D01*
X86275000Y-134671976D01*
X86152479Y-134684043D01*
X86090000Y-134702996D01*
X86027521Y-134684043D01*
X85905000Y-134671976D01*
X85005000Y-134671976D01*
X84882479Y-134684043D01*
X84820000Y-134702996D01*
X84757521Y-134684043D01*
X84635000Y-134671976D01*
X84466250Y-134675000D01*
X84310000Y-134831250D01*
X84060000Y-134831250D01*
X83903750Y-134675000D01*
X83735000Y-134671976D01*
X83612479Y-134684043D01*
X83494666Y-134719781D01*
X83386089Y-134777817D01*
X83290920Y-134855920D01*
X83212817Y-134951089D01*
X83154781Y-135059666D01*
X83119043Y-135177479D01*
X83106976Y-135300000D01*
X83028024Y-135300000D01*
X83028024Y-134850000D01*
X83015957Y-134727479D01*
X82997004Y-134665000D01*
X83015957Y-134602521D01*
X83028024Y-134480000D01*
X83028024Y-133580000D01*
X83015957Y-133457479D01*
X82997004Y-133395000D01*
X83015957Y-133332521D01*
X83028024Y-133210000D01*
X83028024Y-132500873D01*
X83099046Y-132515000D01*
X83300954Y-132515000D01*
X83498982Y-132475610D01*
X83685520Y-132398344D01*
X83853400Y-132286170D01*
X83996170Y-132143400D01*
X84108344Y-131975520D01*
X84185610Y-131788982D01*
X84225000Y-131590954D01*
X84225000Y-131389046D01*
X84185610Y-131191018D01*
X84108344Y-131004480D01*
X84008465Y-130855000D01*
X84108344Y-130705520D01*
X84185610Y-130518982D01*
X84225000Y-130320954D01*
X84225000Y-130119046D01*
X84185610Y-129921018D01*
X84108344Y-129734480D01*
X84008465Y-129585000D01*
X84108344Y-129435520D01*
X84185610Y-129248982D01*
X84225000Y-129050954D01*
X84225000Y-128849046D01*
X84213256Y-128790000D01*
X85771976Y-128790000D01*
X85784043Y-128912521D01*
X85819781Y-129030334D01*
X85877817Y-129138911D01*
X85955920Y-129234080D01*
X86051089Y-129312183D01*
X86159666Y-129370219D01*
X86277479Y-129405957D01*
X86400000Y-129418024D01*
X88618750Y-129415000D01*
X88775000Y-129258750D01*
X88775000Y-126415000D01*
X89025000Y-126415000D01*
X89025000Y-129258750D01*
X89181250Y-129415000D01*
X91400000Y-129418024D01*
X91522521Y-129405957D01*
X91640334Y-129370219D01*
X91748911Y-129312183D01*
X91844080Y-129234080D01*
X91922183Y-129138911D01*
X91980219Y-129030334D01*
X92015957Y-128912521D01*
X92028024Y-128790000D01*
X92025000Y-126571250D01*
X91868750Y-126415000D01*
X89025000Y-126415000D01*
X88775000Y-126415000D01*
X85931250Y-126415000D01*
X85775000Y-126571250D01*
X85771976Y-128790000D01*
X84213256Y-128790000D01*
X84185610Y-128651018D01*
X84108344Y-128464480D01*
X84008465Y-128315000D01*
X84108344Y-128165520D01*
X84185610Y-127978982D01*
X84225000Y-127780954D01*
X84225000Y-127579046D01*
X84185610Y-127381018D01*
X84108344Y-127194480D01*
X84008465Y-127045000D01*
X84108344Y-126895520D01*
X84185610Y-126708982D01*
X84225000Y-126510954D01*
X84225000Y-126309046D01*
X84185610Y-126111018D01*
X84108344Y-125924480D01*
X83996170Y-125756600D01*
X83853400Y-125613830D01*
X83685520Y-125501656D01*
X83498982Y-125424390D01*
X83300954Y-125385000D01*
X83099046Y-125385000D01*
X83028024Y-125399127D01*
X83028024Y-124690000D01*
X83015957Y-124567479D01*
X82997004Y-124505000D01*
X83015957Y-124442521D01*
X83028024Y-124320000D01*
X83028024Y-123790000D01*
X85771976Y-123790000D01*
X85775000Y-126008750D01*
X85931250Y-126165000D01*
X88775000Y-126165000D01*
X88775000Y-123321250D01*
X89025000Y-123321250D01*
X89025000Y-126165000D01*
X91868750Y-126165000D01*
X92025000Y-126008750D01*
X92028024Y-123790000D01*
X92015957Y-123667479D01*
X91980219Y-123549666D01*
X91922183Y-123441089D01*
X91844080Y-123345920D01*
X91748911Y-123267817D01*
X91640334Y-123209781D01*
X91522521Y-123174043D01*
X91400000Y-123161976D01*
X89181250Y-123165000D01*
X89025000Y-123321250D01*
X88775000Y-123321250D01*
X88618750Y-123165000D01*
X86400000Y-123161976D01*
X86277479Y-123174043D01*
X86159666Y-123209781D01*
X86051089Y-123267817D01*
X85955920Y-123345920D01*
X85877817Y-123441089D01*
X85819781Y-123549666D01*
X85784043Y-123667479D01*
X85771976Y-123790000D01*
X83028024Y-123790000D01*
X83028024Y-123420000D01*
X83015957Y-123297479D01*
X82997004Y-123235000D01*
X83015957Y-123172521D01*
X83028024Y-123050000D01*
X83028024Y-122340873D01*
X83099046Y-122355000D01*
X83300954Y-122355000D01*
X83498982Y-122315610D01*
X83685520Y-122238344D01*
X83853400Y-122126170D01*
X83996170Y-121983400D01*
X84108344Y-121815520D01*
X84185610Y-121628982D01*
X84225000Y-121430954D01*
X84225000Y-121229046D01*
X84185610Y-121031018D01*
X84145838Y-120935000D01*
X94827019Y-120935000D01*
X94869998Y-120939233D01*
X94912977Y-120935000D01*
X95041528Y-120922339D01*
X95206466Y-120872305D01*
X95358474Y-120791056D01*
X95491710Y-120681712D01*
X95519115Y-120648319D01*
X96788900Y-119378534D01*
X96802996Y-119425000D01*
G37*
G04 #@! TD.AperFunction*
D20*
X131537500Y-128818750D02*
X131693750Y-128975000D01*
X132525000Y-128975000D01*
X132525000Y-128955000D01*
X132775000Y-128955000D01*
X132775000Y-128975000D01*
X132795000Y-128975000D01*
X132795000Y-129225000D01*
X132775000Y-129225000D01*
X132775000Y-130268750D01*
X132931250Y-130425000D01*
X133137500Y-130428024D01*
X133260021Y-130415957D01*
X133377834Y-130380219D01*
X133486411Y-130322183D01*
X133581580Y-130244080D01*
X133650000Y-130160709D01*
X133650001Y-130445362D01*
X133556396Y-130559418D01*
X133475836Y-130710137D01*
X133426227Y-130873675D01*
X133409476Y-131043750D01*
X133409476Y-131353088D01*
X133111676Y-131650888D01*
X133078289Y-131678288D01*
X132968945Y-131811524D01*
X132941146Y-131863533D01*
X132892319Y-131954883D01*
X132549117Y-131611681D01*
X132521712Y-131578288D01*
X132388476Y-131468944D01*
X132236468Y-131387695D01*
X132071530Y-131337661D01*
X131942979Y-131325000D01*
X131900000Y-131320767D01*
X131857021Y-131325000D01*
X130617976Y-131325000D01*
X130574997Y-131320767D01*
X130403467Y-131337661D01*
X130365078Y-131349306D01*
X130238530Y-131387695D01*
X130086522Y-131468944D01*
X129953286Y-131578288D01*
X129925881Y-131611681D01*
X129311681Y-132225881D01*
X129278288Y-132253286D01*
X129219845Y-132324500D01*
X129184080Y-132280920D01*
X129088911Y-132202817D01*
X128980334Y-132144781D01*
X128862521Y-132109043D01*
X128740000Y-132096976D01*
X128721250Y-132100000D01*
X128565000Y-132256250D01*
X128565000Y-133375000D01*
X128585000Y-133375000D01*
X128585000Y-133625000D01*
X128565000Y-133625000D01*
X128565000Y-134743750D01*
X128721250Y-134900000D01*
X128740000Y-134903024D01*
X128862521Y-134890957D01*
X128980334Y-134855219D01*
X129025001Y-134831344D01*
X129025001Y-135700000D01*
X126775000Y-135700000D01*
X126775000Y-134893668D01*
X126870000Y-134903024D01*
X127470000Y-134903024D01*
X127592521Y-134890957D01*
X127710334Y-134855219D01*
X127805000Y-134804619D01*
X127899666Y-134855219D01*
X128017479Y-134890957D01*
X128140000Y-134903024D01*
X128158750Y-134900000D01*
X128315000Y-134743750D01*
X128315000Y-133625000D01*
X128295000Y-133625000D01*
X128295000Y-133375000D01*
X128315000Y-133375000D01*
X128315000Y-132256250D01*
X128158750Y-132100000D01*
X128140000Y-132096976D01*
X128017479Y-132109043D01*
X127899666Y-132144781D01*
X127879672Y-132155468D01*
X127791712Y-132048288D01*
X127758325Y-132020888D01*
X126649116Y-130911680D01*
X126621712Y-130878288D01*
X126488476Y-130768944D01*
X126336468Y-130687695D01*
X126171530Y-130637661D01*
X126107030Y-130631308D01*
X126068604Y-130559418D01*
X125975000Y-130445362D01*
X125975000Y-130160710D01*
X126043420Y-130244080D01*
X126138589Y-130322183D01*
X126247166Y-130380219D01*
X126364979Y-130415957D01*
X126487500Y-130428024D01*
X126693750Y-130425000D01*
X126850000Y-130268750D01*
X126850000Y-129225000D01*
X127100000Y-129225000D01*
X127100000Y-130268750D01*
X127256250Y-130425000D01*
X127462500Y-130428024D01*
X127585021Y-130415957D01*
X127702834Y-130380219D01*
X127811411Y-130322183D01*
X127906580Y-130244080D01*
X127984683Y-130148911D01*
X128042719Y-130040334D01*
X128078457Y-129922521D01*
X128090524Y-129800000D01*
X131534476Y-129800000D01*
X131546543Y-129922521D01*
X131582281Y-130040334D01*
X131640317Y-130148911D01*
X131718420Y-130244080D01*
X131813589Y-130322183D01*
X131922166Y-130380219D01*
X132039979Y-130415957D01*
X132162500Y-130428024D01*
X132368750Y-130425000D01*
X132525000Y-130268750D01*
X132525000Y-129225000D01*
X131693750Y-129225000D01*
X131537500Y-129381250D01*
X131534476Y-129800000D01*
X128090524Y-129800000D01*
X128087500Y-129381250D01*
X127931250Y-129225000D01*
X127100000Y-129225000D01*
X126850000Y-129225000D01*
X126830000Y-129225000D01*
X126830000Y-128975000D01*
X126850000Y-128975000D01*
X126850000Y-128955000D01*
X127100000Y-128955000D01*
X127100000Y-128975000D01*
X127931250Y-128975000D01*
X128087500Y-128818750D01*
X128089405Y-128555000D01*
X131535595Y-128555000D01*
X131537500Y-128818750D01*
G04 #@! TA.AperFunction,Conductor*
D21*
G36*
X131537500Y-128818750D02*
G01*
X131693750Y-128975000D01*
X132525000Y-128975000D01*
X132525000Y-128955000D01*
X132775000Y-128955000D01*
X132775000Y-128975000D01*
X132795000Y-128975000D01*
X132795000Y-129225000D01*
X132775000Y-129225000D01*
X132775000Y-130268750D01*
X132931250Y-130425000D01*
X133137500Y-130428024D01*
X133260021Y-130415957D01*
X133377834Y-130380219D01*
X133486411Y-130322183D01*
X133581580Y-130244080D01*
X133650000Y-130160709D01*
X133650001Y-130445362D01*
X133556396Y-130559418D01*
X133475836Y-130710137D01*
X133426227Y-130873675D01*
X133409476Y-131043750D01*
X133409476Y-131353088D01*
X133111676Y-131650888D01*
X133078289Y-131678288D01*
X132968945Y-131811524D01*
X132941146Y-131863533D01*
X132892319Y-131954883D01*
X132549117Y-131611681D01*
X132521712Y-131578288D01*
X132388476Y-131468944D01*
X132236468Y-131387695D01*
X132071530Y-131337661D01*
X131942979Y-131325000D01*
X131900000Y-131320767D01*
X131857021Y-131325000D01*
X130617976Y-131325000D01*
X130574997Y-131320767D01*
X130403467Y-131337661D01*
X130365078Y-131349306D01*
X130238530Y-131387695D01*
X130086522Y-131468944D01*
X129953286Y-131578288D01*
X129925881Y-131611681D01*
X129311681Y-132225881D01*
X129278288Y-132253286D01*
X129219845Y-132324500D01*
X129184080Y-132280920D01*
X129088911Y-132202817D01*
X128980334Y-132144781D01*
X128862521Y-132109043D01*
X128740000Y-132096976D01*
X128721250Y-132100000D01*
X128565000Y-132256250D01*
X128565000Y-133375000D01*
X128585000Y-133375000D01*
X128585000Y-133625000D01*
X128565000Y-133625000D01*
X128565000Y-134743750D01*
X128721250Y-134900000D01*
X128740000Y-134903024D01*
X128862521Y-134890957D01*
X128980334Y-134855219D01*
X129025001Y-134831344D01*
X129025001Y-135700000D01*
X126775000Y-135700000D01*
X126775000Y-134893668D01*
X126870000Y-134903024D01*
X127470000Y-134903024D01*
X127592521Y-134890957D01*
X127710334Y-134855219D01*
X127805000Y-134804619D01*
X127899666Y-134855219D01*
X128017479Y-134890957D01*
X128140000Y-134903024D01*
X128158750Y-134900000D01*
X128315000Y-134743750D01*
X128315000Y-133625000D01*
X128295000Y-133625000D01*
X128295000Y-133375000D01*
X128315000Y-133375000D01*
X128315000Y-132256250D01*
X128158750Y-132100000D01*
X128140000Y-132096976D01*
X128017479Y-132109043D01*
X127899666Y-132144781D01*
X127879672Y-132155468D01*
X127791712Y-132048288D01*
X127758325Y-132020888D01*
X126649116Y-130911680D01*
X126621712Y-130878288D01*
X126488476Y-130768944D01*
X126336468Y-130687695D01*
X126171530Y-130637661D01*
X126107030Y-130631308D01*
X126068604Y-130559418D01*
X125975000Y-130445362D01*
X125975000Y-130160710D01*
X126043420Y-130244080D01*
X126138589Y-130322183D01*
X126247166Y-130380219D01*
X126364979Y-130415957D01*
X126487500Y-130428024D01*
X126693750Y-130425000D01*
X126850000Y-130268750D01*
X126850000Y-129225000D01*
X127100000Y-129225000D01*
X127100000Y-130268750D01*
X127256250Y-130425000D01*
X127462500Y-130428024D01*
X127585021Y-130415957D01*
X127702834Y-130380219D01*
X127811411Y-130322183D01*
X127906580Y-130244080D01*
X127984683Y-130148911D01*
X128042719Y-130040334D01*
X128078457Y-129922521D01*
X128090524Y-129800000D01*
X131534476Y-129800000D01*
X131546543Y-129922521D01*
X131582281Y-130040334D01*
X131640317Y-130148911D01*
X131718420Y-130244080D01*
X131813589Y-130322183D01*
X131922166Y-130380219D01*
X132039979Y-130415957D01*
X132162500Y-130428024D01*
X132368750Y-130425000D01*
X132525000Y-130268750D01*
X132525000Y-129225000D01*
X131693750Y-129225000D01*
X131537500Y-129381250D01*
X131534476Y-129800000D01*
X128090524Y-129800000D01*
X128087500Y-129381250D01*
X127931250Y-129225000D01*
X127100000Y-129225000D01*
X126850000Y-129225000D01*
X126830000Y-129225000D01*
X126830000Y-128975000D01*
X126850000Y-128975000D01*
X126850000Y-128955000D01*
X127100000Y-128955000D01*
X127100000Y-128975000D01*
X127931250Y-128975000D01*
X128087500Y-128818750D01*
X128089405Y-128555000D01*
X131535595Y-128555000D01*
X131537500Y-128818750D01*
G37*
G04 #@! TD.AperFunction*
D20*
X135986175Y-132811273D02*
X136156250Y-132828024D01*
X136485979Y-132828024D01*
X136611524Y-132931056D01*
X136763532Y-133012305D01*
X136928470Y-133062339D01*
X137057021Y-133075000D01*
X137057023Y-133075000D01*
X137099999Y-133079233D01*
X137142975Y-133075000D01*
X137588714Y-133075000D01*
X137587661Y-133078471D01*
X137577126Y-133185437D01*
X137178088Y-133584476D01*
X136943750Y-133584476D01*
X136773675Y-133601227D01*
X136610137Y-133650836D01*
X136459418Y-133731396D01*
X136327313Y-133839813D01*
X136218896Y-133971918D01*
X136138336Y-134122637D01*
X136088727Y-134286175D01*
X136086329Y-134310527D01*
X135894525Y-134310527D01*
X135898024Y-134275000D01*
X135895000Y-133781250D01*
X135738750Y-133625000D01*
X135095000Y-133625000D01*
X135095000Y-133645000D01*
X134845000Y-133645000D01*
X134845000Y-133625000D01*
X134825000Y-133625000D01*
X134825000Y-133375000D01*
X134845000Y-133375000D01*
X134845000Y-133355000D01*
X135095000Y-133355000D01*
X135095000Y-133375000D01*
X135738750Y-133375000D01*
X135895000Y-133218750D01*
X135897660Y-132784422D01*
X135986175Y-132811273D01*
G04 #@! TA.AperFunction,Conductor*
D21*
G36*
X135986175Y-132811273D02*
G01*
X136156250Y-132828024D01*
X136485979Y-132828024D01*
X136611524Y-132931056D01*
X136763532Y-133012305D01*
X136928470Y-133062339D01*
X137057021Y-133075000D01*
X137057023Y-133075000D01*
X137099999Y-133079233D01*
X137142975Y-133075000D01*
X137588714Y-133075000D01*
X137587661Y-133078471D01*
X137577126Y-133185437D01*
X137178088Y-133584476D01*
X136943750Y-133584476D01*
X136773675Y-133601227D01*
X136610137Y-133650836D01*
X136459418Y-133731396D01*
X136327313Y-133839813D01*
X136218896Y-133971918D01*
X136138336Y-134122637D01*
X136088727Y-134286175D01*
X136086329Y-134310527D01*
X135894525Y-134310527D01*
X135898024Y-134275000D01*
X135895000Y-133781250D01*
X135738750Y-133625000D01*
X135095000Y-133625000D01*
X135095000Y-133645000D01*
X134845000Y-133645000D01*
X134845000Y-133625000D01*
X134825000Y-133625000D01*
X134825000Y-133375000D01*
X134845000Y-133375000D01*
X134845000Y-133355000D01*
X135095000Y-133355000D01*
X135095000Y-133375000D01*
X135738750Y-133375000D01*
X135895000Y-133218750D01*
X135897660Y-132784422D01*
X135986175Y-132811273D01*
G37*
G04 #@! TD.AperFunction*
D20*
X101781191Y-99804795D02*
X101797407Y-99844330D01*
X101812586Y-99884287D01*
X101820563Y-99900786D01*
X102289839Y-100839896D01*
X102311726Y-100876609D01*
X102332639Y-100913875D01*
X102342967Y-100929014D01*
X102945899Y-101788445D01*
X102972969Y-101821516D01*
X102999163Y-101855284D01*
X103011614Y-101868730D01*
X103734955Y-102629603D01*
X103766619Y-102658313D01*
X103797515Y-102687836D01*
X103811817Y-102699294D01*
X104639677Y-103344892D01*
X104675241Y-103368609D01*
X104710157Y-103393238D01*
X104725991Y-103402453D01*
X104725996Y-103402456D01*
X104726001Y-103402458D01*
X105640187Y-103918597D01*
X105678869Y-103936798D01*
X105717038Y-103955994D01*
X105734064Y-103962769D01*
X105734070Y-103962771D01*
X106714505Y-104338115D01*
X106755438Y-104350394D01*
X106796041Y-104363743D01*
X106813878Y-104367926D01*
X106813882Y-104367927D01*
X106813885Y-104367927D01*
X107839033Y-104594231D01*
X107881348Y-104600327D01*
X107923461Y-104607525D01*
X107941725Y-104609026D01*
X108989066Y-104681318D01*
X109031801Y-104681093D01*
X109074531Y-104681987D01*
X109092816Y-104680773D01*
X110139338Y-104597463D01*
X110181563Y-104590925D01*
X110223962Y-104585493D01*
X110241865Y-104581589D01*
X110241871Y-104581587D01*
X111264580Y-104344509D01*
X111305369Y-104331803D01*
X111346507Y-104320162D01*
X111363638Y-104313654D01*
X112340075Y-103928012D01*
X112378574Y-103909399D01*
X112417502Y-103891822D01*
X112433477Y-103882856D01*
X112433484Y-103882853D01*
X112433490Y-103882849D01*
X113342194Y-103357120D01*
X113377528Y-103333015D01*
X113413421Y-103309883D01*
X113427894Y-103298657D01*
X113427902Y-103298651D01*
X113427908Y-103298645D01*
X114248922Y-102644377D01*
X114280299Y-102615320D01*
X114312384Y-102587131D01*
X114325045Y-102573882D01*
X114667968Y-102205479D01*
X119525000Y-102205479D01*
X119525000Y-102594521D01*
X119600898Y-102976086D01*
X119749778Y-103335513D01*
X119965917Y-103658989D01*
X120241011Y-103934083D01*
X120564487Y-104150222D01*
X120923914Y-104299102D01*
X121305479Y-104375000D01*
X121694521Y-104375000D01*
X122076086Y-104299102D01*
X122435513Y-104150222D01*
X122758989Y-103934083D01*
X123034083Y-103658989D01*
X123250222Y-103335513D01*
X123399102Y-102976086D01*
X123475000Y-102594521D01*
X123475000Y-102205479D01*
X123399102Y-101823914D01*
X123250222Y-101464487D01*
X123034083Y-101141011D01*
X122758989Y-100865917D01*
X122435513Y-100649778D01*
X122076086Y-100500898D01*
X121694521Y-100425000D01*
X121305479Y-100425000D01*
X120923914Y-100500898D01*
X120564487Y-100649778D01*
X120241011Y-100865917D01*
X119965917Y-101141011D01*
X119749778Y-101464487D01*
X119600898Y-101823914D01*
X119525000Y-102205479D01*
X114667968Y-102205479D01*
X115040339Y-101805441D01*
X115067062Y-101772083D01*
X115094644Y-101739443D01*
X115105207Y-101724468D01*
X115699062Y-100858739D01*
X115720572Y-100821779D01*
X115743014Y-100785440D01*
X115751248Y-100769068D01*
X115751249Y-100769067D01*
X115751251Y-100769061D01*
X116210617Y-99825071D01*
X116226424Y-99785348D01*
X116243253Y-99746080D01*
X116248977Y-99728671D01*
X116409840Y-99216877D01*
X121351334Y-99213291D01*
X123344011Y-100067900D01*
X125380965Y-101110860D01*
X127342251Y-102289940D01*
X129218785Y-103599677D01*
X131001904Y-105034023D01*
X132683333Y-106586324D01*
X134255288Y-108249394D01*
X135710495Y-110015536D01*
X137042201Y-111876557D01*
X138244249Y-113823851D01*
X139311062Y-115848379D01*
X139370873Y-115983437D01*
X133007339Y-109619902D01*
X133075000Y-109279747D01*
X133075000Y-108920253D01*
X133004866Y-108567667D01*
X132867294Y-108235539D01*
X132667570Y-107936631D01*
X132413369Y-107682430D01*
X132114461Y-107482706D01*
X131782333Y-107345134D01*
X131429747Y-107275000D01*
X131070253Y-107275000D01*
X130717667Y-107345134D01*
X130385539Y-107482706D01*
X130086631Y-107682430D01*
X129832430Y-107936631D01*
X129632706Y-108235539D01*
X129495134Y-108567667D01*
X129425000Y-108920253D01*
X129425000Y-109279747D01*
X129495134Y-109632333D01*
X129632706Y-109964461D01*
X129832430Y-110263369D01*
X130086631Y-110517570D01*
X130385539Y-110717294D01*
X130717667Y-110854866D01*
X131070253Y-110925000D01*
X131429747Y-110925000D01*
X131769902Y-110857339D01*
X139125000Y-118212437D01*
X139125001Y-130271976D01*
X138875000Y-130271976D01*
X138752479Y-130284043D01*
X138634666Y-130319781D01*
X138526089Y-130377817D01*
X138449454Y-130440709D01*
X138386127Y-130386189D01*
X138278948Y-130325609D01*
X138162011Y-130287103D01*
X138056250Y-130275000D01*
X137900000Y-130431250D01*
X137900000Y-131125000D01*
X137945000Y-131125000D01*
X137945000Y-131217563D01*
X137837564Y-131325000D01*
X137655000Y-131325000D01*
X137655000Y-131125000D01*
X137700000Y-131125000D01*
X137700000Y-130431250D01*
X137543750Y-130275000D01*
X137437989Y-130287103D01*
X137321052Y-130325609D01*
X137213873Y-130386189D01*
X137212021Y-130387784D01*
X137128082Y-130318896D01*
X136977363Y-130238336D01*
X136932739Y-130224800D01*
X137022521Y-130215957D01*
X137140334Y-130180219D01*
X137248911Y-130122183D01*
X137344080Y-130044080D01*
X137422183Y-129948911D01*
X137480219Y-129840334D01*
X137515957Y-129722521D01*
X137528024Y-129600000D01*
X137528024Y-128600000D01*
X137515957Y-128477479D01*
X137480219Y-128359666D01*
X137422183Y-128251089D01*
X137344080Y-128155920D01*
X137248911Y-128077817D01*
X137140334Y-128019781D01*
X137022521Y-127984043D01*
X136900000Y-127971976D01*
X135900000Y-127971976D01*
X135777479Y-127984043D01*
X135659666Y-128019781D01*
X135551089Y-128077817D01*
X135476722Y-128138848D01*
X135385187Y-128027313D01*
X135253082Y-127918896D01*
X135102363Y-127838336D01*
X134938825Y-127788727D01*
X134768750Y-127771976D01*
X134281250Y-127771976D01*
X134244188Y-127775626D01*
X133560243Y-127091681D01*
X133532838Y-127058288D01*
X133399602Y-126948944D01*
X133247594Y-126867695D01*
X133082656Y-126817661D01*
X132954105Y-126805000D01*
X132911126Y-126800767D01*
X132868147Y-126805000D01*
X100028024Y-126805000D01*
X100028024Y-125960000D01*
X100015957Y-125837479D01*
X99997004Y-125775000D01*
X100015957Y-125712521D01*
X100028024Y-125590000D01*
X100028024Y-124775000D01*
X100171976Y-124775000D01*
X100171976Y-125100000D01*
X100184043Y-125222521D01*
X100219781Y-125340334D01*
X100277817Y-125448911D01*
X100355920Y-125544080D01*
X100451089Y-125622183D01*
X100559666Y-125680219D01*
X100677479Y-125715957D01*
X100800000Y-125728024D01*
X101800000Y-125728024D01*
X101922521Y-125715957D01*
X102040334Y-125680219D01*
X102148911Y-125622183D01*
X102244080Y-125544080D01*
X102295586Y-125481319D01*
X105055457Y-125481319D01*
X105175736Y-125763622D01*
X105497553Y-125923840D01*
X105844443Y-126018196D01*
X106203075Y-126043063D01*
X106559669Y-125997486D01*
X106900518Y-125883218D01*
X107124264Y-125763622D01*
X107244543Y-125481319D01*
X130155457Y-125481319D01*
X130275736Y-125763622D01*
X130597553Y-125923840D01*
X130944443Y-126018196D01*
X131303075Y-126043063D01*
X131659669Y-125997486D01*
X132000518Y-125883218D01*
X132224264Y-125763622D01*
X132344543Y-125481319D01*
X131250000Y-124386777D01*
X130155457Y-125481319D01*
X107244543Y-125481319D01*
X106150000Y-124386777D01*
X105055457Y-125481319D01*
X102295586Y-125481319D01*
X102322183Y-125448911D01*
X102380219Y-125340334D01*
X102415957Y-125222521D01*
X102428024Y-125100000D01*
X102428024Y-124263075D01*
X104316937Y-124263075D01*
X104362514Y-124619669D01*
X104476782Y-124960518D01*
X104596378Y-125184264D01*
X104878681Y-125304543D01*
X105973223Y-124210000D01*
X106326777Y-124210000D01*
X107421319Y-125304543D01*
X107703622Y-125184264D01*
X107863840Y-124862447D01*
X107958196Y-124515557D01*
X107975702Y-124263075D01*
X129416937Y-124263075D01*
X129462514Y-124619669D01*
X129576782Y-124960518D01*
X129696378Y-125184264D01*
X129978681Y-125304543D01*
X131073223Y-124210000D01*
X131426777Y-124210000D01*
X132521319Y-125304543D01*
X132803622Y-125184264D01*
X132963840Y-124862447D01*
X133058196Y-124515557D01*
X133083063Y-124156925D01*
X133037486Y-123800331D01*
X132923218Y-123459482D01*
X132803622Y-123235736D01*
X132521319Y-123115457D01*
X131426777Y-124210000D01*
X131073223Y-124210000D01*
X129978681Y-123115457D01*
X129696378Y-123235736D01*
X129536160Y-123557553D01*
X129441804Y-123904443D01*
X129416937Y-124263075D01*
X107975702Y-124263075D01*
X107983063Y-124156925D01*
X107937486Y-123800331D01*
X107823218Y-123459482D01*
X107703622Y-123235736D01*
X107421319Y-123115457D01*
X106326777Y-124210000D01*
X105973223Y-124210000D01*
X104878681Y-123115457D01*
X104596378Y-123235736D01*
X104436160Y-123557553D01*
X104341804Y-123904443D01*
X104316937Y-124263075D01*
X102428024Y-124263075D01*
X102428024Y-124100000D01*
X102415957Y-123977479D01*
X102380219Y-123859666D01*
X102322183Y-123751089D01*
X102244080Y-123655920D01*
X102175941Y-123600000D01*
X102244080Y-123544080D01*
X102322183Y-123448911D01*
X102380219Y-123340334D01*
X102415957Y-123222521D01*
X102428024Y-123100000D01*
X102428024Y-122938681D01*
X105055457Y-122938681D01*
X106150000Y-124033223D01*
X107244543Y-122938681D01*
X130155457Y-122938681D01*
X131250000Y-124033223D01*
X132344543Y-122938681D01*
X132224264Y-122656378D01*
X131902447Y-122496160D01*
X131555557Y-122401804D01*
X131196925Y-122376937D01*
X130840331Y-122422514D01*
X130499482Y-122536782D01*
X130275736Y-122656378D01*
X130155457Y-122938681D01*
X107244543Y-122938681D01*
X107124264Y-122656378D01*
X106802447Y-122496160D01*
X106455557Y-122401804D01*
X106096925Y-122376937D01*
X105740331Y-122422514D01*
X105399482Y-122536782D01*
X105175736Y-122656378D01*
X105055457Y-122938681D01*
X102428024Y-122938681D01*
X102428024Y-122100000D01*
X102415957Y-121977479D01*
X102380219Y-121859666D01*
X102322183Y-121751089D01*
X102244080Y-121655920D01*
X102175941Y-121600000D01*
X102244080Y-121544080D01*
X102300772Y-121475000D01*
X102457021Y-121475000D01*
X102500000Y-121479233D01*
X102542979Y-121475000D01*
X102671530Y-121462339D01*
X102836468Y-121412305D01*
X102988476Y-121331056D01*
X103121712Y-121221712D01*
X103149117Y-121188319D01*
X106688325Y-117649112D01*
X106721712Y-117621712D01*
X106831056Y-117488476D01*
X106912305Y-117336468D01*
X106962339Y-117171530D01*
X106979233Y-117000000D01*
X106975000Y-116957021D01*
X106975000Y-110733639D01*
X107014461Y-110717294D01*
X107313369Y-110517570D01*
X107567570Y-110263369D01*
X107767294Y-109964461D01*
X107904866Y-109632333D01*
X107975000Y-109279747D01*
X107975000Y-108920253D01*
X107904866Y-108567667D01*
X107767294Y-108235539D01*
X107567570Y-107936631D01*
X107313369Y-107682430D01*
X107014461Y-107482706D01*
X106682333Y-107345134D01*
X106329747Y-107275000D01*
X105970253Y-107275000D01*
X105617667Y-107345134D01*
X105285539Y-107482706D01*
X104986631Y-107682430D01*
X104732430Y-107936631D01*
X104532706Y-108235539D01*
X104395134Y-108567667D01*
X104325000Y-108920253D01*
X104325000Y-106100000D01*
X104322598Y-106075614D01*
X104315485Y-106052165D01*
X104303934Y-106030554D01*
X104288388Y-106011612D01*
X104269446Y-105996066D01*
X104247835Y-105984515D01*
X104224386Y-105977402D01*
X104200000Y-105975000D01*
X86262863Y-105975000D01*
X86443022Y-105796929D01*
X88176228Y-104302662D01*
X90007057Y-102929735D01*
X91123765Y-102205479D01*
X94525000Y-102205479D01*
X94525000Y-102594521D01*
X94600898Y-102976086D01*
X94749778Y-103335513D01*
X94965917Y-103658989D01*
X95241011Y-103934083D01*
X95564487Y-104150222D01*
X95923914Y-104299102D01*
X96305479Y-104375000D01*
X96694521Y-104375000D01*
X97076086Y-104299102D01*
X97435513Y-104150222D01*
X97758989Y-103934083D01*
X98034083Y-103658989D01*
X98250222Y-103335513D01*
X98399102Y-102976086D01*
X98475000Y-102594521D01*
X98475000Y-102205479D01*
X98399102Y-101823914D01*
X98250222Y-101464487D01*
X98034083Y-101141011D01*
X97758989Y-100865917D01*
X97435513Y-100649778D01*
X97076086Y-100500898D01*
X96694521Y-100425000D01*
X96305479Y-100425000D01*
X95923914Y-100500898D01*
X95564487Y-100649778D01*
X95241011Y-100865917D01*
X94965917Y-101141011D01*
X94749778Y-101464487D01*
X94600898Y-101823914D01*
X94525000Y-102205479D01*
X91123765Y-102205479D01*
X91927025Y-101684514D01*
X93927243Y-100572761D01*
X96003858Y-99597086D01*
X96939235Y-99214535D01*
X101584554Y-99201454D01*
X101781191Y-99804795D01*
G04 #@! TA.AperFunction,Conductor*
D21*
G36*
X101781191Y-99804795D02*
G01*
X101797407Y-99844330D01*
X101812586Y-99884287D01*
X101820563Y-99900786D01*
X102289839Y-100839896D01*
X102311726Y-100876609D01*
X102332639Y-100913875D01*
X102342967Y-100929014D01*
X102945899Y-101788445D01*
X102972969Y-101821516D01*
X102999163Y-101855284D01*
X103011614Y-101868730D01*
X103734955Y-102629603D01*
X103766619Y-102658313D01*
X103797515Y-102687836D01*
X103811817Y-102699294D01*
X104639677Y-103344892D01*
X104675241Y-103368609D01*
X104710157Y-103393238D01*
X104725991Y-103402453D01*
X104725996Y-103402456D01*
X104726001Y-103402458D01*
X105640187Y-103918597D01*
X105678869Y-103936798D01*
X105717038Y-103955994D01*
X105734064Y-103962769D01*
X105734070Y-103962771D01*
X106714505Y-104338115D01*
X106755438Y-104350394D01*
X106796041Y-104363743D01*
X106813878Y-104367926D01*
X106813882Y-104367927D01*
X106813885Y-104367927D01*
X107839033Y-104594231D01*
X107881348Y-104600327D01*
X107923461Y-104607525D01*
X107941725Y-104609026D01*
X108989066Y-104681318D01*
X109031801Y-104681093D01*
X109074531Y-104681987D01*
X109092816Y-104680773D01*
X110139338Y-104597463D01*
X110181563Y-104590925D01*
X110223962Y-104585493D01*
X110241865Y-104581589D01*
X110241871Y-104581587D01*
X111264580Y-104344509D01*
X111305369Y-104331803D01*
X111346507Y-104320162D01*
X111363638Y-104313654D01*
X112340075Y-103928012D01*
X112378574Y-103909399D01*
X112417502Y-103891822D01*
X112433477Y-103882856D01*
X112433484Y-103882853D01*
X112433490Y-103882849D01*
X113342194Y-103357120D01*
X113377528Y-103333015D01*
X113413421Y-103309883D01*
X113427894Y-103298657D01*
X113427902Y-103298651D01*
X113427908Y-103298645D01*
X114248922Y-102644377D01*
X114280299Y-102615320D01*
X114312384Y-102587131D01*
X114325045Y-102573882D01*
X114667968Y-102205479D01*
X119525000Y-102205479D01*
X119525000Y-102594521D01*
X119600898Y-102976086D01*
X119749778Y-103335513D01*
X119965917Y-103658989D01*
X120241011Y-103934083D01*
X120564487Y-104150222D01*
X120923914Y-104299102D01*
X121305479Y-104375000D01*
X121694521Y-104375000D01*
X122076086Y-104299102D01*
X122435513Y-104150222D01*
X122758989Y-103934083D01*
X123034083Y-103658989D01*
X123250222Y-103335513D01*
X123399102Y-102976086D01*
X123475000Y-102594521D01*
X123475000Y-102205479D01*
X123399102Y-101823914D01*
X123250222Y-101464487D01*
X123034083Y-101141011D01*
X122758989Y-100865917D01*
X122435513Y-100649778D01*
X122076086Y-100500898D01*
X121694521Y-100425000D01*
X121305479Y-100425000D01*
X120923914Y-100500898D01*
X120564487Y-100649778D01*
X120241011Y-100865917D01*
X119965917Y-101141011D01*
X119749778Y-101464487D01*
X119600898Y-101823914D01*
X119525000Y-102205479D01*
X114667968Y-102205479D01*
X115040339Y-101805441D01*
X115067062Y-101772083D01*
X115094644Y-101739443D01*
X115105207Y-101724468D01*
X115699062Y-100858739D01*
X115720572Y-100821779D01*
X115743014Y-100785440D01*
X115751248Y-100769068D01*
X115751249Y-100769067D01*
X115751251Y-100769061D01*
X116210617Y-99825071D01*
X116226424Y-99785348D01*
X116243253Y-99746080D01*
X116248977Y-99728671D01*
X116409840Y-99216877D01*
X121351334Y-99213291D01*
X123344011Y-100067900D01*
X125380965Y-101110860D01*
X127342251Y-102289940D01*
X129218785Y-103599677D01*
X131001904Y-105034023D01*
X132683333Y-106586324D01*
X134255288Y-108249394D01*
X135710495Y-110015536D01*
X137042201Y-111876557D01*
X138244249Y-113823851D01*
X139311062Y-115848379D01*
X139370873Y-115983437D01*
X133007339Y-109619902D01*
X133075000Y-109279747D01*
X133075000Y-108920253D01*
X133004866Y-108567667D01*
X132867294Y-108235539D01*
X132667570Y-107936631D01*
X132413369Y-107682430D01*
X132114461Y-107482706D01*
X131782333Y-107345134D01*
X131429747Y-107275000D01*
X131070253Y-107275000D01*
X130717667Y-107345134D01*
X130385539Y-107482706D01*
X130086631Y-107682430D01*
X129832430Y-107936631D01*
X129632706Y-108235539D01*
X129495134Y-108567667D01*
X129425000Y-108920253D01*
X129425000Y-109279747D01*
X129495134Y-109632333D01*
X129632706Y-109964461D01*
X129832430Y-110263369D01*
X130086631Y-110517570D01*
X130385539Y-110717294D01*
X130717667Y-110854866D01*
X131070253Y-110925000D01*
X131429747Y-110925000D01*
X131769902Y-110857339D01*
X139125000Y-118212437D01*
X139125001Y-130271976D01*
X138875000Y-130271976D01*
X138752479Y-130284043D01*
X138634666Y-130319781D01*
X138526089Y-130377817D01*
X138449454Y-130440709D01*
X138386127Y-130386189D01*
X138278948Y-130325609D01*
X138162011Y-130287103D01*
X138056250Y-130275000D01*
X137900000Y-130431250D01*
X137900000Y-131125000D01*
X137945000Y-131125000D01*
X137945000Y-131217563D01*
X137837564Y-131325000D01*
X137655000Y-131325000D01*
X137655000Y-131125000D01*
X137700000Y-131125000D01*
X137700000Y-130431250D01*
X137543750Y-130275000D01*
X137437989Y-130287103D01*
X137321052Y-130325609D01*
X137213873Y-130386189D01*
X137212021Y-130387784D01*
X137128082Y-130318896D01*
X136977363Y-130238336D01*
X136932739Y-130224800D01*
X137022521Y-130215957D01*
X137140334Y-130180219D01*
X137248911Y-130122183D01*
X137344080Y-130044080D01*
X137422183Y-129948911D01*
X137480219Y-129840334D01*
X137515957Y-129722521D01*
X137528024Y-129600000D01*
X137528024Y-128600000D01*
X137515957Y-128477479D01*
X137480219Y-128359666D01*
X137422183Y-128251089D01*
X137344080Y-128155920D01*
X137248911Y-128077817D01*
X137140334Y-128019781D01*
X137022521Y-127984043D01*
X136900000Y-127971976D01*
X135900000Y-127971976D01*
X135777479Y-127984043D01*
X135659666Y-128019781D01*
X135551089Y-128077817D01*
X135476722Y-128138848D01*
X135385187Y-128027313D01*
X135253082Y-127918896D01*
X135102363Y-127838336D01*
X134938825Y-127788727D01*
X134768750Y-127771976D01*
X134281250Y-127771976D01*
X134244188Y-127775626D01*
X133560243Y-127091681D01*
X133532838Y-127058288D01*
X133399602Y-126948944D01*
X133247594Y-126867695D01*
X133082656Y-126817661D01*
X132954105Y-126805000D01*
X132911126Y-126800767D01*
X132868147Y-126805000D01*
X100028024Y-126805000D01*
X100028024Y-125960000D01*
X100015957Y-125837479D01*
X99997004Y-125775000D01*
X100015957Y-125712521D01*
X100028024Y-125590000D01*
X100028024Y-124775000D01*
X100171976Y-124775000D01*
X100171976Y-125100000D01*
X100184043Y-125222521D01*
X100219781Y-125340334D01*
X100277817Y-125448911D01*
X100355920Y-125544080D01*
X100451089Y-125622183D01*
X100559666Y-125680219D01*
X100677479Y-125715957D01*
X100800000Y-125728024D01*
X101800000Y-125728024D01*
X101922521Y-125715957D01*
X102040334Y-125680219D01*
X102148911Y-125622183D01*
X102244080Y-125544080D01*
X102295586Y-125481319D01*
X105055457Y-125481319D01*
X105175736Y-125763622D01*
X105497553Y-125923840D01*
X105844443Y-126018196D01*
X106203075Y-126043063D01*
X106559669Y-125997486D01*
X106900518Y-125883218D01*
X107124264Y-125763622D01*
X107244543Y-125481319D01*
X130155457Y-125481319D01*
X130275736Y-125763622D01*
X130597553Y-125923840D01*
X130944443Y-126018196D01*
X131303075Y-126043063D01*
X131659669Y-125997486D01*
X132000518Y-125883218D01*
X132224264Y-125763622D01*
X132344543Y-125481319D01*
X131250000Y-124386777D01*
X130155457Y-125481319D01*
X107244543Y-125481319D01*
X106150000Y-124386777D01*
X105055457Y-125481319D01*
X102295586Y-125481319D01*
X102322183Y-125448911D01*
X102380219Y-125340334D01*
X102415957Y-125222521D01*
X102428024Y-125100000D01*
X102428024Y-124263075D01*
X104316937Y-124263075D01*
X104362514Y-124619669D01*
X104476782Y-124960518D01*
X104596378Y-125184264D01*
X104878681Y-125304543D01*
X105973223Y-124210000D01*
X106326777Y-124210000D01*
X107421319Y-125304543D01*
X107703622Y-125184264D01*
X107863840Y-124862447D01*
X107958196Y-124515557D01*
X107975702Y-124263075D01*
X129416937Y-124263075D01*
X129462514Y-124619669D01*
X129576782Y-124960518D01*
X129696378Y-125184264D01*
X129978681Y-125304543D01*
X131073223Y-124210000D01*
X131426777Y-124210000D01*
X132521319Y-125304543D01*
X132803622Y-125184264D01*
X132963840Y-124862447D01*
X133058196Y-124515557D01*
X133083063Y-124156925D01*
X133037486Y-123800331D01*
X132923218Y-123459482D01*
X132803622Y-123235736D01*
X132521319Y-123115457D01*
X131426777Y-124210000D01*
X131073223Y-124210000D01*
X129978681Y-123115457D01*
X129696378Y-123235736D01*
X129536160Y-123557553D01*
X129441804Y-123904443D01*
X129416937Y-124263075D01*
X107975702Y-124263075D01*
X107983063Y-124156925D01*
X107937486Y-123800331D01*
X107823218Y-123459482D01*
X107703622Y-123235736D01*
X107421319Y-123115457D01*
X106326777Y-124210000D01*
X105973223Y-124210000D01*
X104878681Y-123115457D01*
X104596378Y-123235736D01*
X104436160Y-123557553D01*
X104341804Y-123904443D01*
X104316937Y-124263075D01*
X102428024Y-124263075D01*
X102428024Y-124100000D01*
X102415957Y-123977479D01*
X102380219Y-123859666D01*
X102322183Y-123751089D01*
X102244080Y-123655920D01*
X102175941Y-123600000D01*
X102244080Y-123544080D01*
X102322183Y-123448911D01*
X102380219Y-123340334D01*
X102415957Y-123222521D01*
X102428024Y-123100000D01*
X102428024Y-122938681D01*
X105055457Y-122938681D01*
X106150000Y-124033223D01*
X107244543Y-122938681D01*
X130155457Y-122938681D01*
X131250000Y-124033223D01*
X132344543Y-122938681D01*
X132224264Y-122656378D01*
X131902447Y-122496160D01*
X131555557Y-122401804D01*
X131196925Y-122376937D01*
X130840331Y-122422514D01*
X130499482Y-122536782D01*
X130275736Y-122656378D01*
X130155457Y-122938681D01*
X107244543Y-122938681D01*
X107124264Y-122656378D01*
X106802447Y-122496160D01*
X106455557Y-122401804D01*
X106096925Y-122376937D01*
X105740331Y-122422514D01*
X105399482Y-122536782D01*
X105175736Y-122656378D01*
X105055457Y-122938681D01*
X102428024Y-122938681D01*
X102428024Y-122100000D01*
X102415957Y-121977479D01*
X102380219Y-121859666D01*
X102322183Y-121751089D01*
X102244080Y-121655920D01*
X102175941Y-121600000D01*
X102244080Y-121544080D01*
X102300772Y-121475000D01*
X102457021Y-121475000D01*
X102500000Y-121479233D01*
X102542979Y-121475000D01*
X102671530Y-121462339D01*
X102836468Y-121412305D01*
X102988476Y-121331056D01*
X103121712Y-121221712D01*
X103149117Y-121188319D01*
X106688325Y-117649112D01*
X106721712Y-117621712D01*
X106831056Y-117488476D01*
X106912305Y-117336468D01*
X106962339Y-117171530D01*
X106979233Y-117000000D01*
X106975000Y-116957021D01*
X106975000Y-110733639D01*
X107014461Y-110717294D01*
X107313369Y-110517570D01*
X107567570Y-110263369D01*
X107767294Y-109964461D01*
X107904866Y-109632333D01*
X107975000Y-109279747D01*
X107975000Y-108920253D01*
X107904866Y-108567667D01*
X107767294Y-108235539D01*
X107567570Y-107936631D01*
X107313369Y-107682430D01*
X107014461Y-107482706D01*
X106682333Y-107345134D01*
X106329747Y-107275000D01*
X105970253Y-107275000D01*
X105617667Y-107345134D01*
X105285539Y-107482706D01*
X104986631Y-107682430D01*
X104732430Y-107936631D01*
X104532706Y-108235539D01*
X104395134Y-108567667D01*
X104325000Y-108920253D01*
X104325000Y-106100000D01*
X104322598Y-106075614D01*
X104315485Y-106052165D01*
X104303934Y-106030554D01*
X104288388Y-106011612D01*
X104269446Y-105996066D01*
X104247835Y-105984515D01*
X104224386Y-105977402D01*
X104200000Y-105975000D01*
X86262863Y-105975000D01*
X86443022Y-105796929D01*
X88176228Y-104302662D01*
X90007057Y-102929735D01*
X91123765Y-102205479D01*
X94525000Y-102205479D01*
X94525000Y-102594521D01*
X94600898Y-102976086D01*
X94749778Y-103335513D01*
X94965917Y-103658989D01*
X95241011Y-103934083D01*
X95564487Y-104150222D01*
X95923914Y-104299102D01*
X96305479Y-104375000D01*
X96694521Y-104375000D01*
X97076086Y-104299102D01*
X97435513Y-104150222D01*
X97758989Y-103934083D01*
X98034083Y-103658989D01*
X98250222Y-103335513D01*
X98399102Y-102976086D01*
X98475000Y-102594521D01*
X98475000Y-102205479D01*
X98399102Y-101823914D01*
X98250222Y-101464487D01*
X98034083Y-101141011D01*
X97758989Y-100865917D01*
X97435513Y-100649778D01*
X97076086Y-100500898D01*
X96694521Y-100425000D01*
X96305479Y-100425000D01*
X95923914Y-100500898D01*
X95564487Y-100649778D01*
X95241011Y-100865917D01*
X94965917Y-101141011D01*
X94749778Y-101464487D01*
X94600898Y-101823914D01*
X94525000Y-102205479D01*
X91123765Y-102205479D01*
X91927025Y-101684514D01*
X93927243Y-100572761D01*
X96003858Y-99597086D01*
X96939235Y-99214535D01*
X101584554Y-99201454D01*
X101781191Y-99804795D01*
G37*
G04 #@! TD.AperFunction*
D20*
X100184043Y-117977479D02*
X100171976Y-118100000D01*
X100175000Y-118318750D01*
X100331250Y-118475000D01*
X101175000Y-118475000D01*
X101175000Y-118455000D01*
X101425000Y-118455000D01*
X101425000Y-118475000D01*
X102268750Y-118475000D01*
X102425000Y-118318750D01*
X102428024Y-118100000D01*
X102415957Y-117977479D01*
X102384870Y-117875000D01*
X103987563Y-117875000D01*
X102223518Y-119639046D01*
X102175941Y-119600000D01*
X102244080Y-119544080D01*
X102322183Y-119448911D01*
X102380219Y-119340334D01*
X102415957Y-119222521D01*
X102428024Y-119100000D01*
X102425000Y-118881250D01*
X102268750Y-118725000D01*
X101425000Y-118725000D01*
X101425000Y-118745000D01*
X101175000Y-118745000D01*
X101175000Y-118725000D01*
X100331250Y-118725000D01*
X100175000Y-118881250D01*
X100171976Y-119100000D01*
X100184043Y-119222521D01*
X100219781Y-119340334D01*
X100277817Y-119448911D01*
X100355920Y-119544080D01*
X100424059Y-119600000D01*
X100355920Y-119655920D01*
X100277817Y-119751089D01*
X100219781Y-119859666D01*
X100184043Y-119977479D01*
X100171976Y-120100000D01*
X100171976Y-121100000D01*
X100184043Y-121222521D01*
X100219781Y-121340334D01*
X100277817Y-121448911D01*
X100355920Y-121544080D01*
X100424059Y-121600000D01*
X100355920Y-121655920D01*
X100299228Y-121725000D01*
X100028024Y-121725000D01*
X100028024Y-120880000D01*
X100015957Y-120757479D01*
X99997004Y-120695000D01*
X100015957Y-120632521D01*
X100028024Y-120510000D01*
X100028024Y-119610000D01*
X100015957Y-119487479D01*
X99997004Y-119425000D01*
X100015957Y-119362521D01*
X100028024Y-119240000D01*
X100025000Y-119071250D01*
X99868750Y-118915000D01*
X98525000Y-118915000D01*
X98525000Y-118935000D01*
X98275000Y-118935000D01*
X98275000Y-118915000D01*
X98255000Y-118915000D01*
X98255000Y-118665000D01*
X98275000Y-118665000D01*
X98275000Y-118645000D01*
X98525000Y-118645000D01*
X98525000Y-118665000D01*
X99868750Y-118665000D01*
X100025000Y-118508750D01*
X100028024Y-118340000D01*
X100015957Y-118217479D01*
X99980219Y-118099666D01*
X99922183Y-117991089D01*
X99844080Y-117895920D01*
X99818589Y-117875000D01*
X100215130Y-117875000D01*
X100184043Y-117977479D01*
G04 #@! TA.AperFunction,Conductor*
D21*
G36*
X100184043Y-117977479D02*
G01*
X100171976Y-118100000D01*
X100175000Y-118318750D01*
X100331250Y-118475000D01*
X101175000Y-118475000D01*
X101175000Y-118455000D01*
X101425000Y-118455000D01*
X101425000Y-118475000D01*
X102268750Y-118475000D01*
X102425000Y-118318750D01*
X102428024Y-118100000D01*
X102415957Y-117977479D01*
X102384870Y-117875000D01*
X103987563Y-117875000D01*
X102223518Y-119639046D01*
X102175941Y-119600000D01*
X102244080Y-119544080D01*
X102322183Y-119448911D01*
X102380219Y-119340334D01*
X102415957Y-119222521D01*
X102428024Y-119100000D01*
X102425000Y-118881250D01*
X102268750Y-118725000D01*
X101425000Y-118725000D01*
X101425000Y-118745000D01*
X101175000Y-118745000D01*
X101175000Y-118725000D01*
X100331250Y-118725000D01*
X100175000Y-118881250D01*
X100171976Y-119100000D01*
X100184043Y-119222521D01*
X100219781Y-119340334D01*
X100277817Y-119448911D01*
X100355920Y-119544080D01*
X100424059Y-119600000D01*
X100355920Y-119655920D01*
X100277817Y-119751089D01*
X100219781Y-119859666D01*
X100184043Y-119977479D01*
X100171976Y-120100000D01*
X100171976Y-121100000D01*
X100184043Y-121222521D01*
X100219781Y-121340334D01*
X100277817Y-121448911D01*
X100355920Y-121544080D01*
X100424059Y-121600000D01*
X100355920Y-121655920D01*
X100299228Y-121725000D01*
X100028024Y-121725000D01*
X100028024Y-120880000D01*
X100015957Y-120757479D01*
X99997004Y-120695000D01*
X100015957Y-120632521D01*
X100028024Y-120510000D01*
X100028024Y-119610000D01*
X100015957Y-119487479D01*
X99997004Y-119425000D01*
X100015957Y-119362521D01*
X100028024Y-119240000D01*
X100025000Y-119071250D01*
X99868750Y-118915000D01*
X98525000Y-118915000D01*
X98525000Y-118935000D01*
X98275000Y-118935000D01*
X98275000Y-118915000D01*
X98255000Y-118915000D01*
X98255000Y-118665000D01*
X98275000Y-118665000D01*
X98275000Y-118645000D01*
X98525000Y-118645000D01*
X98525000Y-118665000D01*
X99868750Y-118665000D01*
X100025000Y-118508750D01*
X100028024Y-118340000D01*
X100015957Y-118217479D01*
X99980219Y-118099666D01*
X99922183Y-117991089D01*
X99844080Y-117895920D01*
X99818589Y-117875000D01*
X100215130Y-117875000D01*
X100184043Y-117977479D01*
G37*
G04 #@! TD.AperFunction*
D20*
X94507562Y-119185000D02*
X83027038Y-119185000D01*
X83025000Y-119071250D01*
X82868750Y-118915000D01*
X81525000Y-118915000D01*
X81525000Y-118935000D01*
X81275000Y-118935000D01*
X81275000Y-118915000D01*
X80258750Y-118915000D01*
X80168750Y-118825000D01*
X79125000Y-118825000D01*
X79125000Y-118845000D01*
X78875000Y-118845000D01*
X78875000Y-118825000D01*
X78855000Y-118825000D01*
X78855000Y-118575000D01*
X78875000Y-118575000D01*
X78875000Y-117743750D01*
X79125000Y-117743750D01*
X79125000Y-118575000D01*
X79841250Y-118575000D01*
X79931250Y-118665000D01*
X81275000Y-118665000D01*
X81275000Y-117871250D01*
X81525000Y-117871250D01*
X81525000Y-118665000D01*
X82868750Y-118665000D01*
X83025000Y-118508750D01*
X83028024Y-118340000D01*
X83015957Y-118217479D01*
X82980219Y-118099666D01*
X82922183Y-117991089D01*
X82844080Y-117895920D01*
X82748911Y-117817817D01*
X82640334Y-117759781D01*
X82522521Y-117724043D01*
X82400000Y-117711976D01*
X81681250Y-117715000D01*
X81525000Y-117871250D01*
X81275000Y-117871250D01*
X81118750Y-117715000D01*
X80400000Y-117711976D01*
X80277479Y-117724043D01*
X80159666Y-117759781D01*
X80143853Y-117768233D01*
X80048911Y-117690317D01*
X79940334Y-117632281D01*
X79822521Y-117596543D01*
X79700000Y-117584476D01*
X79281250Y-117587500D01*
X79125000Y-117743750D01*
X78875000Y-117743750D01*
X78718750Y-117587500D01*
X78300000Y-117584476D01*
X78223742Y-117591987D01*
X78371522Y-117225000D01*
X96467561Y-117225000D01*
X94507562Y-119185000D01*
G04 #@! TA.AperFunction,Conductor*
D21*
G36*
X94507562Y-119185000D02*
G01*
X83027038Y-119185000D01*
X83025000Y-119071250D01*
X82868750Y-118915000D01*
X81525000Y-118915000D01*
X81525000Y-118935000D01*
X81275000Y-118935000D01*
X81275000Y-118915000D01*
X80258750Y-118915000D01*
X80168750Y-118825000D01*
X79125000Y-118825000D01*
X79125000Y-118845000D01*
X78875000Y-118845000D01*
X78875000Y-118825000D01*
X78855000Y-118825000D01*
X78855000Y-118575000D01*
X78875000Y-118575000D01*
X78875000Y-117743750D01*
X79125000Y-117743750D01*
X79125000Y-118575000D01*
X79841250Y-118575000D01*
X79931250Y-118665000D01*
X81275000Y-118665000D01*
X81275000Y-117871250D01*
X81525000Y-117871250D01*
X81525000Y-118665000D01*
X82868750Y-118665000D01*
X83025000Y-118508750D01*
X83028024Y-118340000D01*
X83015957Y-118217479D01*
X82980219Y-118099666D01*
X82922183Y-117991089D01*
X82844080Y-117895920D01*
X82748911Y-117817817D01*
X82640334Y-117759781D01*
X82522521Y-117724043D01*
X82400000Y-117711976D01*
X81681250Y-117715000D01*
X81525000Y-117871250D01*
X81275000Y-117871250D01*
X81118750Y-117715000D01*
X80400000Y-117711976D01*
X80277479Y-117724043D01*
X80159666Y-117759781D01*
X80143853Y-117768233D01*
X80048911Y-117690317D01*
X79940334Y-117632281D01*
X79822521Y-117596543D01*
X79700000Y-117584476D01*
X79281250Y-117587500D01*
X79125000Y-117743750D01*
X78875000Y-117743750D01*
X78718750Y-117587500D01*
X78300000Y-117584476D01*
X78223742Y-117591987D01*
X78371522Y-117225000D01*
X96467561Y-117225000D01*
X94507562Y-119185000D01*
G37*
G04 #@! TD.AperFunction*
M02*
