%TF.GenerationSoftware,KiCad,Pcbnew,(5.1.9-0-10_14)*%
%TF.CreationDate,2021-03-21T21:38:48+11:00*%
%TF.ProjectId,Control Board,436f6e74-726f-46c2-9042-6f6172642e6b,rev?*%
%TF.SameCoordinates,Original*%
%TF.FileFunction,Legend,Bot*%
%TF.FilePolarity,Positive*%
%FSLAX46Y46*%
G04 Gerber Fmt 4.6, Leading zero omitted, Abs format (unit mm)*
G04 Created by KiCad (PCBNEW (5.1.9-0-10_14)) date 2021-03-21 21:38:48*
%MOMM*%
%LPD*%
G01*
G04 APERTURE LIST*
%ADD10C,0.062500*%
%ADD11C,0.150000*%
%ADD12C,0.120000*%
G04 APERTURE END LIST*
D10*
X121626190Y-125526190D02*
X121388095Y-125359523D01*
X121626190Y-125240476D02*
X121126190Y-125240476D01*
X121126190Y-125430952D01*
X121150000Y-125478571D01*
X121173809Y-125502380D01*
X121221428Y-125526190D01*
X121292857Y-125526190D01*
X121340476Y-125502380D01*
X121364285Y-125478571D01*
X121388095Y-125430952D01*
X121388095Y-125240476D01*
X121126190Y-125669047D02*
X121126190Y-125954761D01*
X121626190Y-125811904D02*
X121126190Y-125811904D01*
X121602380Y-126097619D02*
X121626190Y-126169047D01*
X121626190Y-126288095D01*
X121602380Y-126335714D01*
X121578571Y-126359523D01*
X121530952Y-126383333D01*
X121483333Y-126383333D01*
X121435714Y-126359523D01*
X121411904Y-126335714D01*
X121388095Y-126288095D01*
X121364285Y-126192857D01*
X121340476Y-126145238D01*
X121316666Y-126121428D01*
X121269047Y-126097619D01*
X121221428Y-126097619D01*
X121173809Y-126121428D01*
X121150000Y-126145238D01*
X121126190Y-126192857D01*
X121126190Y-126311904D01*
X121150000Y-126383333D01*
X121526190Y-123316666D02*
X121288095Y-123150000D01*
X121526190Y-123030952D02*
X121026190Y-123030952D01*
X121026190Y-123221428D01*
X121050000Y-123269047D01*
X121073809Y-123292857D01*
X121121428Y-123316666D01*
X121192857Y-123316666D01*
X121240476Y-123292857D01*
X121264285Y-123269047D01*
X121288095Y-123221428D01*
X121288095Y-123030952D01*
X121026190Y-123483333D02*
X121526190Y-123816666D01*
X121026190Y-123816666D02*
X121526190Y-123483333D01*
X121026190Y-120419047D02*
X121026190Y-120704761D01*
X121526190Y-120561904D02*
X121026190Y-120561904D01*
X121026190Y-120823809D02*
X121526190Y-121157142D01*
X121026190Y-121157142D02*
X121526190Y-120823809D01*
X120926190Y-117680952D02*
X120926190Y-117990476D01*
X121116666Y-117823809D01*
X121116666Y-117895238D01*
X121140476Y-117942857D01*
X121164285Y-117966666D01*
X121211904Y-117990476D01*
X121330952Y-117990476D01*
X121378571Y-117966666D01*
X121402380Y-117942857D01*
X121426190Y-117895238D01*
X121426190Y-117752380D01*
X121402380Y-117704761D01*
X121378571Y-117680952D01*
X120926190Y-118133333D02*
X121426190Y-118300000D01*
X120926190Y-118466666D01*
X120926190Y-118585714D02*
X120926190Y-118895238D01*
X121116666Y-118728571D01*
X121116666Y-118800000D01*
X121140476Y-118847619D01*
X121164285Y-118871428D01*
X121211904Y-118895238D01*
X121330952Y-118895238D01*
X121378571Y-118871428D01*
X121402380Y-118847619D01*
X121426190Y-118800000D01*
X121426190Y-118657142D01*
X121402380Y-118609523D01*
X121378571Y-118585714D01*
X121378571Y-115426190D02*
X121402380Y-115402380D01*
X121426190Y-115330952D01*
X121426190Y-115283333D01*
X121402380Y-115211904D01*
X121354761Y-115164285D01*
X121307142Y-115140476D01*
X121211904Y-115116666D01*
X121140476Y-115116666D01*
X121045238Y-115140476D01*
X120997619Y-115164285D01*
X120950000Y-115211904D01*
X120926190Y-115283333D01*
X120926190Y-115330952D01*
X120950000Y-115402380D01*
X120973809Y-115426190D01*
X120926190Y-115569047D02*
X120926190Y-115854761D01*
X121426190Y-115711904D02*
X120926190Y-115711904D01*
X121402380Y-115997619D02*
X121426190Y-116069047D01*
X121426190Y-116188095D01*
X121402380Y-116235714D01*
X121378571Y-116259523D01*
X121330952Y-116283333D01*
X121283333Y-116283333D01*
X121235714Y-116259523D01*
X121211904Y-116235714D01*
X121188095Y-116188095D01*
X121164285Y-116092857D01*
X121140476Y-116045238D01*
X121116666Y-116021428D01*
X121069047Y-115997619D01*
X121021428Y-115997619D01*
X120973809Y-116021428D01*
X120950000Y-116045238D01*
X120926190Y-116092857D01*
X120926190Y-116211904D01*
X120950000Y-116283333D01*
X120950000Y-112719047D02*
X120926190Y-112671428D01*
X120926190Y-112600000D01*
X120950000Y-112528571D01*
X120997619Y-112480952D01*
X121045238Y-112457142D01*
X121140476Y-112433333D01*
X121211904Y-112433333D01*
X121307142Y-112457142D01*
X121354761Y-112480952D01*
X121402380Y-112528571D01*
X121426190Y-112600000D01*
X121426190Y-112647619D01*
X121402380Y-112719047D01*
X121378571Y-112742857D01*
X121211904Y-112742857D01*
X121211904Y-112647619D01*
X121426190Y-112957142D02*
X120926190Y-112957142D01*
X121426190Y-113242857D01*
X120926190Y-113242857D01*
X121426190Y-113480952D02*
X120926190Y-113480952D01*
X120926190Y-113600000D01*
X120950000Y-113671428D01*
X120997619Y-113719047D01*
X121045238Y-113742857D01*
X121140476Y-113766666D01*
X121211904Y-113766666D01*
X121307142Y-113742857D01*
X121354761Y-113719047D01*
X121402380Y-113671428D01*
X121426190Y-113600000D01*
X121426190Y-113480952D01*
D11*
X126428571Y-118523809D02*
X126428571Y-118190476D01*
X126952380Y-118190476D02*
X125952380Y-118190476D01*
X125952380Y-118666666D01*
X125952380Y-118904761D02*
X125952380Y-119476190D01*
X126952380Y-119190476D02*
X125952380Y-119190476D01*
X126952380Y-119809523D02*
X125952380Y-119809523D01*
X125952380Y-120047619D01*
X126000000Y-120190476D01*
X126095238Y-120285714D01*
X126190476Y-120333333D01*
X126380952Y-120380952D01*
X126523809Y-120380952D01*
X126714285Y-120333333D01*
X126809523Y-120285714D01*
X126904761Y-120190476D01*
X126952380Y-120047619D01*
X126952380Y-119809523D01*
X126952380Y-120809523D02*
X125952380Y-120809523D01*
D12*
%TO.C,J1*%
X122170000Y-111790000D02*
X124830000Y-111790000D01*
X122170000Y-124550000D02*
X122170000Y-111790000D01*
X124830000Y-124550000D02*
X124830000Y-111790000D01*
X122170000Y-124550000D02*
X124830000Y-124550000D01*
X122170000Y-125820000D02*
X122170000Y-127150000D01*
X122170000Y-127150000D02*
X123500000Y-127150000D01*
D11*
X123833333Y-127602380D02*
X123833333Y-128316666D01*
X123880952Y-128459523D01*
X123976190Y-128554761D01*
X124119047Y-128602380D01*
X124214285Y-128602380D01*
X122833333Y-128602380D02*
X123404761Y-128602380D01*
X123119047Y-128602380D02*
X123119047Y-127602380D01*
X123214285Y-127745238D01*
X123309523Y-127840476D01*
X123404761Y-127888095D01*
%TO.C,SW6*%
X90583333Y-141504761D02*
X90440476Y-141552380D01*
X90202380Y-141552380D01*
X90107142Y-141504761D01*
X90059523Y-141457142D01*
X90011904Y-141361904D01*
X90011904Y-141266666D01*
X90059523Y-141171428D01*
X90107142Y-141123809D01*
X90202380Y-141076190D01*
X90392857Y-141028571D01*
X90488095Y-140980952D01*
X90535714Y-140933333D01*
X90583333Y-140838095D01*
X90583333Y-140742857D01*
X90535714Y-140647619D01*
X90488095Y-140600000D01*
X90392857Y-140552380D01*
X90154761Y-140552380D01*
X90011904Y-140600000D01*
X89678571Y-140552380D02*
X89440476Y-141552380D01*
X89250000Y-140838095D01*
X89059523Y-141552380D01*
X88821428Y-140552380D01*
X88011904Y-140552380D02*
X88202380Y-140552380D01*
X88297619Y-140600000D01*
X88345238Y-140647619D01*
X88440476Y-140790476D01*
X88488095Y-140980952D01*
X88488095Y-141361904D01*
X88440476Y-141457142D01*
X88392857Y-141504761D01*
X88297619Y-141552380D01*
X88107142Y-141552380D01*
X88011904Y-141504761D01*
X87964285Y-141457142D01*
X87916666Y-141361904D01*
X87916666Y-141123809D01*
X87964285Y-141028571D01*
X88011904Y-140980952D01*
X88107142Y-140933333D01*
X88297619Y-140933333D01*
X88392857Y-140980952D01*
X88440476Y-141028571D01*
X88488095Y-141123809D01*
%TO.C,SW1*%
X130533333Y-141504761D02*
X130390476Y-141552380D01*
X130152380Y-141552380D01*
X130057142Y-141504761D01*
X130009523Y-141457142D01*
X129961904Y-141361904D01*
X129961904Y-141266666D01*
X130009523Y-141171428D01*
X130057142Y-141123809D01*
X130152380Y-141076190D01*
X130342857Y-141028571D01*
X130438095Y-140980952D01*
X130485714Y-140933333D01*
X130533333Y-140838095D01*
X130533333Y-140742857D01*
X130485714Y-140647619D01*
X130438095Y-140600000D01*
X130342857Y-140552380D01*
X130104761Y-140552380D01*
X129961904Y-140600000D01*
X129628571Y-140552380D02*
X129390476Y-141552380D01*
X129200000Y-140838095D01*
X129009523Y-141552380D01*
X128771428Y-140552380D01*
X127866666Y-141552380D02*
X128438095Y-141552380D01*
X128152380Y-141552380D02*
X128152380Y-140552380D01*
X128247619Y-140695238D01*
X128342857Y-140790476D01*
X128438095Y-140838095D01*
%TO.C,SW2*%
X122583333Y-141404761D02*
X122440476Y-141452380D01*
X122202380Y-141452380D01*
X122107142Y-141404761D01*
X122059523Y-141357142D01*
X122011904Y-141261904D01*
X122011904Y-141166666D01*
X122059523Y-141071428D01*
X122107142Y-141023809D01*
X122202380Y-140976190D01*
X122392857Y-140928571D01*
X122488095Y-140880952D01*
X122535714Y-140833333D01*
X122583333Y-140738095D01*
X122583333Y-140642857D01*
X122535714Y-140547619D01*
X122488095Y-140500000D01*
X122392857Y-140452380D01*
X122154761Y-140452380D01*
X122011904Y-140500000D01*
X121678571Y-140452380D02*
X121440476Y-141452380D01*
X121250000Y-140738095D01*
X121059523Y-141452380D01*
X120821428Y-140452380D01*
X120488095Y-140547619D02*
X120440476Y-140500000D01*
X120345238Y-140452380D01*
X120107142Y-140452380D01*
X120011904Y-140500000D01*
X119964285Y-140547619D01*
X119916666Y-140642857D01*
X119916666Y-140738095D01*
X119964285Y-140880952D01*
X120535714Y-141452380D01*
X119916666Y-141452380D01*
%TO.C,SW3*%
X114583333Y-141504761D02*
X114440476Y-141552380D01*
X114202380Y-141552380D01*
X114107142Y-141504761D01*
X114059523Y-141457142D01*
X114011904Y-141361904D01*
X114011904Y-141266666D01*
X114059523Y-141171428D01*
X114107142Y-141123809D01*
X114202380Y-141076190D01*
X114392857Y-141028571D01*
X114488095Y-140980952D01*
X114535714Y-140933333D01*
X114583333Y-140838095D01*
X114583333Y-140742857D01*
X114535714Y-140647619D01*
X114488095Y-140600000D01*
X114392857Y-140552380D01*
X114154761Y-140552380D01*
X114011904Y-140600000D01*
X113678571Y-140552380D02*
X113440476Y-141552380D01*
X113250000Y-140838095D01*
X113059523Y-141552380D01*
X112821428Y-140552380D01*
X112535714Y-140552380D02*
X111916666Y-140552380D01*
X112250000Y-140933333D01*
X112107142Y-140933333D01*
X112011904Y-140980952D01*
X111964285Y-141028571D01*
X111916666Y-141123809D01*
X111916666Y-141361904D01*
X111964285Y-141457142D01*
X112011904Y-141504761D01*
X112107142Y-141552380D01*
X112392857Y-141552380D01*
X112488095Y-141504761D01*
X112535714Y-141457142D01*
%TO.C,SW4*%
X106583333Y-141504761D02*
X106440476Y-141552380D01*
X106202380Y-141552380D01*
X106107142Y-141504761D01*
X106059523Y-141457142D01*
X106011904Y-141361904D01*
X106011904Y-141266666D01*
X106059523Y-141171428D01*
X106107142Y-141123809D01*
X106202380Y-141076190D01*
X106392857Y-141028571D01*
X106488095Y-140980952D01*
X106535714Y-140933333D01*
X106583333Y-140838095D01*
X106583333Y-140742857D01*
X106535714Y-140647619D01*
X106488095Y-140600000D01*
X106392857Y-140552380D01*
X106154761Y-140552380D01*
X106011904Y-140600000D01*
X105678571Y-140552380D02*
X105440476Y-141552380D01*
X105250000Y-140838095D01*
X105059523Y-141552380D01*
X104821428Y-140552380D01*
X104011904Y-140885714D02*
X104011904Y-141552380D01*
X104250000Y-140504761D02*
X104488095Y-141219047D01*
X103869047Y-141219047D01*
%TO.C,SW5*%
X98583333Y-141504761D02*
X98440476Y-141552380D01*
X98202380Y-141552380D01*
X98107142Y-141504761D01*
X98059523Y-141457142D01*
X98011904Y-141361904D01*
X98011904Y-141266666D01*
X98059523Y-141171428D01*
X98107142Y-141123809D01*
X98202380Y-141076190D01*
X98392857Y-141028571D01*
X98488095Y-140980952D01*
X98535714Y-140933333D01*
X98583333Y-140838095D01*
X98583333Y-140742857D01*
X98535714Y-140647619D01*
X98488095Y-140600000D01*
X98392857Y-140552380D01*
X98154761Y-140552380D01*
X98011904Y-140600000D01*
X97678571Y-140552380D02*
X97440476Y-141552380D01*
X97250000Y-140838095D01*
X97059523Y-141552380D01*
X96821428Y-140552380D01*
X95964285Y-140552380D02*
X96440476Y-140552380D01*
X96488095Y-141028571D01*
X96440476Y-140980952D01*
X96345238Y-140933333D01*
X96107142Y-140933333D01*
X96011904Y-140980952D01*
X95964285Y-141028571D01*
X95916666Y-141123809D01*
X95916666Y-141361904D01*
X95964285Y-141457142D01*
X96011904Y-141504761D01*
X96107142Y-141552380D01*
X96345238Y-141552380D01*
X96440476Y-141504761D01*
X96488095Y-141457142D01*
%TD*%
M02*
