M48
METRIC,TZ
T1C0.400
T2C1.000
%
G90
G05
T1
X93200Y-139800
X96100Y-108100
X96100Y-122200
X97600Y-118900
X101250Y-103850
X102100Y-125900
X102500Y-104800
X103600Y-125900
X105100Y-125900
X106600Y-125900
X108100Y-125900
X109600Y-125900
X111900Y-129800
X115600Y-104700
X115600Y-117250
X115600Y-118750
X115800Y-108300
X116000Y-127000
X116450Y-103850
X125300Y-102400
X126800Y-106200
X128530Y-130900
X130025Y-141475
X130900Y-109750
X133300Y-129100
X136330Y-130900
X136330Y-134600
T2
X80900Y-136500
X83400Y-136500
X83700Y-146600
X86200Y-146600
X123500Y-113120
X123500Y-115660
X123500Y-118200
X123500Y-120740
X123500Y-123280
X123500Y-125820
X132800Y-146600
X135300Y-146600
T0
M30
